<?xml version="1.0" encoding="UTF-8" standalone="no"?>
<!DOCTYPE svg PUBLIC "-//W3C//DTD SVG 1.1//EN"
 "http://www.w3.org/Graphics/SVG/1.1/DTD/svg11.dtd">
<!-- Generated by graphviz version 2.47.0 (20210316.0004)
 -->
<!-- Title: dbml Pages: 1 -->
<svg width="2161pt" height="3795pt"
 viewBox="0.00 0.00 2160.95 3794.77" xmlns="http://www.w3.org/2000/svg" xmlns:xlink="http://www.w3.org/1999/xlink">
<g id="graph0" class="graph" transform="scale(1 1) rotate(0) translate(4 3790.77)">
<title>dbml</title>
<!-- category_id -->
<g id="category_id" class="node">
<title>category_id</title>
<ellipse fill="none" stroke="black" stroke-width="0" cx="1432.47" cy="-1723.53" rx="255.95" ry="1360.45"/>
<polygon fill="#29235c" stroke="transparent" points="1253.47,-2623.53 1253.47,-2683.53 1611.47,-2683.53 1611.47,-2623.53 1253.47,-2623.53"/>
<polygon fill="none" stroke="#29235c" points="1253.47,-2623.53 1253.47,-2683.53 1611.47,-2683.53 1611.47,-2623.53 1253.47,-2623.53"/>
<text text-anchor="start" x="1287.53" y="-2644.73" font-family="Helvetica,sans-Serif" font-weight="bold" font-size="32.00" fill="#ffffff"> &#160;&#160;&#160;&#160;&#160;&#160;category_id &#160;&#160;&#160;&#160;&#160;&#160;</text>
<polygon fill="#e7e2dd" stroke="transparent" points="1253.47,-2563.53 1253.47,-2623.53 1611.47,-2623.53 1611.47,-2563.53 1253.47,-2563.53"/>
<polygon fill="none" stroke="#29235c" points="1253.47,-2563.53 1253.47,-2623.53 1611.47,-2623.53 1611.47,-2563.53 1253.47,-2563.53"/>
<text text-anchor="start" x="1366.68" y="-2584.73" font-family="Helvetica,sans-Serif" font-style="italic" font-size="32.00" fill="#1d71b8"> &#160;&#160;&#160;mev &#160;&#160;&#160;</text>
<polygon fill="#e7e2dd" stroke="transparent" points="1253.47,-2503.53 1253.47,-2563.53 1611.47,-2563.53 1611.47,-2503.53 1253.47,-2503.53"/>
<polygon fill="none" stroke="#29235c" points="1253.47,-2503.53 1253.47,-2563.53 1611.47,-2563.53 1611.47,-2503.53 1253.47,-2503.53"/>
<text text-anchor="start" x="1348" y="-2524.73" font-family="Helvetica,sans-Serif" font-style="italic" font-size="32.00" fill="#1d71b8"> &#160;&#160;&#160;trading &#160;&#160;&#160;</text>
<polygon fill="#e7e2dd" stroke="transparent" points="1253.47,-2443.53 1253.47,-2503.53 1611.47,-2503.53 1611.47,-2443.53 1253.47,-2443.53"/>
<polygon fill="none" stroke="#29235c" points="1253.47,-2443.53 1253.47,-2503.53 1611.47,-2503.53 1611.47,-2443.53 1253.47,-2443.53"/>
<text text-anchor="start" x="1372.01" y="-2464.73" font-family="Helvetica,sans-Serif" font-style="italic" font-size="32.00" fill="#1d71b8"> &#160;&#160;&#160;cex &#160;&#160;&#160;</text>
<polygon fill="#e7e2dd" stroke="transparent" points="1253.47,-2383.53 1253.47,-2443.53 1611.47,-2443.53 1611.47,-2383.53 1253.47,-2383.53"/>
<polygon fill="none" stroke="#29235c" points="1253.47,-2383.53 1253.47,-2443.53 1611.47,-2443.53 1611.47,-2383.53 1253.47,-2383.53"/>
<text text-anchor="start" x="1345.33" y="-2404.73" font-family="Helvetica,sans-Serif" font-style="italic" font-size="32.00" fill="#1d71b8"> &#160;&#160;&#160;lending &#160;&#160;&#160;</text>
<polygon fill="#e7e2dd" stroke="transparent" points="1253.47,-2323.53 1253.47,-2383.53 1611.47,-2383.53 1611.47,-2323.53 1253.47,-2323.53"/>
<polygon fill="none" stroke="#29235c" points="1253.47,-2323.53 1253.47,-2383.53 1611.47,-2383.53 1611.47,-2323.53 1253.47,-2323.53"/>
<text text-anchor="start" x="1371.11" y="-2344.73" font-family="Helvetica,sans-Serif" font-style="italic" font-size="32.00" fill="#1d71b8"> &#160;&#160;&#160;dex &#160;&#160;&#160;</text>
<polygon fill="#e7e2dd" stroke="transparent" points="1253.47,-2263.53 1253.47,-2323.53 1611.47,-2323.53 1611.47,-2263.53 1253.47,-2263.53"/>
<polygon fill="none" stroke="#29235c" points="1253.47,-2263.53 1253.47,-2323.53 1611.47,-2323.53 1611.47,-2263.53 1253.47,-2263.53"/>
<text text-anchor="start" x="1328.45" y="-2284.73" font-family="Helvetica,sans-Serif" font-style="italic" font-size="32.00" fill="#1d71b8"> &#160;&#160;&#160;derivative &#160;&#160;&#160;</text>
<polygon fill="#e7e2dd" stroke="transparent" points="1253.47,-2203.53 1253.47,-2263.53 1611.47,-2263.53 1611.47,-2203.53 1253.47,-2203.53"/>
<polygon fill="none" stroke="#29235c" points="1253.47,-2203.53 1253.47,-2263.53 1611.47,-2263.53 1611.47,-2203.53 1253.47,-2203.53"/>
<text text-anchor="start" x="1346.22" y="-2224.73" font-family="Helvetica,sans-Serif" font-style="italic" font-size="32.00" fill="#1d71b8"> &#160;&#160;&#160;staking &#160;&#160;&#160;</text>
<polygon fill="#e7e2dd" stroke="transparent" points="1253.47,-2143.53 1253.47,-2203.53 1611.47,-2203.53 1611.47,-2143.53 1253.47,-2143.53"/>
<polygon fill="none" stroke="#29235c" points="1253.47,-2143.53 1253.47,-2203.53 1611.47,-2203.53 1611.47,-2143.53 1253.47,-2143.53"/>
<text text-anchor="start" x="1362.22" y="-2164.73" font-family="Helvetica,sans-Serif" font-style="italic" font-size="32.00" fill="#1d71b8"> &#160;&#160;&#160;nft_fi &#160;&#160;&#160;</text>
<polygon fill="#e7e2dd" stroke="transparent" points="1253.47,-2083.53 1253.47,-2143.53 1611.47,-2143.53 1611.47,-2083.53 1253.47,-2083.53"/>
<polygon fill="none" stroke="#29235c" points="1253.47,-2083.53 1253.47,-2143.53 1611.47,-2143.53 1611.47,-2083.53 1253.47,-2083.53"/>
<text text-anchor="start" x="1283.1" y="-2104.73" font-family="Helvetica,sans-Serif" font-style="italic" font-size="32.00" fill="#1d71b8"> &#160;&#160;&#160;nft_marketplace &#160;&#160;&#160;</text>
<polygon fill="#e7e2dd" stroke="transparent" points="1253.47,-2023.53 1253.47,-2083.53 1611.47,-2083.53 1611.47,-2023.53 1253.47,-2023.53"/>
<polygon fill="none" stroke="#29235c" points="1253.47,-2023.53 1253.47,-2083.53 1611.47,-2083.53 1611.47,-2023.53 1253.47,-2023.53"/>
<text text-anchor="start" x="1348" y="-2044.73" font-family="Helvetica,sans-Serif" font-style="italic" font-size="32.00" fill="#1d71b8"> &#160;&#160;&#160;erc721 &#160;&#160;&#160;</text>
<polygon fill="#e7e2dd" stroke="transparent" points="1253.47,-1963.53 1253.47,-2023.53 1611.47,-2023.53 1611.47,-1963.53 1253.47,-1963.53"/>
<polygon fill="none" stroke="#29235c" points="1253.47,-1963.53 1253.47,-2023.53 1611.47,-2023.53 1611.47,-1963.53 1253.47,-1963.53"/>
<text text-anchor="start" x="1339.1" y="-1984.73" font-family="Helvetica,sans-Serif" font-style="italic" font-size="32.00" fill="#1d71b8"> &#160;&#160;&#160;erc1155 &#160;&#160;&#160;</text>
<polygon fill="#e7e2dd" stroke="transparent" points="1253.47,-1903.53 1253.47,-1963.53 1611.47,-1963.53 1611.47,-1903.53 1253.47,-1903.53"/>
<polygon fill="none" stroke="#29235c" points="1253.47,-1903.53 1253.47,-1963.53 1611.47,-1963.53 1611.47,-1903.53 1253.47,-1903.53"/>
<text text-anchor="start" x="1319.57" y="-1924.73" font-family="Helvetica,sans-Serif" font-style="italic" font-size="32.00" fill="#1d71b8"> &#160;&#160;&#160;community &#160;&#160;&#160;</text>
<polygon fill="#e7e2dd" stroke="transparent" points="1253.47,-1843.53 1253.47,-1903.53 1611.47,-1903.53 1611.47,-1843.53 1253.47,-1843.53"/>
<polygon fill="none" stroke="#29235c" points="1253.47,-1843.53 1253.47,-1903.53 1611.47,-1903.53 1611.47,-1843.53 1253.47,-1843.53"/>
<text text-anchor="start" x="1332" y="-1864.73" font-family="Helvetica,sans-Serif" font-style="italic" font-size="32.00" fill="#1d71b8"> &#160;&#160;&#160;gambling &#160;&#160;&#160;</text>
<polygon fill="#e7e2dd" stroke="transparent" points="1253.47,-1783.53 1253.47,-1843.53 1611.47,-1843.53 1611.47,-1783.53 1253.47,-1783.53"/>
<polygon fill="none" stroke="#29235c" points="1253.47,-1783.53 1253.47,-1843.53 1611.47,-1843.53 1611.47,-1783.53 1253.47,-1783.53"/>
<text text-anchor="start" x="1344.45" y="-1804.73" font-family="Helvetica,sans-Serif" font-style="italic" font-size="32.00" fill="#1d71b8"> &#160;&#160;&#160;gaming &#160;&#160;&#160;</text>
<polygon fill="#e7e2dd" stroke="transparent" points="1253.47,-1723.53 1253.47,-1783.53 1611.47,-1783.53 1611.47,-1723.53 1253.47,-1723.53"/>
<polygon fill="none" stroke="#29235c" points="1253.47,-1723.53 1253.47,-1783.53 1611.47,-1783.53 1611.47,-1723.53 1253.47,-1723.53"/>
<text text-anchor="start" x="1291.1" y="-1744.73" font-family="Helvetica,sans-Serif" font-style="italic" font-size="32.00" fill="#1d71b8"> &#160;&#160;&#160;native_transfer &#160;&#160;&#160;</text>
<polygon fill="#e7e2dd" stroke="transparent" points="1253.47,-1663.53 1253.47,-1723.53 1611.47,-1723.53 1611.47,-1663.53 1253.47,-1663.53"/>
<polygon fill="none" stroke="#29235c" points="1253.47,-1663.53 1253.47,-1723.53 1611.47,-1723.53 1611.47,-1663.53 1253.47,-1663.53"/>
<text text-anchor="start" x="1324.88" y="-1684.73" font-family="Helvetica,sans-Serif" font-style="italic" font-size="32.00" fill="#1d71b8"> &#160;&#160;&#160;stablecoin &#160;&#160;&#160;</text>
<polygon fill="#e7e2dd" stroke="transparent" points="1253.47,-1603.53 1253.47,-1663.53 1611.47,-1663.53 1611.47,-1603.53 1253.47,-1603.53"/>
<polygon fill="none" stroke="#29235c" points="1253.47,-1603.53 1253.47,-1663.53 1611.47,-1663.53 1611.47,-1603.53 1253.47,-1603.53"/>
<text text-anchor="start" x="1356.89" y="-1624.73" font-family="Helvetica,sans-Serif" font-style="italic" font-size="32.00" fill="#1d71b8"> &#160;&#160;&#160;erc20 &#160;&#160;&#160;</text>
<polygon fill="#e7e2dd" stroke="transparent" points="1253.47,-1543.53 1253.47,-1603.53 1611.47,-1603.53 1611.47,-1543.53 1253.47,-1543.53"/>
<polygon fill="none" stroke="#29235c" points="1253.47,-1543.53 1253.47,-1603.53 1611.47,-1603.53 1611.47,-1543.53 1253.47,-1543.53"/>
<text text-anchor="start" x="1315.13" y="-1564.73" font-family="Helvetica,sans-Serif" font-style="italic" font-size="32.00" fill="#1d71b8"> &#160;&#160;&#160;middleware &#160;&#160;&#160;</text>
<polygon fill="#e7e2dd" stroke="transparent" points="1253.47,-1483.53 1253.47,-1543.53 1611.47,-1543.53 1611.47,-1483.53 1253.47,-1483.53"/>
<polygon fill="none" stroke="#29235c" points="1253.47,-1483.53 1253.47,-1543.53 1611.47,-1543.53 1611.47,-1483.53 1253.47,-1483.53"/>
<text text-anchor="start" x="1339.1" y="-1504.73" font-family="Helvetica,sans-Serif" font-style="italic" font-size="32.00" fill="#1d71b8"> &#160;&#160;&#160;erc4337 &#160;&#160;&#160;</text>
<polygon fill="#e7e2dd" stroke="transparent" points="1253.47,-1423.53 1253.47,-1483.53 1611.47,-1483.53 1611.47,-1423.53 1253.47,-1423.53"/>
<polygon fill="none" stroke="#29235c" points="1253.47,-1423.53 1253.47,-1483.53 1611.47,-1483.53 1611.47,-1423.53 1253.47,-1423.53"/>
<text text-anchor="start" x="1316.9" y="-1444.73" font-family="Helvetica,sans-Serif" font-style="italic" font-size="32.00" fill="#1d71b8"> &#160;&#160;&#160;inscriptions &#160;&#160;&#160;</text>
<polygon fill="#e7e2dd" stroke="transparent" points="1253.47,-1363.53 1253.47,-1423.53 1611.47,-1423.53 1611.47,-1363.53 1253.47,-1363.53"/>
<polygon fill="none" stroke="#29235c" points="1253.47,-1363.53 1253.47,-1423.53 1611.47,-1423.53 1611.47,-1363.53 1253.47,-1363.53"/>
<text text-anchor="start" x="1353.34" y="-1384.73" font-family="Helvetica,sans-Serif" font-style="italic" font-size="32.00" fill="#1d71b8"> &#160;&#160;&#160;oracle &#160;&#160;&#160;</text>
<polygon fill="#e7e2dd" stroke="transparent" points="1253.47,-1303.53 1253.47,-1363.53 1611.47,-1363.53 1611.47,-1303.53 1253.47,-1303.53"/>
<polygon fill="none" stroke="#29235c" points="1253.47,-1303.53 1253.47,-1363.53 1611.47,-1363.53 1611.47,-1303.53 1253.47,-1303.53"/>
<text text-anchor="start" x="1357.77" y="-1324.73" font-family="Helvetica,sans-Serif" font-style="italic" font-size="32.00" fill="#1d71b8"> &#160;&#160;&#160;depin &#160;&#160;&#160;</text>
<polygon fill="#e7e2dd" stroke="transparent" points="1253.47,-1243.53 1253.47,-1303.53 1611.47,-1303.53 1611.47,-1243.53 1253.47,-1243.53"/>
<polygon fill="none" stroke="#29235c" points="1253.47,-1243.53 1253.47,-1303.53 1611.47,-1303.53 1611.47,-1243.53 1253.47,-1243.53"/>
<text text-anchor="start" x="1283.98" y="-1264.73" font-family="Helvetica,sans-Serif" font-style="italic" font-size="32.00" fill="#1d71b8"> &#160;&#160;&#160;developer_tools &#160;&#160;&#160;</text>
<polygon fill="#e7e2dd" stroke="transparent" points="1253.47,-1183.53 1253.47,-1243.53 1611.47,-1243.53 1611.47,-1183.53 1253.47,-1183.53"/>
<polygon fill="none" stroke="#29235c" points="1253.47,-1183.53 1253.47,-1243.53 1611.47,-1243.53 1611.47,-1183.53 1253.47,-1183.53"/>
<text text-anchor="start" x="1346.23" y="-1204.73" font-family="Helvetica,sans-Serif" font-style="italic" font-size="32.00" fill="#1d71b8"> &#160;&#160;&#160;identity &#160;&#160;&#160;</text>
<polygon fill="#e7e2dd" stroke="transparent" points="1253.47,-1123.53 1253.47,-1183.53 1611.47,-1183.53 1611.47,-1123.53 1253.47,-1123.53"/>
<polygon fill="none" stroke="#29235c" points="1253.47,-1123.53 1253.47,-1183.53 1611.47,-1183.53 1611.47,-1123.53 1253.47,-1123.53"/>
<text text-anchor="start" x="1346.24" y="-1144.73" font-family="Helvetica,sans-Serif" font-style="italic" font-size="32.00" fill="#1d71b8"> &#160;&#160;&#160;privacy &#160;&#160;&#160;</text>
<polygon fill="#e7e2dd" stroke="transparent" points="1253.47,-1063.53 1253.47,-1123.53 1611.47,-1123.53 1611.47,-1063.53 1253.47,-1063.53"/>
<polygon fill="none" stroke="#29235c" points="1253.47,-1063.53 1253.47,-1123.53 1611.47,-1123.53 1611.47,-1063.53 1253.47,-1063.53"/>
<text text-anchor="start" x="1327.55" y="-1084.73" font-family="Helvetica,sans-Serif" font-style="italic" font-size="32.00" fill="#1d71b8"> &#160;&#160;&#160;insurance &#160;&#160;&#160;</text>
<polygon fill="#e7e2dd" stroke="transparent" points="1253.47,-1003.53 1253.47,-1063.53 1611.47,-1063.53 1611.47,-1003.53 1253.47,-1003.53"/>
<polygon fill="none" stroke="#29235c" points="1253.47,-1003.53 1253.47,-1063.53 1611.47,-1063.53 1611.47,-1003.53 1253.47,-1003.53"/>
<text text-anchor="start" x="1347.12" y="-1024.73" font-family="Helvetica,sans-Serif" font-style="italic" font-size="32.00" fill="#1d71b8"> &#160;&#160;&#160;airdrop &#160;&#160;&#160;</text>
<polygon fill="#e7e2dd" stroke="transparent" points="1253.47,-943.53 1253.47,-1003.53 1611.47,-1003.53 1611.47,-943.53 1253.47,-943.53"/>
<polygon fill="none" stroke="#29235c" points="1253.47,-943.53 1253.47,-1003.53 1611.47,-1003.53 1611.47,-943.53 1253.47,-943.53"/>
<text text-anchor="start" x="1327.55" y="-964.73" font-family="Helvetica,sans-Serif" font-style="italic" font-size="32.00" fill="#1d71b8"> &#160;&#160;&#160;payments &#160;&#160;&#160;</text>
<polygon fill="#e7e2dd" stroke="transparent" points="1253.47,-883.53 1253.47,-943.53 1611.47,-943.53 1611.47,-883.53 1253.47,-883.53"/>
<polygon fill="none" stroke="#29235c" points="1253.47,-883.53 1253.47,-943.53 1611.47,-943.53 1611.47,-883.53 1253.47,-883.53"/>
<text text-anchor="start" x="1360.45" y="-904.73" font-family="Helvetica,sans-Serif" font-style="italic" font-size="32.00" fill="#1d71b8"> &#160;&#160;&#160;other &#160;&#160;&#160;</text>
<polygon fill="#e7e2dd" stroke="transparent" points="1253.47,-823.53 1253.47,-883.53 1611.47,-883.53 1611.47,-823.53 1253.47,-823.53"/>
<polygon fill="none" stroke="#29235c" points="1253.47,-823.53 1253.47,-883.53 1611.47,-883.53 1611.47,-823.53 1253.47,-823.53"/>
<text text-anchor="start" x="1264.44" y="-844.73" font-family="Helvetica,sans-Serif" font-style="italic" font-size="32.00" fill="#1d71b8"> &#160;&#160;&#160;cc_communication &#160;&#160;&#160;</text>
<polygon fill="#e7e2dd" stroke="transparent" points="1253.47,-763.53 1253.47,-823.53 1611.47,-823.53 1611.47,-763.53 1253.47,-763.53"/>
<polygon fill="none" stroke="#29235c" points="1253.47,-763.53 1253.47,-823.53 1611.47,-823.53 1611.47,-763.53 1253.47,-763.53"/>
<text text-anchor="start" x="1352.45" y="-784.73" font-family="Helvetica,sans-Serif" font-style="italic" font-size="32.00" fill="#1d71b8"> &#160;&#160;&#160;bridge &#160;&#160;&#160;</text>
<polygon fill="none" stroke="#29235c" stroke-width="2" points="1252.47,-762.53 1252.47,-2684.53 1612.47,-2684.53 1612.47,-762.53 1252.47,-762.53"/>
</g>
<!-- Addresses -->
<g id="Addresses" class="node">
<title>Addresses</title>
<g id="a_Addresses"><a xlink:title="Addresses&#10;Represents wallet and smart contract addresses, linked to chains, projects, and categorization.">
<ellipse fill="none" stroke="black" stroke-width="0" cx="820.18" cy="-2563.53" rx="320.14" ry="511.89"/>
<polygon fill="#1d71b8" stroke="transparent" points="596.18,-2863.53 596.18,-2923.53 1045.18,-2923.53 1045.18,-2863.53 596.18,-2863.53"/>
<polygon fill="none" stroke="#29235c" points="596.18,-2863.53 596.18,-2923.53 1045.18,-2923.53 1045.18,-2863.53 596.18,-2863.53"/>
<text text-anchor="start" x="682.86" y="-2884.73" font-family="Helvetica,sans-Serif" font-weight="bold" font-size="32.00" fill="#ffffff"> &#160;&#160;&#160;&#160;&#160;&#160;Addresses &#160;&#160;&#160;&#160;&#160;&#160;</text>
<polygon fill="#e7e2dd" stroke="transparent" points="596.18,-2803.53 596.18,-2863.53 1045.18,-2863.53 1045.18,-2803.53 596.18,-2803.53"/>
<polygon fill="none" stroke="#29235c" points="596.18,-2803.53 596.18,-2863.53 1045.18,-2863.53 1045.18,-2803.53 596.18,-2803.53"/>
<text text-anchor="start" x="607.18" y="-2824.73" font-family="Helvetica,sans-Serif" font-weight="bold" font-size="32.00" fill="#29235c">address</text>
<text text-anchor="start" x="720.99" y="-2824.73" font-family="Helvetica,sans-Serif" font-size="32.00" fill="#29235c"> &#160;&#160;&#160;</text>
<text text-anchor="start" x="955.96" y="-2824.73" font-family="Helvetica,sans-Serif" font-style="italic" font-size="32.00" fill="#29235c">string</text>
<polygon fill="#e7e2dd" stroke="transparent" points="596.18,-2743.53 596.18,-2803.53 1045.18,-2803.53 1045.18,-2743.53 596.18,-2743.53"/>
<polygon fill="none" stroke="#29235c" points="596.18,-2743.53 596.18,-2803.53 1045.18,-2803.53 1045.18,-2743.53 596.18,-2743.53"/>
<text text-anchor="start" x="607.18" y="-2764.73" font-family="Helvetica,sans-Serif" font-weight="bold" font-size="32.00" fill="#29235c">chain_id</text>
<text text-anchor="start" x="726.33" y="-2764.73" font-family="Helvetica,sans-Serif" font-size="32.00" fill="#29235c"> &#160;&#160;&#160;</text>
<text text-anchor="start" x="955.96" y="-2764.73" font-family="Helvetica,sans-Serif" font-style="italic" font-size="32.00" fill="#29235c">string</text>
<polygon fill="#e7e2dd" stroke="transparent" points="596.18,-2683.53 596.18,-2743.53 1045.18,-2743.53 1045.18,-2683.53 596.18,-2683.53"/>
<polygon fill="none" stroke="#29235c" points="596.18,-2683.53 596.18,-2743.53 1045.18,-2743.53 1045.18,-2683.53 596.18,-2683.53"/>
<text text-anchor="start" x="607.18" y="-2703.73" font-family="Helvetica,sans-Serif" font-size="32.00" fill="#29235c">project_id &#160;&#160;&#160;</text>
<text text-anchor="start" x="906.14" y="-2704.73" font-family="Helvetica,sans-Serif" font-style="italic" font-size="32.00" fill="#29235c">unknown</text>
<polygon fill="#e7e2dd" stroke="transparent" points="596.18,-2623.53 596.18,-2683.53 1045.18,-2683.53 1045.18,-2623.53 596.18,-2623.53"/>
<polygon fill="none" stroke="#29235c" points="596.18,-2623.53 596.18,-2683.53 1045.18,-2683.53 1045.18,-2623.53 596.18,-2623.53"/>
<text text-anchor="start" x="607.18" y="-2643.73" font-family="Helvetica,sans-Serif" font-size="32.00" fill="#29235c">category_id &#160;&#160;&#160;</text>
<text text-anchor="start" x="868.8" y="-2644.73" font-family="Helvetica,sans-Serif" font-style="italic" font-size="32.00" fill="#29235c">category_id</text>
<polygon fill="#e7e2dd" stroke="transparent" points="596.18,-2563.53 596.18,-2623.53 1045.18,-2623.53 1045.18,-2563.53 596.18,-2563.53"/>
<polygon fill="none" stroke="#29235c" points="596.18,-2563.53 596.18,-2623.53 1045.18,-2623.53 1045.18,-2563.53 596.18,-2563.53"/>
<text text-anchor="start" x="607.18" y="-2583.73" font-family="Helvetica,sans-Serif" font-size="32.00" fill="#29235c">is_eoa &#160;&#160;&#160;</text>
<text text-anchor="start" x="973.71" y="-2584.73" font-family="Helvetica,sans-Serif" font-style="italic" font-size="32.00" fill="#29235c">bool</text>
<polygon fill="#e7e2dd" stroke="transparent" points="596.18,-2503.53 596.18,-2563.53 1045.18,-2563.53 1045.18,-2503.53 596.18,-2503.53"/>
<polygon fill="none" stroke="#29235c" points="596.18,-2503.53 596.18,-2563.53 1045.18,-2563.53 1045.18,-2503.53 596.18,-2503.53"/>
<text text-anchor="start" x="607.18" y="-2523.73" font-family="Helvetica,sans-Serif" font-size="32.00" fill="#29235c">is_proxy &#160;&#160;&#160;</text>
<text text-anchor="start" x="973.71" y="-2524.73" font-family="Helvetica,sans-Serif" font-style="italic" font-size="32.00" fill="#29235c">bool</text>
<polygon fill="#e7e2dd" stroke="transparent" points="596.18,-2443.53 596.18,-2503.53 1045.18,-2503.53 1045.18,-2443.53 596.18,-2443.53"/>
<polygon fill="none" stroke="#29235c" points="596.18,-2443.53 596.18,-2503.53 1045.18,-2503.53 1045.18,-2443.53 596.18,-2443.53"/>
<text text-anchor="start" x="607.18" y="-2463.73" font-family="Helvetica,sans-Serif" font-size="32.00" fill="#29235c">name &#160;&#160;&#160;</text>
<text text-anchor="start" x="955.96" y="-2464.73" font-family="Helvetica,sans-Serif" font-style="italic" font-size="32.00" fill="#29235c">string</text>
<polygon fill="#e7e2dd" stroke="transparent" points="596.18,-2383.53 596.18,-2443.53 1045.18,-2443.53 1045.18,-2383.53 596.18,-2383.53"/>
<polygon fill="none" stroke="#29235c" points="596.18,-2383.53 596.18,-2443.53 1045.18,-2443.53 1045.18,-2383.53 596.18,-2383.53"/>
<text text-anchor="start" x="607.18" y="-2403.73" font-family="Helvetica,sans-Serif" font-size="32.00" fill="#29235c">bytecode &#160;&#160;&#160;</text>
<text text-anchor="start" x="955.92" y="-2404.73" font-family="Helvetica,sans-Serif" font-style="italic" font-size="32.00" fill="#29235c">bytea</text>
<polygon fill="#e7e2dd" stroke="transparent" points="596.18,-2323.53 596.18,-2383.53 1045.18,-2383.53 1045.18,-2323.53 596.18,-2323.53"/>
<polygon fill="none" stroke="#29235c" points="596.18,-2323.53 596.18,-2383.53 1045.18,-2383.53 1045.18,-2323.53 596.18,-2323.53"/>
<text text-anchor="start" x="607.18" y="-2343.73" font-family="Helvetica,sans-Serif" font-size="32.00" fill="#29235c">abi &#160;&#160;&#160;</text>
<text text-anchor="start" x="955.96" y="-2344.73" font-family="Helvetica,sans-Serif" font-style="italic" font-size="32.00" fill="#29235c">string</text>
<polygon fill="#e7e2dd" stroke="transparent" points="596.18,-2263.53 596.18,-2323.53 1045.18,-2323.53 1045.18,-2263.53 596.18,-2263.53"/>
<polygon fill="none" stroke="#29235c" points="596.18,-2263.53 596.18,-2323.53 1045.18,-2323.53 1045.18,-2263.53 596.18,-2263.53"/>
<text text-anchor="start" x="606.68" y="-2283.73" font-family="Helvetica,sans-Serif" font-size="32.00" fill="#29235c">deployment_date &#160;&#160;&#160;</text>
<text text-anchor="start" x="886.9" y="-2284.73" font-family="Helvetica,sans-Serif" font-style="italic" font-size="32.00" fill="#29235c">timestamp</text>
<polygon fill="#e7e2dd" stroke="transparent" points="596.18,-2203.53 596.18,-2263.53 1045.18,-2263.53 1045.18,-2203.53 596.18,-2203.53"/>
<polygon fill="none" stroke="#29235c" points="596.18,-2203.53 596.18,-2263.53 1045.18,-2263.53 1045.18,-2203.53 596.18,-2203.53"/>
<text text-anchor="start" x="607.18" y="-2223.73" font-family="Helvetica,sans-Serif" font-size="32.00" fill="#29235c">deployer_address &#160;&#160;&#160;</text>
<text text-anchor="start" x="906.14" y="-2224.73" font-family="Helvetica,sans-Serif" font-style="italic" font-size="32.00" fill="#29235c">unknown</text>
<polygon fill="none" stroke="#29235c" stroke-width="2" points="594.68,-2202.53 594.68,-2924.53 1045.68,-2924.53 1045.68,-2202.53 594.68,-2202.53"/>
</a>
</g>
</g>
<!-- Addresses&#45;&gt;category_id -->
<g id="edge11" class="edge">
<title>Addresses:e&#45;&gt;category_id:w</title>
<path fill="none" stroke="#29235c" stroke-width="3" d="M1046.18,-2653.53C1137.87,-2653.53 1160.79,-2653.53 1252.47,-2653.53"/>
</g>
<!-- Projects -->
<g id="Projects" class="node">
<title>Projects</title>
<g id="a_Projects"><a xlink:title="Projects&#10;Information about specific projects (i.e. Uniswap V2), including project name, website link, and documentation.">
<ellipse fill="none" stroke="black" stroke-width="0" cx="1432.47" cy="-3444.53" rx="237.68" ry="342.48"/>
<polygon fill="#1d71b8" stroke="transparent" points="1266.47,-3624.53 1266.47,-3684.53 1598.47,-3684.53 1598.47,-3624.53 1266.47,-3624.53"/>
<polygon fill="none" stroke="#29235c" points="1266.47,-3624.53 1266.47,-3684.53 1598.47,-3684.53 1598.47,-3624.53 1266.47,-3624.53"/>
<text text-anchor="start" x="1312.44" y="-3645.73" font-family="Helvetica,sans-Serif" font-weight="bold" font-size="32.00" fill="#ffffff"> &#160;&#160;&#160;&#160;&#160;&#160;Projects &#160;&#160;&#160;&#160;&#160;&#160;</text>
<polygon fill="#e7e2dd" stroke="transparent" points="1266.47,-3564.53 1266.47,-3624.53 1598.47,-3624.53 1598.47,-3564.53 1266.47,-3564.53"/>
<polygon fill="none" stroke="#29235c" points="1266.47,-3564.53 1266.47,-3624.53 1598.47,-3624.53 1598.47,-3564.53 1266.47,-3564.53"/>
<text text-anchor="start" x="1277.47" y="-3585.73" font-family="Helvetica,sans-Serif" font-weight="bold" font-size="32.00" fill="#29235c">project_id</text>
<text text-anchor="start" x="1416.16" y="-3585.73" font-family="Helvetica,sans-Serif" font-size="32.00" fill="#29235c"> &#160;&#160;&#160;</text>
<text text-anchor="start" x="1459.43" y="-3585.73" font-family="Helvetica,sans-Serif" font-style="italic" font-size="32.00" fill="#29235c">unknown</text>
<polygon fill="#e7e2dd" stroke="transparent" points="1266.47,-3504.53 1266.47,-3564.53 1598.47,-3564.53 1598.47,-3504.53 1266.47,-3504.53"/>
<polygon fill="none" stroke="#29235c" points="1266.47,-3504.53 1266.47,-3564.53 1598.47,-3564.53 1598.47,-3504.53 1266.47,-3504.53"/>
<text text-anchor="start" x="1277.47" y="-3524.73" font-family="Helvetica,sans-Serif" font-size="32.00" fill="#29235c">name &#160;&#160;&#160;</text>
<text text-anchor="start" x="1509.25" y="-3525.73" font-family="Helvetica,sans-Serif" font-style="italic" font-size="32.00" fill="#29235c">string</text>
<polygon fill="#e7e2dd" stroke="transparent" points="1266.47,-3444.53 1266.47,-3504.53 1598.47,-3504.53 1598.47,-3444.53 1266.47,-3444.53"/>
<polygon fill="none" stroke="#29235c" points="1266.47,-3444.53 1266.47,-3504.53 1598.47,-3504.53 1598.47,-3444.53 1266.47,-3444.53"/>
<text text-anchor="start" x="1277.47" y="-3464.73" font-family="Helvetica,sans-Serif" font-size="32.00" fill="#29235c">team_id &#160;&#160;&#160;</text>
<text text-anchor="start" x="1509.25" y="-3465.73" font-family="Helvetica,sans-Serif" font-style="italic" font-size="32.00" fill="#29235c">string</text>
<polygon fill="#e7e2dd" stroke="transparent" points="1266.47,-3384.53 1266.47,-3444.53 1598.47,-3444.53 1598.47,-3384.53 1266.47,-3384.53"/>
<polygon fill="none" stroke="#29235c" points="1266.47,-3384.53 1266.47,-3444.53 1598.47,-3444.53 1598.47,-3384.53 1266.47,-3384.53"/>
<text text-anchor="start" x="1277.47" y="-3404.73" font-family="Helvetica,sans-Serif" font-size="32.00" fill="#29235c">website &#160;&#160;&#160;</text>
<text text-anchor="start" x="1509.25" y="-3405.73" font-family="Helvetica,sans-Serif" font-style="italic" font-size="32.00" fill="#29235c">string</text>
<polygon fill="#e7e2dd" stroke="transparent" points="1266.47,-3324.53 1266.47,-3384.53 1598.47,-3384.53 1598.47,-3324.53 1266.47,-3324.53"/>
<polygon fill="none" stroke="#29235c" points="1266.47,-3324.53 1266.47,-3384.53 1598.47,-3384.53 1598.47,-3324.53 1266.47,-3324.53"/>
<text text-anchor="start" x="1277.47" y="-3344.73" font-family="Helvetica,sans-Serif" font-size="32.00" fill="#29235c">docs &#160;&#160;&#160;</text>
<text text-anchor="start" x="1509.25" y="-3345.73" font-family="Helvetica,sans-Serif" font-style="italic" font-size="32.00" fill="#29235c">string</text>
<polygon fill="#e7e2dd" stroke="transparent" points="1266.47,-3264.53 1266.47,-3324.53 1598.47,-3324.53 1598.47,-3264.53 1266.47,-3264.53"/>
<polygon fill="none" stroke="#29235c" points="1266.47,-3264.53 1266.47,-3324.53 1598.47,-3324.53 1598.47,-3264.53 1266.47,-3264.53"/>
<text text-anchor="start" x="1277.47" y="-3284.73" font-family="Helvetica,sans-Serif" font-size="32.00" fill="#29235c">oss_slug &#160;&#160;&#160;</text>
<text text-anchor="start" x="1509.25" y="-3285.73" font-family="Helvetica,sans-Serif" font-style="italic" font-size="32.00" fill="#29235c">string</text>
<polygon fill="#e7e2dd" stroke="transparent" points="1266.47,-3204.53 1266.47,-3264.53 1598.47,-3264.53 1598.47,-3204.53 1266.47,-3204.53"/>
<polygon fill="none" stroke="#29235c" points="1266.47,-3204.53 1266.47,-3264.53 1598.47,-3264.53 1598.47,-3204.53 1266.47,-3204.53"/>
<text text-anchor="start" x="1277" y="-3224.73" font-family="Helvetica,sans-Serif" font-size="32.00" fill="#29235c">token_symbol &#160;&#160;&#160;</text>
<text text-anchor="start" x="1509.36" y="-3225.73" font-family="Helvetica,sans-Serif" font-style="italic" font-size="32.00" fill="#29235c">string</text>
<polygon fill="none" stroke="#29235c" stroke-width="2" points="1265.47,-3203.53 1265.47,-3685.53 1599.47,-3685.53 1599.47,-3203.53 1265.47,-3203.53"/>
</a>
</g>
</g>
<!-- Addresses&#45;&gt;Projects -->
<!-- Addresses&#45;&gt;Projects -->
<g id="edge10" class="edge">
<title>Addresses:e&#45;&gt;Projects:w</title>
<path fill="none" stroke="#29235c" stroke-width="3" d="M1046.18,-2713.53C1244.49,-2713.53 1069.91,-3564.68 1255.46,-3593.77"/>
<polygon fill="#29235c" stroke="#29235c" stroke-width="3" points="1255.24,-3597.26 1265.47,-3594.53 1255.77,-3590.28 1255.24,-3597.26"/>
<text text-anchor="middle" x="1256.58" y="-3604.13" font-family="Helvetica,sans-Serif" font-size="32.00" fill="#29235c">1</text>
<text text-anchor="middle" x="1052.4" y="-2723.13" font-family="Helvetica,sans-Serif" font-size="32.00" fill="#29235c">*</text>
</g>
<!-- Team -->
<g id="Team" class="node">
<title>Team</title>
<g id="a_Team"><a xlink:title="Team&#10;A group of people or entities working on projects, with a simple structure containing just an ID and a name.">
<ellipse fill="none" stroke="black" stroke-width="0" cx="1938.7" cy="-3594.53" rx="214.01" ry="130.22"/>
<polygon fill="#1d71b8" stroke="transparent" points="1789.7,-3624.53 1789.7,-3684.53 2088.7,-3684.53 2088.7,-3624.53 1789.7,-3624.53"/>
<polygon fill="none" stroke="#29235c" points="1789.7,-3624.53 1789.7,-3684.53 2088.7,-3684.53 2088.7,-3624.53 1789.7,-3624.53"/>
<text text-anchor="start" x="1836.06" y="-3645.73" font-family="Helvetica,sans-Serif" font-weight="bold" font-size="32.00" fill="#ffffff"> &#160;&#160;&#160;&#160;&#160;&#160;Team &#160;&#160;&#160;&#160;&#160;&#160;</text>
<polygon fill="#e7e2dd" stroke="transparent" points="1789.7,-3564.53 1789.7,-3624.53 2088.7,-3624.53 2088.7,-3564.53 1789.7,-3564.53"/>
<polygon fill="none" stroke="#29235c" points="1789.7,-3564.53 1789.7,-3624.53 2088.7,-3624.53 2088.7,-3564.53 1789.7,-3564.53"/>
<text text-anchor="start" x="1800.51" y="-3585.73" font-family="Helvetica,sans-Serif" font-weight="bold" font-size="32.00" fill="#29235c">team_id</text>
<text text-anchor="start" x="1914.31" y="-3585.73" font-family="Helvetica,sans-Serif" font-size="32.00" fill="#29235c"> &#160;&#160;&#160;</text>
<text text-anchor="start" x="1949.68" y="-3585.73" font-family="Helvetica,sans-Serif" font-style="italic" font-size="32.00" fill="#29235c">unknown</text>
<polygon fill="#e7e2dd" stroke="transparent" points="1789.7,-3504.53 1789.7,-3564.53 2088.7,-3564.53 2088.7,-3504.53 1789.7,-3504.53"/>
<polygon fill="none" stroke="#29235c" points="1789.7,-3504.53 1789.7,-3564.53 2088.7,-3564.53 2088.7,-3504.53 1789.7,-3504.53"/>
<text text-anchor="start" x="1800.7" y="-3524.73" font-family="Helvetica,sans-Serif" font-size="32.00" fill="#29235c">name &#160;&#160;&#160;</text>
<text text-anchor="start" x="1999.48" y="-3525.73" font-family="Helvetica,sans-Serif" font-style="italic" font-size="32.00" fill="#29235c">string</text>
<polygon fill="none" stroke="#29235c" stroke-width="2" points="1788.2,-3503.53 1788.2,-3685.53 2089.2,-3685.53 2089.2,-3503.53 1788.2,-3503.53"/>
</a>
</g>
</g>
<!-- Projects&#45;&gt;Team -->
<!-- Projects&#45;&gt;Team -->
<g id="edge8" class="edge">
<title>Projects:e&#45;&gt;Team:w</title>
<path fill="none" stroke="#29235c" stroke-width="3" d="M1599.47,-3474.53C1695.56,-3474.53 1689.68,-3586.24 1778.59,-3594.1"/>
<polygon fill="#29235c" stroke="#29235c" stroke-width="3" points="1778.56,-3597.6 1788.7,-3594.53 1778.86,-3590.61 1778.56,-3597.6"/>
<text text-anchor="middle" x="1779.81" y="-3604.13" font-family="Helvetica,sans-Serif" font-size="32.00" fill="#29235c">1</text>
<text text-anchor="middle" x="1593.25" y="-3484.13" font-family="Helvetica,sans-Serif" font-size="32.00" fill="#29235c">*</text>
</g>
<!-- TagGroup -->
<g id="TagGroup" class="node">
<title>TagGroup</title>
<g id="a_TagGroup"><a xlink:title="TagGroup&#10;Represents collections of tags that can be applied to other entities in the system for organizational purposes.">
<ellipse fill="none" stroke="black" stroke-width="0" cx="1432.47" cy="-172.53" rx="230.53" ry="172.57"/>
<polygon fill="#1d71b8" stroke="transparent" points="1271.47,-232.53 1271.47,-292.53 1593.47,-292.53 1593.47,-232.53 1271.47,-232.53"/>
<polygon fill="none" stroke="#29235c" points="1271.47,-232.53 1271.47,-292.53 1593.47,-292.53 1593.47,-232.53 1271.47,-232.53"/>
<text text-anchor="start" x="1298.2" y="-253.73" font-family="Helvetica,sans-Serif" font-weight="bold" font-size="32.00" fill="#ffffff"> &#160;&#160;&#160;&#160;&#160;&#160;TagGroup &#160;&#160;&#160;&#160;&#160;&#160;</text>
<polygon fill="#e7e2dd" stroke="transparent" points="1271.47,-172.53 1271.47,-232.53 1593.47,-232.53 1593.47,-172.53 1271.47,-172.53"/>
<polygon fill="none" stroke="#29235c" points="1271.47,-172.53 1271.47,-232.53 1593.47,-232.53 1593.47,-172.53 1271.47,-172.53"/>
<text text-anchor="start" x="1282.32" y="-193.73" font-family="Helvetica,sans-Serif" font-weight="bold" font-size="32.00" fill="#29235c">tag_group_id</text>
<text text-anchor="start" x="1469.06" y="-193.73" font-family="Helvetica,sans-Serif" font-size="32.00" fill="#29235c"> &#160;&#160;&#160;</text>
<text text-anchor="start" x="1504.36" y="-193.73" font-family="Helvetica,sans-Serif" font-style="italic" font-size="32.00" fill="#29235c">string</text>
<polygon fill="#e7e2dd" stroke="transparent" points="1271.47,-112.53 1271.47,-172.53 1593.47,-172.53 1593.47,-112.53 1271.47,-112.53"/>
<polygon fill="none" stroke="#29235c" points="1271.47,-112.53 1271.47,-172.53 1593.47,-172.53 1593.47,-112.53 1271.47,-112.53"/>
<text text-anchor="start" x="1282.47" y="-132.73" font-family="Helvetica,sans-Serif" font-size="32.00" fill="#29235c">name &#160;&#160;&#160;</text>
<text text-anchor="start" x="1504.25" y="-133.73" font-family="Helvetica,sans-Serif" font-style="italic" font-size="32.00" fill="#29235c">string</text>
<polygon fill="#e7e2dd" stroke="transparent" points="1271.47,-52.53 1271.47,-112.53 1593.47,-112.53 1593.47,-52.53 1271.47,-52.53"/>
<polygon fill="none" stroke="#29235c" points="1271.47,-52.53 1271.47,-112.53 1593.47,-112.53 1593.47,-52.53 1271.47,-52.53"/>
<text text-anchor="start" x="1282.47" y="-72.73" font-family="Helvetica,sans-Serif" font-size="32.00" fill="#29235c">description &#160;&#160;&#160;</text>
<text text-anchor="start" x="1504.25" y="-73.73" font-family="Helvetica,sans-Serif" font-style="italic" font-size="32.00" fill="#29235c">string</text>
<polygon fill="none" stroke="#29235c" stroke-width="2" points="1270.47,-51.53 1270.47,-293.53 1594.47,-293.53 1594.47,-51.53 1270.47,-51.53"/>
</a>
</g>
</g>
<!-- Tags -->
<g id="Tags" class="node">
<title>Tags</title>
<g id="a_Tags"><a xlink:title="Tags&#10;Individual labels or identifiers that can be applied to data points for sorting, searching, and categorization purposes.">
<ellipse fill="none" stroke="black" stroke-width="0" cx="820.18" cy="-1004.53" rx="286.26" ry="257.27"/>
<polygon fill="#1d71b8" stroke="transparent" points="620.18,-1124.53 620.18,-1184.53 1021.18,-1184.53 1021.18,-1124.53 620.18,-1124.53"/>
<polygon fill="none" stroke="#29235c" points="620.18,-1124.53 620.18,-1184.53 1021.18,-1184.53 1021.18,-1124.53 620.18,-1124.53"/>
<text text-anchor="start" x="722.87" y="-1145.73" font-family="Helvetica,sans-Serif" font-weight="bold" font-size="32.00" fill="#ffffff"> &#160;&#160;&#160;&#160;&#160;&#160;Tags &#160;&#160;&#160;&#160;&#160;&#160;</text>
<polygon fill="#e7e2dd" stroke="transparent" points="620.18,-1064.53 620.18,-1124.53 1021.18,-1124.53 1021.18,-1064.53 620.18,-1064.53"/>
<polygon fill="none" stroke="#29235c" points="620.18,-1064.53 620.18,-1124.53 1021.18,-1124.53 1021.18,-1064.53 620.18,-1064.53"/>
<text text-anchor="start" x="631.18" y="-1085.73" font-family="Helvetica,sans-Serif" font-weight="bold" font-size="32.00" fill="#29235c">tag_id</text>
<text text-anchor="start" x="718.33" y="-1085.73" font-family="Helvetica,sans-Serif" font-size="32.00" fill="#29235c"> &#160;&#160;&#160;</text>
<text text-anchor="start" x="931.96" y="-1085.73" font-family="Helvetica,sans-Serif" font-style="italic" font-size="32.00" fill="#29235c">string</text>
<polygon fill="#e7e2dd" stroke="transparent" points="620.18,-1004.53 620.18,-1064.53 1021.18,-1064.53 1021.18,-1004.53 620.18,-1004.53"/>
<polygon fill="none" stroke="#29235c" points="620.18,-1004.53 620.18,-1064.53 1021.18,-1064.53 1021.18,-1004.53 620.18,-1004.53"/>
<text text-anchor="start" x="631.18" y="-1024.73" font-family="Helvetica,sans-Serif" font-size="32.00" fill="#29235c">name &#160;&#160;&#160;</text>
<text text-anchor="start" x="931.96" y="-1025.73" font-family="Helvetica,sans-Serif" font-style="italic" font-size="32.00" fill="#29235c">string</text>
<polygon fill="#e7e2dd" stroke="transparent" points="620.18,-944.53 620.18,-1004.53 1021.18,-1004.53 1021.18,-944.53 620.18,-944.53"/>
<polygon fill="none" stroke="#29235c" points="620.18,-944.53 620.18,-1004.53 1021.18,-1004.53 1021.18,-944.53 620.18,-944.53"/>
<text text-anchor="start" x="631.18" y="-964.73" font-family="Helvetica,sans-Serif" font-size="32.00" fill="#29235c">tag_group_id &#160;&#160;&#160;</text>
<text text-anchor="start" x="931.96" y="-965.73" font-family="Helvetica,sans-Serif" font-style="italic" font-size="32.00" fill="#29235c">string</text>
<polygon fill="#e7e2dd" stroke="transparent" points="620.18,-884.53 620.18,-944.53 1021.18,-944.53 1021.18,-884.53 620.18,-884.53"/>
<polygon fill="none" stroke="#29235c" points="620.18,-884.53 620.18,-944.53 1021.18,-944.53 1021.18,-884.53 620.18,-884.53"/>
<text text-anchor="start" x="631.18" y="-904.73" font-family="Helvetica,sans-Serif" font-size="32.00" fill="#29235c">description &#160;&#160;&#160;</text>
<text text-anchor="start" x="931.96" y="-905.73" font-family="Helvetica,sans-Serif" font-style="italic" font-size="32.00" fill="#29235c">string</text>
<polygon fill="#e7e2dd" stroke="transparent" points="620.18,-824.53 620.18,-884.53 1021.18,-884.53 1021.18,-824.53 620.18,-824.53"/>
<polygon fill="none" stroke="#29235c" points="620.18,-824.53 620.18,-884.53 1021.18,-884.53 1021.18,-824.53 620.18,-824.53"/>
<text text-anchor="start" x="630.74" y="-844.73" font-family="Helvetica,sans-Serif" font-size="32.00" fill="#29235c">additional_attributes &#160;&#160;&#160;</text>
<text text-anchor="start" x="951.84" y="-845.73" font-family="Helvetica,sans-Serif" font-style="italic" font-size="32.00" fill="#29235c">json</text>
<polygon fill="none" stroke="#29235c" stroke-width="2" points="618.68,-823.53 618.68,-1185.53 1021.68,-1185.53 1021.68,-823.53 618.68,-823.53"/>
</a>
</g>
</g>
<!-- Tags&#45;&gt;TagGroup -->
<!-- Tags&#45;&gt;TagGroup -->
<g id="edge2" class="edge">
<title>Tags:e&#45;&gt;TagGroup:w</title>
<path fill="none" stroke="#29235c" stroke-width="3" d="M1022.18,-974.53C1379.17,-974.53 918.98,-217.17 1260.4,-202.74"/>
<polygon fill="#29235c" stroke="#29235c" stroke-width="3" points="1260.55,-206.24 1270.47,-202.53 1260.4,-199.24 1260.55,-206.24"/>
<text text-anchor="middle" x="1261.58" y="-173.73" font-family="Helvetica,sans-Serif" font-size="32.00" fill="#29235c">1</text>
<text text-anchor="middle" x="1028.4" y="-984.13" font-family="Helvetica,sans-Serif" font-size="32.00" fill="#29235c">*</text>
</g>
<!-- TagMapping -->
<g id="TagMapping" class="node">
<title>TagMapping</title>
<g id="a_TagMapping"><a xlink:title="TagMapping&#10;A many&#45;to&#45;many relationship table that maps tags to addresses, allowing an address to have multiple tags and a tag to be applied to multiple addresses.">
<ellipse fill="none" stroke="black" stroke-width="0" cx="231.93" cy="-1963.53" rx="231.86" ry="172.57"/>
<polygon fill="#1d71b8" stroke="transparent" points="69.93,-2023.53 69.93,-2083.53 393.93,-2083.53 393.93,-2023.53 69.93,-2023.53"/>
<polygon fill="none" stroke="#29235c" points="69.93,-2023.53 69.93,-2083.53 393.93,-2083.53 393.93,-2023.53 69.93,-2023.53"/>
<text text-anchor="start" x="80.77" y="-2044.73" font-family="Helvetica,sans-Serif" font-weight="bold" font-size="32.00" fill="#ffffff"> &#160;&#160;&#160;&#160;&#160;&#160;TagMapping &#160;&#160;&#160;&#160;&#160;&#160;</text>
<polygon fill="#e7e2dd" stroke="transparent" points="69.93,-1963.53 69.93,-2023.53 393.93,-2023.53 393.93,-1963.53 69.93,-1963.53"/>
<polygon fill="none" stroke="#29235c" points="69.93,-1963.53 69.93,-2023.53 393.93,-2023.53 393.93,-1963.53 69.93,-1963.53"/>
<text text-anchor="start" x="80.93" y="-1984.73" font-family="Helvetica,sans-Serif" font-weight="bold" font-size="32.00" fill="#29235c">address</text>
<text text-anchor="start" x="194.74" y="-1984.73" font-family="Helvetica,sans-Serif" font-size="32.00" fill="#29235c"> &#160;&#160;&#160;</text>
<text text-anchor="start" x="304.71" y="-1984.73" font-family="Helvetica,sans-Serif" font-style="italic" font-size="32.00" fill="#29235c">string</text>
<polygon fill="#e7e2dd" stroke="transparent" points="69.93,-1903.53 69.93,-1963.53 393.93,-1963.53 393.93,-1903.53 69.93,-1903.53"/>
<polygon fill="none" stroke="#29235c" points="69.93,-1903.53 69.93,-1963.53 393.93,-1963.53 393.93,-1903.53 69.93,-1903.53"/>
<text text-anchor="start" x="80.93" y="-1924.73" font-family="Helvetica,sans-Serif" font-weight="bold" font-size="32.00" fill="#29235c">tag_id</text>
<text text-anchor="start" x="168.08" y="-1924.73" font-family="Helvetica,sans-Serif" font-size="32.00" fill="#29235c"> &#160;&#160;&#160;</text>
<text text-anchor="start" x="304.71" y="-1924.73" font-family="Helvetica,sans-Serif" font-style="italic" font-size="32.00" fill="#29235c">string</text>
<polygon fill="#e7e2dd" stroke="transparent" points="69.93,-1843.53 69.93,-1903.53 393.93,-1903.53 393.93,-1843.53 69.93,-1843.53"/>
<polygon fill="none" stroke="#29235c" points="69.93,-1843.53 69.93,-1903.53 393.93,-1903.53 393.93,-1843.53 69.93,-1843.53"/>
<text text-anchor="start" x="80.93" y="-1863.73" font-family="Helvetica,sans-Serif" font-size="32.00" fill="#29235c">value &#160;&#160;&#160;</text>
<text text-anchor="start" x="304.71" y="-1864.73" font-family="Helvetica,sans-Serif" font-style="italic" font-size="32.00" fill="#29235c">string</text>
<polygon fill="none" stroke="#29235c" stroke-width="2" points="68.93,-1842.53 68.93,-2084.53 394.93,-2084.53 394.93,-1842.53 68.93,-1842.53"/>
</a>
</g>
</g>
<!-- TagMapping&#45;&gt;Addresses -->
<!-- TagMapping&#45;&gt;Addresses -->
<g id="edge6" class="edge">
<title>TagMapping:e&#45;&gt;Addresses:w</title>
<path fill="none" stroke="#29235c" stroke-width="3" d="M394.93,-1993.53C775.26,-1993.53 221.56,-2818.43 585.01,-2833.33"/>
<polygon fill="#29235c" stroke="#29235c" stroke-width="3" points="585.11,-2836.83 595.18,-2833.53 585.25,-2829.83 585.11,-2836.83"/>
<text text-anchor="middle" x="586.29" y="-2843.13" font-family="Helvetica,sans-Serif" font-size="32.00" fill="#29235c">1</text>
<text text-anchor="middle" x="388.71" y="-2003.13" font-family="Helvetica,sans-Serif" font-size="32.00" fill="#29235c">*</text>
</g>
<!-- TagMapping&#45;&gt;Tags -->
<!-- TagMapping&#45;&gt;Tags -->
<g id="edge4" class="edge">
<title>TagMapping:e&#45;&gt;Tags:w</title>
<path fill="none" stroke="#29235c" stroke-width="3" d="M394.93,-1933.53C777.42,-1933.53 243.02,-1109.62 608.95,-1094.74"/>
<polygon fill="#29235c" stroke="#29235c" stroke-width="3" points="609.25,-1098.23 619.18,-1094.53 609.11,-1091.23 609.25,-1098.23"/>
<text text-anchor="middle" x="610.29" y="-1104.13" font-family="Helvetica,sans-Serif" font-size="32.00" fill="#29235c">1</text>
<text text-anchor="middle" x="388.71" y="-1943.13" font-family="Helvetica,sans-Serif" font-size="32.00" fill="#29235c">*</text>
</g>
</g>
</svg>
