<?xml version="1.0" encoding="UTF-8" standalone="no"?>
<!DOCTYPE svg PUBLIC "-//W3C//DTD SVG 1.1//EN"
 "http://www.w3.org/Graphics/SVG/1.1/DTD/svg11.dtd">
<!-- Generated by graphviz version 2.47.0 (20210316.0004)
 -->
<!-- Title: dbml Pages: 1 -->
<svg width="2181pt" height="3795pt"
 viewBox="0.00 0.00 2180.75 3794.77" xmlns="http://www.w3.org/2000/svg" xmlns:xlink="http://www.w3.org/1999/xlink">
<g id="graph0" class="graph" transform="scale(1 1) rotate(0) translate(4 3790.77)">
<title>dbml</title>
<!-- category_id -->
<g id="category_id" class="node">
<title>category_id</title>
<ellipse fill="none" stroke="black" stroke-width="0" cx="1442.37" cy="-1723.53" rx="255.95" ry="1360.45"/>
<polygon fill="#29235c" stroke="transparent" points="1263.37,-2623.53 1263.37,-2683.53 1621.37,-2683.53 1621.37,-2623.53 1263.37,-2623.53"/>
<polygon fill="none" stroke="#29235c" points="1263.37,-2623.53 1263.37,-2683.53 1621.37,-2683.53 1621.37,-2623.53 1263.37,-2623.53"/>
<text text-anchor="start" x="1297.43" y="-2644.73" font-family="Helvetica,sans-Serif" font-weight="bold" font-size="32.00" fill="#ffffff"> &#160;&#160;&#160;&#160;&#160;&#160;category_id &#160;&#160;&#160;&#160;&#160;&#160;</text>
<polygon fill="#e7e2dd" stroke="transparent" points="1263.37,-2563.53 1263.37,-2623.53 1621.37,-2623.53 1621.37,-2563.53 1263.37,-2563.53"/>
<polygon fill="none" stroke="#29235c" points="1263.37,-2563.53 1263.37,-2623.53 1621.37,-2623.53 1621.37,-2563.53 1263.37,-2563.53"/>
<text text-anchor="start" x="1376.58" y="-2584.73" font-family="Helvetica,sans-Serif" font-style="italic" font-size="32.00" fill="#1d71b8"> &#160;&#160;&#160;mev &#160;&#160;&#160;</text>
<polygon fill="#e7e2dd" stroke="transparent" points="1263.37,-2503.53 1263.37,-2563.53 1621.37,-2563.53 1621.37,-2503.53 1263.37,-2503.53"/>
<polygon fill="none" stroke="#29235c" points="1263.37,-2503.53 1263.37,-2563.53 1621.37,-2563.53 1621.37,-2503.53 1263.37,-2503.53"/>
<text text-anchor="start" x="1357.9" y="-2524.73" font-family="Helvetica,sans-Serif" font-style="italic" font-size="32.00" fill="#1d71b8"> &#160;&#160;&#160;trading &#160;&#160;&#160;</text>
<polygon fill="#e7e2dd" stroke="transparent" points="1263.37,-2443.53 1263.37,-2503.53 1621.37,-2503.53 1621.37,-2443.53 1263.37,-2443.53"/>
<polygon fill="none" stroke="#29235c" points="1263.37,-2443.53 1263.37,-2503.53 1621.37,-2503.53 1621.37,-2443.53 1263.37,-2443.53"/>
<text text-anchor="start" x="1381.91" y="-2464.73" font-family="Helvetica,sans-Serif" font-style="italic" font-size="32.00" fill="#1d71b8"> &#160;&#160;&#160;cex &#160;&#160;&#160;</text>
<polygon fill="#e7e2dd" stroke="transparent" points="1263.37,-2383.53 1263.37,-2443.53 1621.37,-2443.53 1621.37,-2383.53 1263.37,-2383.53"/>
<polygon fill="none" stroke="#29235c" points="1263.37,-2383.53 1263.37,-2443.53 1621.37,-2443.53 1621.37,-2383.53 1263.37,-2383.53"/>
<text text-anchor="start" x="1355.23" y="-2404.73" font-family="Helvetica,sans-Serif" font-style="italic" font-size="32.00" fill="#1d71b8"> &#160;&#160;&#160;lending &#160;&#160;&#160;</text>
<polygon fill="#e7e2dd" stroke="transparent" points="1263.37,-2323.53 1263.37,-2383.53 1621.37,-2383.53 1621.37,-2323.53 1263.37,-2323.53"/>
<polygon fill="none" stroke="#29235c" points="1263.37,-2323.53 1263.37,-2383.53 1621.37,-2383.53 1621.37,-2323.53 1263.37,-2323.53"/>
<text text-anchor="start" x="1381.01" y="-2344.73" font-family="Helvetica,sans-Serif" font-style="italic" font-size="32.00" fill="#1d71b8"> &#160;&#160;&#160;dex &#160;&#160;&#160;</text>
<polygon fill="#e7e2dd" stroke="transparent" points="1263.37,-2263.53 1263.37,-2323.53 1621.37,-2323.53 1621.37,-2263.53 1263.37,-2263.53"/>
<polygon fill="none" stroke="#29235c" points="1263.37,-2263.53 1263.37,-2323.53 1621.37,-2323.53 1621.37,-2263.53 1263.37,-2263.53"/>
<text text-anchor="start" x="1338.35" y="-2284.73" font-family="Helvetica,sans-Serif" font-style="italic" font-size="32.00" fill="#1d71b8"> &#160;&#160;&#160;derivative &#160;&#160;&#160;</text>
<polygon fill="#e7e2dd" stroke="transparent" points="1263.37,-2203.53 1263.37,-2263.53 1621.37,-2263.53 1621.37,-2203.53 1263.37,-2203.53"/>
<polygon fill="none" stroke="#29235c" points="1263.37,-2203.53 1263.37,-2263.53 1621.37,-2263.53 1621.37,-2203.53 1263.37,-2203.53"/>
<text text-anchor="start" x="1356.12" y="-2224.73" font-family="Helvetica,sans-Serif" font-style="italic" font-size="32.00" fill="#1d71b8"> &#160;&#160;&#160;staking &#160;&#160;&#160;</text>
<polygon fill="#e7e2dd" stroke="transparent" points="1263.37,-2143.53 1263.37,-2203.53 1621.37,-2203.53 1621.37,-2143.53 1263.37,-2143.53"/>
<polygon fill="none" stroke="#29235c" points="1263.37,-2143.53 1263.37,-2203.53 1621.37,-2203.53 1621.37,-2143.53 1263.37,-2143.53"/>
<text text-anchor="start" x="1372.12" y="-2164.73" font-family="Helvetica,sans-Serif" font-style="italic" font-size="32.00" fill="#1d71b8"> &#160;&#160;&#160;nft_fi &#160;&#160;&#160;</text>
<polygon fill="#e7e2dd" stroke="transparent" points="1263.37,-2083.53 1263.37,-2143.53 1621.37,-2143.53 1621.37,-2083.53 1263.37,-2083.53"/>
<polygon fill="none" stroke="#29235c" points="1263.37,-2083.53 1263.37,-2143.53 1621.37,-2143.53 1621.37,-2083.53 1263.37,-2083.53"/>
<text text-anchor="start" x="1293" y="-2104.73" font-family="Helvetica,sans-Serif" font-style="italic" font-size="32.00" fill="#1d71b8"> &#160;&#160;&#160;nft_marketplace &#160;&#160;&#160;</text>
<polygon fill="#e7e2dd" stroke="transparent" points="1263.37,-2023.53 1263.37,-2083.53 1621.37,-2083.53 1621.37,-2023.53 1263.37,-2023.53"/>
<polygon fill="none" stroke="#29235c" points="1263.37,-2023.53 1263.37,-2083.53 1621.37,-2083.53 1621.37,-2023.53 1263.37,-2023.53"/>
<text text-anchor="start" x="1357.9" y="-2044.73" font-family="Helvetica,sans-Serif" font-style="italic" font-size="32.00" fill="#1d71b8"> &#160;&#160;&#160;erc721 &#160;&#160;&#160;</text>
<polygon fill="#e7e2dd" stroke="transparent" points="1263.37,-1963.53 1263.37,-2023.53 1621.37,-2023.53 1621.37,-1963.53 1263.37,-1963.53"/>
<polygon fill="none" stroke="#29235c" points="1263.37,-1963.53 1263.37,-2023.53 1621.37,-2023.53 1621.37,-1963.53 1263.37,-1963.53"/>
<text text-anchor="start" x="1349" y="-1984.73" font-family="Helvetica,sans-Serif" font-style="italic" font-size="32.00" fill="#1d71b8"> &#160;&#160;&#160;erc1155 &#160;&#160;&#160;</text>
<polygon fill="#e7e2dd" stroke="transparent" points="1263.37,-1903.53 1263.37,-1963.53 1621.37,-1963.53 1621.37,-1903.53 1263.37,-1903.53"/>
<polygon fill="none" stroke="#29235c" points="1263.37,-1903.53 1263.37,-1963.53 1621.37,-1963.53 1621.37,-1903.53 1263.37,-1903.53"/>
<text text-anchor="start" x="1329.47" y="-1924.73" font-family="Helvetica,sans-Serif" font-style="italic" font-size="32.00" fill="#1d71b8"> &#160;&#160;&#160;community &#160;&#160;&#160;</text>
<polygon fill="#e7e2dd" stroke="transparent" points="1263.37,-1843.53 1263.37,-1903.53 1621.37,-1903.53 1621.37,-1843.53 1263.37,-1843.53"/>
<polygon fill="none" stroke="#29235c" points="1263.37,-1843.53 1263.37,-1903.53 1621.37,-1903.53 1621.37,-1843.53 1263.37,-1843.53"/>
<text text-anchor="start" x="1341.9" y="-1864.73" font-family="Helvetica,sans-Serif" font-style="italic" font-size="32.00" fill="#1d71b8"> &#160;&#160;&#160;gambling &#160;&#160;&#160;</text>
<polygon fill="#e7e2dd" stroke="transparent" points="1263.37,-1783.53 1263.37,-1843.53 1621.37,-1843.53 1621.37,-1783.53 1263.37,-1783.53"/>
<polygon fill="none" stroke="#29235c" points="1263.37,-1783.53 1263.37,-1843.53 1621.37,-1843.53 1621.37,-1783.53 1263.37,-1783.53"/>
<text text-anchor="start" x="1354.35" y="-1804.73" font-family="Helvetica,sans-Serif" font-style="italic" font-size="32.00" fill="#1d71b8"> &#160;&#160;&#160;gaming &#160;&#160;&#160;</text>
<polygon fill="#e7e2dd" stroke="transparent" points="1263.37,-1723.53 1263.37,-1783.53 1621.37,-1783.53 1621.37,-1723.53 1263.37,-1723.53"/>
<polygon fill="none" stroke="#29235c" points="1263.37,-1723.53 1263.37,-1783.53 1621.37,-1783.53 1621.37,-1723.53 1263.37,-1723.53"/>
<text text-anchor="start" x="1301" y="-1744.73" font-family="Helvetica,sans-Serif" font-style="italic" font-size="32.00" fill="#1d71b8"> &#160;&#160;&#160;native_transfer &#160;&#160;&#160;</text>
<polygon fill="#e7e2dd" stroke="transparent" points="1263.37,-1663.53 1263.37,-1723.53 1621.37,-1723.53 1621.37,-1663.53 1263.37,-1663.53"/>
<polygon fill="none" stroke="#29235c" points="1263.37,-1663.53 1263.37,-1723.53 1621.37,-1723.53 1621.37,-1663.53 1263.37,-1663.53"/>
<text text-anchor="start" x="1334.78" y="-1684.73" font-family="Helvetica,sans-Serif" font-style="italic" font-size="32.00" fill="#1d71b8"> &#160;&#160;&#160;stablecoin &#160;&#160;&#160;</text>
<polygon fill="#e7e2dd" stroke="transparent" points="1263.37,-1603.53 1263.37,-1663.53 1621.37,-1663.53 1621.37,-1603.53 1263.37,-1603.53"/>
<polygon fill="none" stroke="#29235c" points="1263.37,-1603.53 1263.37,-1663.53 1621.37,-1663.53 1621.37,-1603.53 1263.37,-1603.53"/>
<text text-anchor="start" x="1366.79" y="-1624.73" font-family="Helvetica,sans-Serif" font-style="italic" font-size="32.00" fill="#1d71b8"> &#160;&#160;&#160;erc20 &#160;&#160;&#160;</text>
<polygon fill="#e7e2dd" stroke="transparent" points="1263.37,-1543.53 1263.37,-1603.53 1621.37,-1603.53 1621.37,-1543.53 1263.37,-1543.53"/>
<polygon fill="none" stroke="#29235c" points="1263.37,-1543.53 1263.37,-1603.53 1621.37,-1603.53 1621.37,-1543.53 1263.37,-1543.53"/>
<text text-anchor="start" x="1325.03" y="-1564.73" font-family="Helvetica,sans-Serif" font-style="italic" font-size="32.00" fill="#1d71b8"> &#160;&#160;&#160;middleware &#160;&#160;&#160;</text>
<polygon fill="#e7e2dd" stroke="transparent" points="1263.37,-1483.53 1263.37,-1543.53 1621.37,-1543.53 1621.37,-1483.53 1263.37,-1483.53"/>
<polygon fill="none" stroke="#29235c" points="1263.37,-1483.53 1263.37,-1543.53 1621.37,-1543.53 1621.37,-1483.53 1263.37,-1483.53"/>
<text text-anchor="start" x="1349" y="-1504.73" font-family="Helvetica,sans-Serif" font-style="italic" font-size="32.00" fill="#1d71b8"> &#160;&#160;&#160;erc4337 &#160;&#160;&#160;</text>
<polygon fill="#e7e2dd" stroke="transparent" points="1263.37,-1423.53 1263.37,-1483.53 1621.37,-1483.53 1621.37,-1423.53 1263.37,-1423.53"/>
<polygon fill="none" stroke="#29235c" points="1263.37,-1423.53 1263.37,-1483.53 1621.37,-1483.53 1621.37,-1423.53 1263.37,-1423.53"/>
<text text-anchor="start" x="1326.8" y="-1444.73" font-family="Helvetica,sans-Serif" font-style="italic" font-size="32.00" fill="#1d71b8"> &#160;&#160;&#160;inscriptions &#160;&#160;&#160;</text>
<polygon fill="#e7e2dd" stroke="transparent" points="1263.37,-1363.53 1263.37,-1423.53 1621.37,-1423.53 1621.37,-1363.53 1263.37,-1363.53"/>
<polygon fill="none" stroke="#29235c" points="1263.37,-1363.53 1263.37,-1423.53 1621.37,-1423.53 1621.37,-1363.53 1263.37,-1363.53"/>
<text text-anchor="start" x="1363.24" y="-1384.73" font-family="Helvetica,sans-Serif" font-style="italic" font-size="32.00" fill="#1d71b8"> &#160;&#160;&#160;oracle &#160;&#160;&#160;</text>
<polygon fill="#e7e2dd" stroke="transparent" points="1263.37,-1303.53 1263.37,-1363.53 1621.37,-1363.53 1621.37,-1303.53 1263.37,-1303.53"/>
<polygon fill="none" stroke="#29235c" points="1263.37,-1303.53 1263.37,-1363.53 1621.37,-1363.53 1621.37,-1303.53 1263.37,-1303.53"/>
<text text-anchor="start" x="1367.67" y="-1324.73" font-family="Helvetica,sans-Serif" font-style="italic" font-size="32.00" fill="#1d71b8"> &#160;&#160;&#160;depin &#160;&#160;&#160;</text>
<polygon fill="#e7e2dd" stroke="transparent" points="1263.37,-1243.53 1263.37,-1303.53 1621.37,-1303.53 1621.37,-1243.53 1263.37,-1243.53"/>
<polygon fill="none" stroke="#29235c" points="1263.37,-1243.53 1263.37,-1303.53 1621.37,-1303.53 1621.37,-1243.53 1263.37,-1243.53"/>
<text text-anchor="start" x="1293.88" y="-1264.73" font-family="Helvetica,sans-Serif" font-style="italic" font-size="32.00" fill="#1d71b8"> &#160;&#160;&#160;developer_tools &#160;&#160;&#160;</text>
<polygon fill="#e7e2dd" stroke="transparent" points="1263.37,-1183.53 1263.37,-1243.53 1621.37,-1243.53 1621.37,-1183.53 1263.37,-1183.53"/>
<polygon fill="none" stroke="#29235c" points="1263.37,-1183.53 1263.37,-1243.53 1621.37,-1243.53 1621.37,-1183.53 1263.37,-1183.53"/>
<text text-anchor="start" x="1356.12" y="-1204.73" font-family="Helvetica,sans-Serif" font-style="italic" font-size="32.00" fill="#1d71b8"> &#160;&#160;&#160;identity &#160;&#160;&#160;</text>
<polygon fill="#e7e2dd" stroke="transparent" points="1263.37,-1123.53 1263.37,-1183.53 1621.37,-1183.53 1621.37,-1123.53 1263.37,-1123.53"/>
<polygon fill="none" stroke="#29235c" points="1263.37,-1123.53 1263.37,-1183.53 1621.37,-1183.53 1621.37,-1123.53 1263.37,-1123.53"/>
<text text-anchor="start" x="1356.14" y="-1144.73" font-family="Helvetica,sans-Serif" font-style="italic" font-size="32.00" fill="#1d71b8"> &#160;&#160;&#160;privacy &#160;&#160;&#160;</text>
<polygon fill="#e7e2dd" stroke="transparent" points="1263.37,-1063.53 1263.37,-1123.53 1621.37,-1123.53 1621.37,-1063.53 1263.37,-1063.53"/>
<polygon fill="none" stroke="#29235c" points="1263.37,-1063.53 1263.37,-1123.53 1621.37,-1123.53 1621.37,-1063.53 1263.37,-1063.53"/>
<text text-anchor="start" x="1337.45" y="-1084.73" font-family="Helvetica,sans-Serif" font-style="italic" font-size="32.00" fill="#1d71b8"> &#160;&#160;&#160;insurance &#160;&#160;&#160;</text>
<polygon fill="#e7e2dd" stroke="transparent" points="1263.37,-1003.53 1263.37,-1063.53 1621.37,-1063.53 1621.37,-1003.53 1263.37,-1003.53"/>
<polygon fill="none" stroke="#29235c" points="1263.37,-1003.53 1263.37,-1063.53 1621.37,-1063.53 1621.37,-1003.53 1263.37,-1003.53"/>
<text text-anchor="start" x="1357.02" y="-1024.73" font-family="Helvetica,sans-Serif" font-style="italic" font-size="32.00" fill="#1d71b8"> &#160;&#160;&#160;airdrop &#160;&#160;&#160;</text>
<polygon fill="#e7e2dd" stroke="transparent" points="1263.37,-943.53 1263.37,-1003.53 1621.37,-1003.53 1621.37,-943.53 1263.37,-943.53"/>
<polygon fill="none" stroke="#29235c" points="1263.37,-943.53 1263.37,-1003.53 1621.37,-1003.53 1621.37,-943.53 1263.37,-943.53"/>
<text text-anchor="start" x="1337.45" y="-964.73" font-family="Helvetica,sans-Serif" font-style="italic" font-size="32.00" fill="#1d71b8"> &#160;&#160;&#160;payments &#160;&#160;&#160;</text>
<polygon fill="#e7e2dd" stroke="transparent" points="1263.37,-883.53 1263.37,-943.53 1621.37,-943.53 1621.37,-883.53 1263.37,-883.53"/>
<polygon fill="none" stroke="#29235c" points="1263.37,-883.53 1263.37,-943.53 1621.37,-943.53 1621.37,-883.53 1263.37,-883.53"/>
<text text-anchor="start" x="1370.35" y="-904.73" font-family="Helvetica,sans-Serif" font-style="italic" font-size="32.00" fill="#1d71b8"> &#160;&#160;&#160;other &#160;&#160;&#160;</text>
<polygon fill="#e7e2dd" stroke="transparent" points="1263.37,-823.53 1263.37,-883.53 1621.37,-883.53 1621.37,-823.53 1263.37,-823.53"/>
<polygon fill="none" stroke="#29235c" points="1263.37,-823.53 1263.37,-883.53 1621.37,-883.53 1621.37,-823.53 1263.37,-823.53"/>
<text text-anchor="start" x="1274.34" y="-844.73" font-family="Helvetica,sans-Serif" font-style="italic" font-size="32.00" fill="#1d71b8"> &#160;&#160;&#160;cc_communication &#160;&#160;&#160;</text>
<polygon fill="#e7e2dd" stroke="transparent" points="1263.37,-763.53 1263.37,-823.53 1621.37,-823.53 1621.37,-763.53 1263.37,-763.53"/>
<polygon fill="none" stroke="#29235c" points="1263.37,-763.53 1263.37,-823.53 1621.37,-823.53 1621.37,-763.53 1263.37,-763.53"/>
<text text-anchor="start" x="1362.35" y="-784.73" font-family="Helvetica,sans-Serif" font-style="italic" font-size="32.00" fill="#1d71b8"> &#160;&#160;&#160;bridge &#160;&#160;&#160;</text>
<polygon fill="none" stroke="#29235c" stroke-width="2" points="1262.37,-762.53 1262.37,-2684.53 1622.37,-2684.53 1622.37,-762.53 1262.37,-762.53"/>
</g>
<!-- Addresses -->
<g id="Addresses" class="node">
<title>Addresses</title>
<g id="a_Addresses"><a xlink:title="Addresses&#10;Represents wallet and smart contract addresses, linked to chains, projects, and categorization.">
<ellipse fill="none" stroke="black" stroke-width="0" cx="820.18" cy="-2563.53" rx="320.14" ry="511.89"/>
<polygon fill="#1d71b8" stroke="transparent" points="596.18,-2863.53 596.18,-2923.53 1045.18,-2923.53 1045.18,-2863.53 596.18,-2863.53"/>
<polygon fill="none" stroke="#29235c" points="596.18,-2863.53 596.18,-2923.53 1045.18,-2923.53 1045.18,-2863.53 596.18,-2863.53"/>
<text text-anchor="start" x="682.86" y="-2884.73" font-family="Helvetica,sans-Serif" font-weight="bold" font-size="32.00" fill="#ffffff"> &#160;&#160;&#160;&#160;&#160;&#160;Addresses &#160;&#160;&#160;&#160;&#160;&#160;</text>
<polygon fill="#e7e2dd" stroke="transparent" points="596.18,-2803.53 596.18,-2863.53 1045.18,-2863.53 1045.18,-2803.53 596.18,-2803.53"/>
<polygon fill="none" stroke="#29235c" points="596.18,-2803.53 596.18,-2863.53 1045.18,-2863.53 1045.18,-2803.53 596.18,-2803.53"/>
<text text-anchor="start" x="607.18" y="-2824.73" font-family="Helvetica,sans-Serif" font-weight="bold" font-size="32.00" fill="#29235c">address</text>
<text text-anchor="start" x="720.99" y="-2824.73" font-family="Helvetica,sans-Serif" font-size="32.00" fill="#29235c"> &#160;&#160;&#160;</text>
<text text-anchor="start" x="955.96" y="-2824.73" font-family="Helvetica,sans-Serif" font-style="italic" font-size="32.00" fill="#29235c">string</text>
<polygon fill="#e7e2dd" stroke="transparent" points="596.18,-2743.53 596.18,-2803.53 1045.18,-2803.53 1045.18,-2743.53 596.18,-2743.53"/>
<polygon fill="none" stroke="#29235c" points="596.18,-2743.53 596.18,-2803.53 1045.18,-2803.53 1045.18,-2743.53 596.18,-2743.53"/>
<text text-anchor="start" x="607.18" y="-2763.73" font-family="Helvetica,sans-Serif" font-size="32.00" fill="#29235c">chain_id &#160;&#160;&#160;</text>
<text text-anchor="start" x="955.96" y="-2764.73" font-family="Helvetica,sans-Serif" font-style="italic" font-size="32.00" fill="#29235c">string</text>
<polygon fill="#e7e2dd" stroke="transparent" points="596.18,-2683.53 596.18,-2743.53 1045.18,-2743.53 1045.18,-2683.53 596.18,-2683.53"/>
<polygon fill="none" stroke="#29235c" points="596.18,-2683.53 596.18,-2743.53 1045.18,-2743.53 1045.18,-2683.53 596.18,-2683.53"/>
<text text-anchor="start" x="607.18" y="-2703.73" font-family="Helvetica,sans-Serif" font-size="32.00" fill="#29235c">project_id &#160;&#160;&#160;</text>
<text text-anchor="start" x="906.14" y="-2704.73" font-family="Helvetica,sans-Serif" font-style="italic" font-size="32.00" fill="#29235c">unknown</text>
<polygon fill="#e7e2dd" stroke="transparent" points="596.18,-2623.53 596.18,-2683.53 1045.18,-2683.53 1045.18,-2623.53 596.18,-2623.53"/>
<polygon fill="none" stroke="#29235c" points="596.18,-2623.53 596.18,-2683.53 1045.18,-2683.53 1045.18,-2623.53 596.18,-2623.53"/>
<text text-anchor="start" x="607.18" y="-2643.73" font-family="Helvetica,sans-Serif" font-size="32.00" fill="#29235c">category_id &#160;&#160;&#160;</text>
<text text-anchor="start" x="868.8" y="-2644.73" font-family="Helvetica,sans-Serif" font-style="italic" font-size="32.00" fill="#29235c">category_id</text>
<polygon fill="#e7e2dd" stroke="transparent" points="596.18,-2563.53 596.18,-2623.53 1045.18,-2623.53 1045.18,-2563.53 596.18,-2563.53"/>
<polygon fill="none" stroke="#29235c" points="596.18,-2563.53 596.18,-2623.53 1045.18,-2623.53 1045.18,-2563.53 596.18,-2563.53"/>
<text text-anchor="start" x="607.18" y="-2583.73" font-family="Helvetica,sans-Serif" font-size="32.00" fill="#29235c">is_eoa &#160;&#160;&#160;</text>
<text text-anchor="start" x="973.71" y="-2584.73" font-family="Helvetica,sans-Serif" font-style="italic" font-size="32.00" fill="#29235c">bool</text>
<polygon fill="#e7e2dd" stroke="transparent" points="596.18,-2503.53 596.18,-2563.53 1045.18,-2563.53 1045.18,-2503.53 596.18,-2503.53"/>
<polygon fill="none" stroke="#29235c" points="596.18,-2503.53 596.18,-2563.53 1045.18,-2563.53 1045.18,-2503.53 596.18,-2503.53"/>
<text text-anchor="start" x="607.18" y="-2523.73" font-family="Helvetica,sans-Serif" font-size="32.00" fill="#29235c">is_proxy &#160;&#160;&#160;</text>
<text text-anchor="start" x="973.71" y="-2524.73" font-family="Helvetica,sans-Serif" font-style="italic" font-size="32.00" fill="#29235c">bool</text>
<polygon fill="#e7e2dd" stroke="transparent" points="596.18,-2443.53 596.18,-2503.53 1045.18,-2503.53 1045.18,-2443.53 596.18,-2443.53"/>
<polygon fill="none" stroke="#29235c" points="596.18,-2443.53 596.18,-2503.53 1045.18,-2503.53 1045.18,-2443.53 596.18,-2443.53"/>
<text text-anchor="start" x="607.18" y="-2463.73" font-family="Helvetica,sans-Serif" font-size="32.00" fill="#29235c">name &#160;&#160;&#160;</text>
<text text-anchor="start" x="955.96" y="-2464.73" font-family="Helvetica,sans-Serif" font-style="italic" font-size="32.00" fill="#29235c">string</text>
<polygon fill="#e7e2dd" stroke="transparent" points="596.18,-2383.53 596.18,-2443.53 1045.18,-2443.53 1045.18,-2383.53 596.18,-2383.53"/>
<polygon fill="none" stroke="#29235c" points="596.18,-2383.53 596.18,-2443.53 1045.18,-2443.53 1045.18,-2383.53 596.18,-2383.53"/>
<text text-anchor="start" x="607.18" y="-2403.73" font-family="Helvetica,sans-Serif" font-size="32.00" fill="#29235c">bytecode &#160;&#160;&#160;</text>
<text text-anchor="start" x="955.92" y="-2404.73" font-family="Helvetica,sans-Serif" font-style="italic" font-size="32.00" fill="#29235c">bytea</text>
<polygon fill="#e7e2dd" stroke="transparent" points="596.18,-2323.53 596.18,-2383.53 1045.18,-2383.53 1045.18,-2323.53 596.18,-2323.53"/>
<polygon fill="none" stroke="#29235c" points="596.18,-2323.53 596.18,-2383.53 1045.18,-2383.53 1045.18,-2323.53 596.18,-2323.53"/>
<text text-anchor="start" x="607.18" y="-2343.73" font-family="Helvetica,sans-Serif" font-size="32.00" fill="#29235c">abi &#160;&#160;&#160;</text>
<text text-anchor="start" x="955.96" y="-2344.73" font-family="Helvetica,sans-Serif" font-style="italic" font-size="32.00" fill="#29235c">string</text>
<polygon fill="#e7e2dd" stroke="transparent" points="596.18,-2263.53 596.18,-2323.53 1045.18,-2323.53 1045.18,-2263.53 596.18,-2263.53"/>
<polygon fill="none" stroke="#29235c" points="596.18,-2263.53 596.18,-2323.53 1045.18,-2323.53 1045.18,-2263.53 596.18,-2263.53"/>
<text text-anchor="start" x="606.68" y="-2283.73" font-family="Helvetica,sans-Serif" font-size="32.00" fill="#29235c">deployment_date &#160;&#160;&#160;</text>
<text text-anchor="start" x="886.9" y="-2284.73" font-family="Helvetica,sans-Serif" font-style="italic" font-size="32.00" fill="#29235c">timestamp</text>
<polygon fill="#e7e2dd" stroke="transparent" points="596.18,-2203.53 596.18,-2263.53 1045.18,-2263.53 1045.18,-2203.53 596.18,-2203.53"/>
<polygon fill="none" stroke="#29235c" points="596.18,-2203.53 596.18,-2263.53 1045.18,-2263.53 1045.18,-2203.53 596.18,-2203.53"/>
<text text-anchor="start" x="607.18" y="-2223.73" font-family="Helvetica,sans-Serif" font-size="32.00" fill="#29235c">deployer_address &#160;&#160;&#160;</text>
<text text-anchor="start" x="906.14" y="-2224.73" font-family="Helvetica,sans-Serif" font-style="italic" font-size="32.00" fill="#29235c">unknown</text>
<polygon fill="none" stroke="#29235c" stroke-width="2" points="594.68,-2202.53 594.68,-2924.53 1045.68,-2924.53 1045.68,-2202.53 594.68,-2202.53"/>
</a>
</g>
</g>
<!-- Addresses&#45;&gt;category_id -->
<g id="edge11" class="edge">
<title>Addresses:e&#45;&gt;category_id:w</title>
<path fill="none" stroke="#29235c" stroke-width="3" d="M1046.18,-2653.53C1142.27,-2653.53 1166.29,-2653.53 1262.37,-2653.53"/>
</g>
<!-- Projects -->
<g id="Projects" class="node">
<title>Projects</title>
<g id="a_Projects"><a xlink:title="Projects&#10;Information about specific projects (i.e. Uniswap V2), including project name, website link, and documentation.">
<ellipse fill="none" stroke="black" stroke-width="0" cx="1442.37" cy="-3444.53" rx="237.68" ry="342.48"/>
<polygon fill="#1d71b8" stroke="transparent" points="1276.37,-3624.53 1276.37,-3684.53 1608.37,-3684.53 1608.37,-3624.53 1276.37,-3624.53"/>
<polygon fill="none" stroke="#29235c" points="1276.37,-3624.53 1276.37,-3684.53 1608.37,-3684.53 1608.37,-3624.53 1276.37,-3624.53"/>
<text text-anchor="start" x="1322.34" y="-3645.73" font-family="Helvetica,sans-Serif" font-weight="bold" font-size="32.00" fill="#ffffff"> &#160;&#160;&#160;&#160;&#160;&#160;Projects &#160;&#160;&#160;&#160;&#160;&#160;</text>
<polygon fill="#e7e2dd" stroke="transparent" points="1276.37,-3564.53 1276.37,-3624.53 1608.37,-3624.53 1608.37,-3564.53 1276.37,-3564.53"/>
<polygon fill="none" stroke="#29235c" points="1276.37,-3564.53 1276.37,-3624.53 1608.37,-3624.53 1608.37,-3564.53 1276.37,-3564.53"/>
<text text-anchor="start" x="1287.37" y="-3585.73" font-family="Helvetica,sans-Serif" font-weight="bold" font-size="32.00" fill="#29235c">project_id</text>
<text text-anchor="start" x="1426.06" y="-3585.73" font-family="Helvetica,sans-Serif" font-size="32.00" fill="#29235c"> &#160;&#160;&#160;</text>
<text text-anchor="start" x="1469.33" y="-3585.73" font-family="Helvetica,sans-Serif" font-style="italic" font-size="32.00" fill="#29235c">unknown</text>
<polygon fill="#e7e2dd" stroke="transparent" points="1276.37,-3504.53 1276.37,-3564.53 1608.37,-3564.53 1608.37,-3504.53 1276.37,-3504.53"/>
<polygon fill="none" stroke="#29235c" points="1276.37,-3504.53 1276.37,-3564.53 1608.37,-3564.53 1608.37,-3504.53 1276.37,-3504.53"/>
<text text-anchor="start" x="1287.37" y="-3524.73" font-family="Helvetica,sans-Serif" font-size="32.00" fill="#29235c">name &#160;&#160;&#160;</text>
<text text-anchor="start" x="1519.15" y="-3525.73" font-family="Helvetica,sans-Serif" font-style="italic" font-size="32.00" fill="#29235c">string</text>
<polygon fill="#e7e2dd" stroke="transparent" points="1276.37,-3444.53 1276.37,-3504.53 1608.37,-3504.53 1608.37,-3444.53 1276.37,-3444.53"/>
<polygon fill="none" stroke="#29235c" points="1276.37,-3444.53 1276.37,-3504.53 1608.37,-3504.53 1608.37,-3444.53 1276.37,-3444.53"/>
<text text-anchor="start" x="1287.37" y="-3464.73" font-family="Helvetica,sans-Serif" font-size="32.00" fill="#29235c">team_id &#160;&#160;&#160;</text>
<text text-anchor="start" x="1519.15" y="-3465.73" font-family="Helvetica,sans-Serif" font-style="italic" font-size="32.00" fill="#29235c">string</text>
<polygon fill="#e7e2dd" stroke="transparent" points="1276.37,-3384.53 1276.37,-3444.53 1608.37,-3444.53 1608.37,-3384.53 1276.37,-3384.53"/>
<polygon fill="none" stroke="#29235c" points="1276.37,-3384.53 1276.37,-3444.53 1608.37,-3444.53 1608.37,-3384.53 1276.37,-3384.53"/>
<text text-anchor="start" x="1287.37" y="-3404.73" font-family="Helvetica,sans-Serif" font-size="32.00" fill="#29235c">website &#160;&#160;&#160;</text>
<text text-anchor="start" x="1519.15" y="-3405.73" font-family="Helvetica,sans-Serif" font-style="italic" font-size="32.00" fill="#29235c">string</text>
<polygon fill="#e7e2dd" stroke="transparent" points="1276.37,-3324.53 1276.37,-3384.53 1608.37,-3384.53 1608.37,-3324.53 1276.37,-3324.53"/>
<polygon fill="none" stroke="#29235c" points="1276.37,-3324.53 1276.37,-3384.53 1608.37,-3384.53 1608.37,-3324.53 1276.37,-3324.53"/>
<text text-anchor="start" x="1287.37" y="-3344.73" font-family="Helvetica,sans-Serif" font-size="32.00" fill="#29235c">docs &#160;&#160;&#160;</text>
<text text-anchor="start" x="1519.15" y="-3345.73" font-family="Helvetica,sans-Serif" font-style="italic" font-size="32.00" fill="#29235c">string</text>
<polygon fill="#e7e2dd" stroke="transparent" points="1276.37,-3264.53 1276.37,-3324.53 1608.37,-3324.53 1608.37,-3264.53 1276.37,-3264.53"/>
<polygon fill="none" stroke="#29235c" points="1276.37,-3264.53 1276.37,-3324.53 1608.37,-3324.53 1608.37,-3264.53 1276.37,-3264.53"/>
<text text-anchor="start" x="1287.37" y="-3284.73" font-family="Helvetica,sans-Serif" font-size="32.00" fill="#29235c">oss_slug &#160;&#160;&#160;</text>
<text text-anchor="start" x="1519.15" y="-3285.73" font-family="Helvetica,sans-Serif" font-style="italic" font-size="32.00" fill="#29235c">string</text>
<polygon fill="#e7e2dd" stroke="transparent" points="1276.37,-3204.53 1276.37,-3264.53 1608.37,-3264.53 1608.37,-3204.53 1276.37,-3204.53"/>
<polygon fill="none" stroke="#29235c" points="1276.37,-3204.53 1276.37,-3264.53 1608.37,-3264.53 1608.37,-3204.53 1276.37,-3204.53"/>
<text text-anchor="start" x="1286.9" y="-3224.73" font-family="Helvetica,sans-Serif" font-size="32.00" fill="#29235c">token_symbol &#160;&#160;&#160;</text>
<text text-anchor="start" x="1519.26" y="-3225.73" font-family="Helvetica,sans-Serif" font-style="italic" font-size="32.00" fill="#29235c">string</text>
<polygon fill="none" stroke="#29235c" stroke-width="2" points="1275.37,-3203.53 1275.37,-3685.53 1609.37,-3685.53 1609.37,-3203.53 1275.37,-3203.53"/>
</a>
</g>
</g>
<!-- Addresses&#45;&gt;Projects -->
<!-- Addresses&#45;&gt;Projects -->
<g id="edge10" class="edge">
<title>Addresses:e&#45;&gt;Projects:w</title>
<path fill="none" stroke="#29235c" stroke-width="3" d="M1046.18,-2713.53C1245.02,-2713.53 1078.96,-3564.68 1265.33,-3593.77"/>
<polygon fill="#29235c" stroke="#29235c" stroke-width="3" points="1265.14,-3597.27 1275.37,-3594.53 1265.67,-3590.29 1265.14,-3597.27"/>
<text text-anchor="middle" x="1266.48" y="-3604.13" font-family="Helvetica,sans-Serif" font-size="32.00" fill="#29235c">1</text>
<text text-anchor="middle" x="1052.4" y="-2723.13" font-family="Helvetica,sans-Serif" font-size="32.00" fill="#29235c">*</text>
</g>
<!-- Team -->
<g id="Team" class="node">
<title>Team</title>
<g id="a_Team"><a xlink:title="Team&#10;A group of people or entities working on projects, with a simple structure containing just an ID and a name.">
<ellipse fill="none" stroke="black" stroke-width="0" cx="1958.5" cy="-3594.53" rx="214.01" ry="130.22"/>
<polygon fill="#1d71b8" stroke="transparent" points="1809.5,-3624.53 1809.5,-3684.53 2108.5,-3684.53 2108.5,-3624.53 1809.5,-3624.53"/>
<polygon fill="none" stroke="#29235c" points="1809.5,-3624.53 1809.5,-3684.53 2108.5,-3684.53 2108.5,-3624.53 1809.5,-3624.53"/>
<text text-anchor="start" x="1855.86" y="-3645.73" font-family="Helvetica,sans-Serif" font-weight="bold" font-size="32.00" fill="#ffffff"> &#160;&#160;&#160;&#160;&#160;&#160;Team &#160;&#160;&#160;&#160;&#160;&#160;</text>
<polygon fill="#e7e2dd" stroke="transparent" points="1809.5,-3564.53 1809.5,-3624.53 2108.5,-3624.53 2108.5,-3564.53 1809.5,-3564.53"/>
<polygon fill="none" stroke="#29235c" points="1809.5,-3564.53 1809.5,-3624.53 2108.5,-3624.53 2108.5,-3564.53 1809.5,-3564.53"/>
<text text-anchor="start" x="1820.31" y="-3585.73" font-family="Helvetica,sans-Serif" font-weight="bold" font-size="32.00" fill="#29235c">team_id</text>
<text text-anchor="start" x="1934.11" y="-3585.73" font-family="Helvetica,sans-Serif" font-size="32.00" fill="#29235c"> &#160;&#160;&#160;</text>
<text text-anchor="start" x="1969.48" y="-3585.73" font-family="Helvetica,sans-Serif" font-style="italic" font-size="32.00" fill="#29235c">unknown</text>
<polygon fill="#e7e2dd" stroke="transparent" points="1809.5,-3504.53 1809.5,-3564.53 2108.5,-3564.53 2108.5,-3504.53 1809.5,-3504.53"/>
<polygon fill="none" stroke="#29235c" points="1809.5,-3504.53 1809.5,-3564.53 2108.5,-3564.53 2108.5,-3504.53 1809.5,-3504.53"/>
<text text-anchor="start" x="1820.5" y="-3524.73" font-family="Helvetica,sans-Serif" font-size="32.00" fill="#29235c">name &#160;&#160;&#160;</text>
<text text-anchor="start" x="2019.27" y="-3525.73" font-family="Helvetica,sans-Serif" font-style="italic" font-size="32.00" fill="#29235c">string</text>
<polygon fill="none" stroke="#29235c" stroke-width="2" points="1808,-3503.53 1808,-3685.53 2109,-3685.53 2109,-3503.53 1808,-3503.53"/>
</a>
</g>
</g>
<!-- Projects&#45;&gt;Team -->
<!-- Projects&#45;&gt;Team -->
<g id="edge8" class="edge">
<title>Projects:e&#45;&gt;Team:w</title>
<path fill="none" stroke="#29235c" stroke-width="3" d="M1609.37,-3474.53C1709.17,-3474.53 1705.56,-3586.47 1798.28,-3594.12"/>
<polygon fill="#29235c" stroke="#29235c" stroke-width="3" points="1798.37,-3597.63 1808.5,-3594.53 1798.65,-3590.63 1798.37,-3597.63"/>
<text text-anchor="middle" x="1799.6" y="-3604.13" font-family="Helvetica,sans-Serif" font-size="32.00" fill="#29235c">1</text>
<text text-anchor="middle" x="1603.15" y="-3484.13" font-family="Helvetica,sans-Serif" font-size="32.00" fill="#29235c">*</text>
</g>
<!-- TagGroup -->
<g id="TagGroup" class="node">
<title>TagGroup</title>
<g id="a_TagGroup"><a xlink:title="TagGroup&#10;Represents collections of tags that can be applied to other entities in the system for organizational purposes.">
<ellipse fill="none" stroke="black" stroke-width="0" cx="1442.37" cy="-172.53" rx="265.74" ry="172.57"/>
<polygon fill="#1d71b8" stroke="transparent" points="1256.37,-232.53 1256.37,-292.53 1628.37,-292.53 1628.37,-232.53 1256.37,-232.53"/>
<polygon fill="none" stroke="#29235c" points="1256.37,-232.53 1256.37,-292.53 1628.37,-292.53 1628.37,-232.53 1256.37,-232.53"/>
<text text-anchor="start" x="1308.1" y="-253.73" font-family="Helvetica,sans-Serif" font-weight="bold" font-size="32.00" fill="#ffffff"> &#160;&#160;&#160;&#160;&#160;&#160;TagGroup &#160;&#160;&#160;&#160;&#160;&#160;</text>
<polygon fill="#e7e2dd" stroke="transparent" points="1256.37,-172.53 1256.37,-232.53 1628.37,-232.53 1628.37,-172.53 1256.37,-172.53"/>
<polygon fill="none" stroke="#29235c" points="1256.37,-172.53 1256.37,-232.53 1628.37,-232.53 1628.37,-172.53 1256.37,-172.53"/>
<text text-anchor="start" x="1267.21" y="-193.73" font-family="Helvetica,sans-Serif" font-weight="bold" font-size="32.00" fill="#29235c">tag_group_id</text>
<text text-anchor="start" x="1453.96" y="-193.73" font-family="Helvetica,sans-Serif" font-size="32.00" fill="#29235c"> &#160;&#160;&#160;</text>
<text text-anchor="start" x="1489.35" y="-193.73" font-family="Helvetica,sans-Serif" font-style="italic" font-size="32.00" fill="#29235c">unknown</text>
<polygon fill="#e7e2dd" stroke="transparent" points="1256.37,-112.53 1256.37,-172.53 1628.37,-172.53 1628.37,-112.53 1256.37,-112.53"/>
<polygon fill="none" stroke="#29235c" points="1256.37,-112.53 1256.37,-172.53 1628.37,-172.53 1628.37,-112.53 1256.37,-112.53"/>
<text text-anchor="start" x="1267.37" y="-132.73" font-family="Helvetica,sans-Serif" font-size="32.00" fill="#29235c">name &#160;&#160;&#160;</text>
<text text-anchor="start" x="1539.15" y="-133.73" font-family="Helvetica,sans-Serif" font-style="italic" font-size="32.00" fill="#29235c">string</text>
<polygon fill="#e7e2dd" stroke="transparent" points="1256.37,-52.53 1256.37,-112.53 1628.37,-112.53 1628.37,-52.53 1256.37,-52.53"/>
<polygon fill="none" stroke="#29235c" points="1256.37,-52.53 1256.37,-112.53 1628.37,-112.53 1628.37,-52.53 1256.37,-52.53"/>
<text text-anchor="start" x="1267.37" y="-72.73" font-family="Helvetica,sans-Serif" font-size="32.00" fill="#29235c">description &#160;&#160;&#160;</text>
<text text-anchor="start" x="1539.15" y="-73.73" font-family="Helvetica,sans-Serif" font-style="italic" font-size="32.00" fill="#29235c">string</text>
<polygon fill="none" stroke="#29235c" stroke-width="2" points="1255.37,-51.53 1255.37,-293.53 1629.37,-293.53 1629.37,-51.53 1255.37,-51.53"/>
</a>
</g>
</g>
<!-- Tags -->
<g id="Tags" class="node">
<title>Tags</title>
<g id="a_Tags"><a xlink:title="Tags&#10;Individual labels or identifiers that can be applied to data points for sorting, searching, and categorization purposes.">
<ellipse fill="none" stroke="black" stroke-width="0" cx="820.18" cy="-1004.53" rx="286.26" ry="257.27"/>
<polygon fill="#1d71b8" stroke="transparent" points="620.18,-1124.53 620.18,-1184.53 1021.18,-1184.53 1021.18,-1124.53 620.18,-1124.53"/>
<polygon fill="none" stroke="#29235c" points="620.18,-1124.53 620.18,-1184.53 1021.18,-1184.53 1021.18,-1124.53 620.18,-1124.53"/>
<text text-anchor="start" x="722.87" y="-1145.73" font-family="Helvetica,sans-Serif" font-weight="bold" font-size="32.00" fill="#ffffff"> &#160;&#160;&#160;&#160;&#160;&#160;Tags &#160;&#160;&#160;&#160;&#160;&#160;</text>
<polygon fill="#e7e2dd" stroke="transparent" points="620.18,-1064.53 620.18,-1124.53 1021.18,-1124.53 1021.18,-1064.53 620.18,-1064.53"/>
<polygon fill="none" stroke="#29235c" points="620.18,-1064.53 620.18,-1124.53 1021.18,-1124.53 1021.18,-1064.53 620.18,-1064.53"/>
<text text-anchor="start" x="631.18" y="-1085.73" font-family="Helvetica,sans-Serif" font-weight="bold" font-size="32.00" fill="#29235c">tag_id</text>
<text text-anchor="start" x="718.33" y="-1085.73" font-family="Helvetica,sans-Serif" font-size="32.00" fill="#29235c"> &#160;&#160;&#160;</text>
<text text-anchor="start" x="882.14" y="-1085.73" font-family="Helvetica,sans-Serif" font-style="italic" font-size="32.00" fill="#29235c">unknown</text>
<polygon fill="#e7e2dd" stroke="transparent" points="620.18,-1004.53 620.18,-1064.53 1021.18,-1064.53 1021.18,-1004.53 620.18,-1004.53"/>
<polygon fill="none" stroke="#29235c" points="620.18,-1004.53 620.18,-1064.53 1021.18,-1064.53 1021.18,-1004.53 620.18,-1004.53"/>
<text text-anchor="start" x="631.18" y="-1024.73" font-family="Helvetica,sans-Serif" font-size="32.00" fill="#29235c">name &#160;&#160;&#160;</text>
<text text-anchor="start" x="931.96" y="-1025.73" font-family="Helvetica,sans-Serif" font-style="italic" font-size="32.00" fill="#29235c">string</text>
<polygon fill="#e7e2dd" stroke="transparent" points="620.18,-944.53 620.18,-1004.53 1021.18,-1004.53 1021.18,-944.53 620.18,-944.53"/>
<polygon fill="none" stroke="#29235c" points="620.18,-944.53 620.18,-1004.53 1021.18,-1004.53 1021.18,-944.53 620.18,-944.53"/>
<text text-anchor="start" x="631.18" y="-964.73" font-family="Helvetica,sans-Serif" font-size="32.00" fill="#29235c">tag_group_id &#160;&#160;&#160;</text>
<text text-anchor="start" x="882.14" y="-965.73" font-family="Helvetica,sans-Serif" font-style="italic" font-size="32.00" fill="#29235c">unknown</text>
<polygon fill="#e7e2dd" stroke="transparent" points="620.18,-884.53 620.18,-944.53 1021.18,-944.53 1021.18,-884.53 620.18,-884.53"/>
<polygon fill="none" stroke="#29235c" points="620.18,-884.53 620.18,-944.53 1021.18,-944.53 1021.18,-884.53 620.18,-884.53"/>
<text text-anchor="start" x="631.18" y="-904.73" font-family="Helvetica,sans-Serif" font-size="32.00" fill="#29235c">description &#160;&#160;&#160;</text>
<text text-anchor="start" x="931.96" y="-905.73" font-family="Helvetica,sans-Serif" font-style="italic" font-size="32.00" fill="#29235c">string</text>
<polygon fill="#e7e2dd" stroke="transparent" points="620.18,-824.53 620.18,-884.53 1021.18,-884.53 1021.18,-824.53 620.18,-824.53"/>
<polygon fill="none" stroke="#29235c" points="620.18,-824.53 620.18,-884.53 1021.18,-884.53 1021.18,-824.53 620.18,-824.53"/>
<text text-anchor="start" x="630.74" y="-844.73" font-family="Helvetica,sans-Serif" font-size="32.00" fill="#29235c">additional_attributes &#160;&#160;&#160;</text>
<text text-anchor="start" x="951.84" y="-845.73" font-family="Helvetica,sans-Serif" font-style="italic" font-size="32.00" fill="#29235c">json</text>
<polygon fill="none" stroke="#29235c" stroke-width="2" points="618.68,-823.53 618.68,-1185.53 1021.68,-1185.53 1021.68,-823.53 618.68,-823.53"/>
</a>
</g>
</g>
<!-- Tags&#45;&gt;TagGroup -->
<!-- Tags&#45;&gt;TagGroup -->
<g id="edge2" class="edge">
<title>Tags:e&#45;&gt;TagGroup:w</title>
<path fill="none" stroke="#29235c" stroke-width="3" d="M1022.18,-974.53C1377.19,-974.53 906.08,-217.17 1245.36,-202.74"/>
<polygon fill="#29235c" stroke="#29235c" stroke-width="3" points="1245.45,-206.24 1255.37,-202.53 1245.3,-199.24 1245.45,-206.24"/>
<text text-anchor="middle" x="1246.48" y="-173.73" font-family="Helvetica,sans-Serif" font-size="32.00" fill="#29235c">1</text>
<text text-anchor="middle" x="1028.4" y="-984.13" font-family="Helvetica,sans-Serif" font-size="32.00" fill="#29235c">*</text>
</g>
<!-- TagMapping -->
<g id="TagMapping" class="node">
<title>TagMapping</title>
<g id="a_TagMapping"><a xlink:title="TagMapping&#10;A many&#45;to&#45;many relationship table that maps tags to addresses, allowing an address to have multiple tags and a tag to be applied to multiple addresses.">
<ellipse fill="none" stroke="black" stroke-width="0" cx="231.93" cy="-1993.53" rx="231.86" ry="130.22"/>
<polygon fill="#1d71b8" stroke="transparent" points="69.93,-2023.53 69.93,-2083.53 393.93,-2083.53 393.93,-2023.53 69.93,-2023.53"/>
<polygon fill="none" stroke="#29235c" points="69.93,-2023.53 69.93,-2083.53 393.93,-2083.53 393.93,-2023.53 69.93,-2023.53"/>
<text text-anchor="start" x="80.77" y="-2044.73" font-family="Helvetica,sans-Serif" font-weight="bold" font-size="32.00" fill="#ffffff"> &#160;&#160;&#160;&#160;&#160;&#160;TagMapping &#160;&#160;&#160;&#160;&#160;&#160;</text>
<polygon fill="#e7e2dd" stroke="transparent" points="69.93,-1963.53 69.93,-2023.53 393.93,-2023.53 393.93,-1963.53 69.93,-1963.53"/>
<polygon fill="none" stroke="#29235c" points="69.93,-1963.53 69.93,-2023.53 393.93,-2023.53 393.93,-1963.53 69.93,-1963.53"/>
<text text-anchor="start" x="80.93" y="-1983.73" font-family="Helvetica,sans-Serif" font-size="32.00" fill="#29235c">address &#160;&#160;&#160;</text>
<text text-anchor="start" x="304.71" y="-1984.73" font-family="Helvetica,sans-Serif" font-style="italic" font-size="32.00" fill="#29235c">string</text>
<polygon fill="#e7e2dd" stroke="transparent" points="69.93,-1903.53 69.93,-1963.53 393.93,-1963.53 393.93,-1903.53 69.93,-1903.53"/>
<polygon fill="none" stroke="#29235c" points="69.93,-1903.53 69.93,-1963.53 393.93,-1963.53 393.93,-1903.53 69.93,-1903.53"/>
<text text-anchor="start" x="80.93" y="-1923.73" font-family="Helvetica,sans-Serif" font-size="32.00" fill="#29235c">tag_id &#160;&#160;&#160;</text>
<text text-anchor="start" x="254.89" y="-1924.73" font-family="Helvetica,sans-Serif" font-style="italic" font-size="32.00" fill="#29235c">unknown</text>
<polygon fill="none" stroke="#29235c" stroke-width="2" points="68.93,-1902.53 68.93,-2084.53 394.93,-2084.53 394.93,-1902.53 68.93,-1902.53"/>
</a>
</g>
</g>
<!-- TagMapping&#45;&gt;Addresses -->
<!-- TagMapping&#45;&gt;Addresses -->
<g id="edge6" class="edge">
<title>TagMapping:e&#45;&gt;Addresses:w</title>
<path fill="none" stroke="#29235c" stroke-width="3" d="M394.93,-1993.53C775.26,-1993.53 221.56,-2818.43 585.01,-2833.33"/>
<polygon fill="#29235c" stroke="#29235c" stroke-width="3" points="585.11,-2836.83 595.18,-2833.53 585.25,-2829.83 585.11,-2836.83"/>
<text text-anchor="middle" x="586.29" y="-2843.13" font-family="Helvetica,sans-Serif" font-size="32.00" fill="#29235c">1</text>
<text text-anchor="middle" x="401.15" y="-2003.13" font-family="Helvetica,sans-Serif" font-size="32.00" fill="#29235c">*</text>
</g>
<!-- TagMapping&#45;&gt;Tags -->
<!-- TagMapping&#45;&gt;Tags -->
<g id="edge4" class="edge">
<title>TagMapping:e&#45;&gt;Tags:w</title>
<path fill="none" stroke="#29235c" stroke-width="3" d="M394.93,-1933.53C777.42,-1933.53 243.02,-1109.62 608.95,-1094.74"/>
<polygon fill="#29235c" stroke="#29235c" stroke-width="3" points="609.25,-1098.23 619.18,-1094.53 609.11,-1091.23 609.25,-1098.23"/>
<text text-anchor="middle" x="610.29" y="-1104.13" font-family="Helvetica,sans-Serif" font-size="32.00" fill="#29235c">1</text>
<text text-anchor="middle" x="401.15" y="-1943.13" font-family="Helvetica,sans-Serif" font-size="32.00" fill="#29235c">*</text>
</g>
</g>
</svg>
