<?xml version="1.0" encoding="UTF-8" standalone="no"?>
<!DOCTYPE svg PUBLIC "-//W3C//DTD SVG 1.1//EN"
 "http://www.w3.org/Graphics/SVG/1.1/DTD/svg11.dtd">
<!-- Generated by graphviz version 2.47.0 (20210316.0004)
 -->
<!-- Title: dbml Pages: 1 -->
<svg width="2329pt" height="2139pt"
 viewBox="0.00 0.00 2329.24 2139.20" xmlns="http://www.w3.org/2000/svg" xmlns:xlink="http://www.w3.org/1999/xlink">
<g id="graph0" class="graph" transform="scale(1 1) rotate(0) translate(4 2135.2)">
<title>dbml</title>
<!-- chain_vm -->
<g id="chain_vm" class="node">
<title>chain_vm</title>
<ellipse fill="none" stroke="black" stroke-width="0" cx="2044.06" cy="-1642.39" rx="202.88" ry="172.57"/>
<polygon fill="#29235c" stroke="transparent" points="1903.06,-1702.39 1903.06,-1762.39 2186.06,-1762.39 2186.06,-1702.39 1903.06,-1702.39"/>
<polygon fill="none" stroke="#29235c" points="1903.06,-1702.39 1903.06,-1762.39 2186.06,-1762.39 2186.06,-1702.39 1903.06,-1702.39"/>
<text text-anchor="start" x="1913.85" y="-1723.59" font-family="Helvetica,sans-Serif" font-weight="bold" font-size="32.00" fill="#ffffff"> &#160;&#160;&#160;&#160;&#160;&#160;chain_vm &#160;&#160;&#160;&#160;&#160;&#160;</text>
<polygon fill="#e7e2dd" stroke="transparent" points="1903.06,-1642.39 1903.06,-1702.39 2186.06,-1702.39 2186.06,-1642.39 1903.06,-1642.39"/>
<polygon fill="none" stroke="#29235c" points="1903.06,-1642.39 1903.06,-1702.39 2186.06,-1702.39 2186.06,-1642.39 1903.06,-1642.39"/>
<text text-anchor="start" x="1974.32" y="-1663.59" font-family="Helvetica,sans-Serif" font-style="italic" font-size="32.00" fill="#1d71b8"> &#160;&#160;&#160;EVM &#160;&#160;&#160;</text>
<polygon fill="#e7e2dd" stroke="transparent" points="1903.06,-1582.39 1903.06,-1642.39 2186.06,-1642.39 2186.06,-1582.39 1903.06,-1582.39"/>
<polygon fill="none" stroke="#29235c" points="1903.06,-1582.39 1903.06,-1642.39 2186.06,-1642.39 2186.06,-1582.39 1903.06,-1582.39"/>
<text text-anchor="start" x="1974.32" y="-1603.59" font-family="Helvetica,sans-Serif" font-style="italic" font-size="32.00" fill="#1d71b8"> &#160;&#160;&#160;SVM &#160;&#160;&#160;</text>
<polygon fill="#e7e2dd" stroke="transparent" points="1903.06,-1522.39 1903.06,-1582.39 2186.06,-1582.39 2186.06,-1522.39 1903.06,-1522.39"/>
<polygon fill="none" stroke="#29235c" points="1903.06,-1522.39 1903.06,-1582.39 2186.06,-1582.39 2186.06,-1522.39 1903.06,-1522.39"/>
<text text-anchor="start" x="1946.77" y="-1543.59" font-family="Helvetica,sans-Serif" font-style="italic" font-size="32.00" fill="#1d71b8"> &#160;&#160;&#160;CairoVM &#160;&#160;&#160;</text>
<polygon fill="none" stroke="#29235c" stroke-width="2" points="1901.56,-1521.39 1901.56,-1763.39 2186.56,-1763.39 2186.56,-1521.39 1901.56,-1521.39"/>
</g>
<!-- Chains -->
<g id="Chains" class="node">
<title>Chains</title>
<g id="a_Chains"><a xlink:title="Chains&#10;Is used to map addresses to a chain. Chain_id (PK) is based on the chain&#39;s id (see chainlist).">
<ellipse fill="none" stroke="black" stroke-width="0" cx="1453.69" cy="-1831.39" rx="236.35" ry="299.63"/>
<polygon fill="#1d71b8" stroke="transparent" points="1288.69,-1981.39 1288.69,-2041.39 1618.69,-2041.39 1618.69,-1981.39 1288.69,-1981.39"/>
<polygon fill="none" stroke="#29235c" points="1288.69,-1981.39 1288.69,-2041.39 1618.69,-2041.39 1618.69,-1981.39 1288.69,-1981.39"/>
<text text-anchor="start" x="1341.65" y="-2002.59" font-family="Helvetica,sans-Serif" font-weight="bold" font-size="32.00" fill="#ffffff"> &#160;&#160;&#160;&#160;&#160;&#160;Chains &#160;&#160;&#160;&#160;&#160;&#160;</text>
<polygon fill="#e7e2dd" stroke="transparent" points="1288.69,-1921.39 1288.69,-1981.39 1618.69,-1981.39 1618.69,-1921.39 1288.69,-1921.39"/>
<polygon fill="none" stroke="#29235c" points="1288.69,-1921.39 1288.69,-1981.39 1618.69,-1981.39 1618.69,-1921.39 1288.69,-1921.39"/>
<text text-anchor="start" x="1299.69" y="-1942.59" font-family="Helvetica,sans-Serif" font-weight="bold" font-size="32.00" fill="#29235c">chain_slug</text>
<text text-anchor="start" x="1452.62" y="-1942.59" font-family="Helvetica,sans-Serif" font-size="32.00" fill="#29235c"> &#160;&#160;&#160;</text>
<text text-anchor="start" x="1529.46" y="-1942.59" font-family="Helvetica,sans-Serif" font-style="italic" font-size="32.00" fill="#29235c">string</text>
<polygon fill="#e7e2dd" stroke="transparent" points="1288.69,-1861.39 1288.69,-1921.39 1618.69,-1921.39 1618.69,-1861.39 1288.69,-1861.39"/>
<polygon fill="none" stroke="#29235c" points="1288.69,-1861.39 1288.69,-1921.39 1618.69,-1921.39 1618.69,-1861.39 1288.69,-1861.39"/>
<text text-anchor="start" x="1299.69" y="-1881.59" font-family="Helvetica,sans-Serif" font-size="32.00" fill="#29235c">evm_chain_id &#160;&#160;&#160;</text>
<text text-anchor="start" x="1573.9" y="-1882.59" font-family="Helvetica,sans-Serif" font-style="italic" font-size="32.00" fill="#29235c">int</text>
<polygon fill="#e7e2dd" stroke="transparent" points="1288.69,-1801.39 1288.69,-1861.39 1618.69,-1861.39 1618.69,-1801.39 1288.69,-1801.39"/>
<polygon fill="none" stroke="#29235c" points="1288.69,-1801.39 1288.69,-1861.39 1618.69,-1861.39 1618.69,-1801.39 1288.69,-1801.39"/>
<text text-anchor="start" x="1299.69" y="-1821.59" font-family="Helvetica,sans-Serif" font-size="32.00" fill="#29235c">name &#160;&#160;&#160;</text>
<text text-anchor="start" x="1529.46" y="-1822.59" font-family="Helvetica,sans-Serif" font-style="italic" font-size="32.00" fill="#29235c">string</text>
<polygon fill="#e7e2dd" stroke="transparent" points="1288.69,-1741.39 1288.69,-1801.39 1618.69,-1801.39 1618.69,-1741.39 1288.69,-1741.39"/>
<polygon fill="none" stroke="#29235c" points="1288.69,-1741.39 1288.69,-1801.39 1618.69,-1801.39 1618.69,-1741.39 1288.69,-1741.39"/>
<text text-anchor="start" x="1299.69" y="-1761.59" font-family="Helvetica,sans-Serif" font-size="32.00" fill="#29235c">website &#160;&#160;&#160;</text>
<text text-anchor="start" x="1529.46" y="-1762.59" font-family="Helvetica,sans-Serif" font-style="italic" font-size="32.00" fill="#29235c">string</text>
<polygon fill="#e7e2dd" stroke="transparent" points="1288.69,-1681.39 1288.69,-1741.39 1618.69,-1741.39 1618.69,-1681.39 1288.69,-1681.39"/>
<polygon fill="none" stroke="#29235c" points="1288.69,-1681.39 1288.69,-1741.39 1618.69,-1741.39 1618.69,-1681.39 1288.69,-1681.39"/>
<text text-anchor="start" x="1299.69" y="-1701.59" font-family="Helvetica,sans-Serif" font-size="32.00" fill="#29235c">gas_token &#160;&#160;&#160;</text>
<text text-anchor="start" x="1529.46" y="-1702.59" font-family="Helvetica,sans-Serif" font-style="italic" font-size="32.00" fill="#29235c">string</text>
<polygon fill="#e7e2dd" stroke="transparent" points="1288.69,-1621.39 1288.69,-1681.39 1618.69,-1681.39 1618.69,-1621.39 1288.69,-1621.39"/>
<polygon fill="none" stroke="#29235c" points="1288.69,-1621.39 1288.69,-1681.39 1618.69,-1681.39 1618.69,-1621.39 1288.69,-1621.39"/>
<text text-anchor="start" x="1299.45" y="-1641.59" font-family="Helvetica,sans-Serif" font-size="32.00" fill="#29235c">chain_vm &#160;&#160;&#160;</text>
<text text-anchor="start" x="1471.23" y="-1642.59" font-family="Helvetica,sans-Serif" font-style="italic" font-size="32.00" fill="#29235c">chain_vm</text>
<polygon fill="none" stroke="#29235c" stroke-width="2" points="1287.69,-1620.39 1287.69,-2042.39 1619.69,-2042.39 1619.69,-1620.39 1287.69,-1620.39"/>
</a>
</g>
</g>
<!-- Chains&#45;&gt;chain_vm -->
<g id="edge17" class="edge">
<title>Chains:e&#45;&gt;chain_vm:w</title>
<path fill="none" stroke="#29235c" stroke-width="3" d="M1619.69,-1651.39C1750.25,-1651.39 1771.5,-1732.39 1902.06,-1732.39"/>
</g>
<!-- Addresses -->
<g id="Addresses" class="node">
<title>Addresses</title>
<g id="a_Addresses"><a xlink:title="Addresses&#10;Represents wallet and smart contract addresses, linked to chains, projects, and categorization.">
<ellipse fill="none" stroke="black" stroke-width="0" cx="820.18" cy="-1047.39" rx="320.14" ry="511.89"/>
<polygon fill="#1d71b8" stroke="transparent" points="596.18,-1347.39 596.18,-1407.39 1045.18,-1407.39 1045.18,-1347.39 596.18,-1347.39"/>
<polygon fill="none" stroke="#29235c" points="596.18,-1347.39 596.18,-1407.39 1045.18,-1407.39 1045.18,-1347.39 596.18,-1347.39"/>
<text text-anchor="start" x="682.86" y="-1368.59" font-family="Helvetica,sans-Serif" font-weight="bold" font-size="32.00" fill="#ffffff"> &#160;&#160;&#160;&#160;&#160;&#160;Addresses &#160;&#160;&#160;&#160;&#160;&#160;</text>
<polygon fill="#e7e2dd" stroke="transparent" points="596.18,-1287.39 596.18,-1347.39 1045.18,-1347.39 1045.18,-1287.39 596.18,-1287.39"/>
<polygon fill="none" stroke="#29235c" points="596.18,-1287.39 596.18,-1347.39 1045.18,-1347.39 1045.18,-1287.39 596.18,-1287.39"/>
<text text-anchor="start" x="607.18" y="-1308.59" font-family="Helvetica,sans-Serif" font-weight="bold" font-size="32.00" fill="#29235c">address</text>
<text text-anchor="start" x="720.99" y="-1308.59" font-family="Helvetica,sans-Serif" font-size="32.00" fill="#29235c"> &#160;&#160;&#160;</text>
<text text-anchor="start" x="955.96" y="-1308.59" font-family="Helvetica,sans-Serif" font-style="italic" font-size="32.00" fill="#29235c">string</text>
<polygon fill="#e7e2dd" stroke="transparent" points="596.18,-1227.39 596.18,-1287.39 1045.18,-1287.39 1045.18,-1227.39 596.18,-1227.39"/>
<polygon fill="none" stroke="#29235c" points="596.18,-1227.39 596.18,-1287.39 1045.18,-1287.39 1045.18,-1227.39 596.18,-1227.39"/>
<text text-anchor="start" x="607.18" y="-1248.59" font-family="Helvetica,sans-Serif" font-weight="bold" font-size="32.00" fill="#29235c">chain_slug</text>
<text text-anchor="start" x="760.12" y="-1248.59" font-family="Helvetica,sans-Serif" font-size="32.00" fill="#29235c"> &#160;&#160;&#160;</text>
<text text-anchor="start" x="955.96" y="-1248.59" font-family="Helvetica,sans-Serif" font-style="italic" font-size="32.00" fill="#29235c">string</text>
<polygon fill="#e7e2dd" stroke="transparent" points="596.18,-1167.39 596.18,-1227.39 1045.18,-1227.39 1045.18,-1167.39 596.18,-1167.39"/>
<polygon fill="none" stroke="#29235c" points="596.18,-1167.39 596.18,-1227.39 1045.18,-1227.39 1045.18,-1167.39 596.18,-1167.39"/>
<text text-anchor="start" x="607.18" y="-1187.59" font-family="Helvetica,sans-Serif" font-size="32.00" fill="#29235c">project_id &#160;&#160;&#160;</text>
<text text-anchor="start" x="906.14" y="-1188.59" font-family="Helvetica,sans-Serif" font-style="italic" font-size="32.00" fill="#29235c">unknown</text>
<polygon fill="#e7e2dd" stroke="transparent" points="596.18,-1107.39 596.18,-1167.39 1045.18,-1167.39 1045.18,-1107.39 596.18,-1107.39"/>
<polygon fill="none" stroke="#29235c" points="596.18,-1107.39 596.18,-1167.39 1045.18,-1167.39 1045.18,-1107.39 596.18,-1107.39"/>
<text text-anchor="start" x="607.18" y="-1127.59" font-family="Helvetica,sans-Serif" font-size="32.00" fill="#29235c">category_id &#160;&#160;&#160;</text>
<text text-anchor="start" x="955.96" y="-1128.59" font-family="Helvetica,sans-Serif" font-style="italic" font-size="32.00" fill="#29235c">string</text>
<polygon fill="#e7e2dd" stroke="transparent" points="596.18,-1047.39 596.18,-1107.39 1045.18,-1107.39 1045.18,-1047.39 596.18,-1047.39"/>
<polygon fill="none" stroke="#29235c" points="596.18,-1047.39 596.18,-1107.39 1045.18,-1107.39 1045.18,-1047.39 596.18,-1047.39"/>
<text text-anchor="start" x="607.18" y="-1067.59" font-family="Helvetica,sans-Serif" font-size="32.00" fill="#29235c">is_eoa &#160;&#160;&#160;</text>
<text text-anchor="start" x="973.71" y="-1068.59" font-family="Helvetica,sans-Serif" font-style="italic" font-size="32.00" fill="#29235c">bool</text>
<polygon fill="#e7e2dd" stroke="transparent" points="596.18,-987.39 596.18,-1047.39 1045.18,-1047.39 1045.18,-987.39 596.18,-987.39"/>
<polygon fill="none" stroke="#29235c" points="596.18,-987.39 596.18,-1047.39 1045.18,-1047.39 1045.18,-987.39 596.18,-987.39"/>
<text text-anchor="start" x="607.18" y="-1007.59" font-family="Helvetica,sans-Serif" font-size="32.00" fill="#29235c">is_proxy &#160;&#160;&#160;</text>
<text text-anchor="start" x="973.71" y="-1008.59" font-family="Helvetica,sans-Serif" font-style="italic" font-size="32.00" fill="#29235c">bool</text>
<polygon fill="#e7e2dd" stroke="transparent" points="596.18,-927.39 596.18,-987.39 1045.18,-987.39 1045.18,-927.39 596.18,-927.39"/>
<polygon fill="none" stroke="#29235c" points="596.18,-927.39 596.18,-987.39 1045.18,-987.39 1045.18,-927.39 596.18,-927.39"/>
<text text-anchor="start" x="607.18" y="-947.59" font-family="Helvetica,sans-Serif" font-size="32.00" fill="#29235c">name &#160;&#160;&#160;</text>
<text text-anchor="start" x="955.96" y="-948.59" font-family="Helvetica,sans-Serif" font-style="italic" font-size="32.00" fill="#29235c">string</text>
<polygon fill="#e7e2dd" stroke="transparent" points="596.18,-867.39 596.18,-927.39 1045.18,-927.39 1045.18,-867.39 596.18,-867.39"/>
<polygon fill="none" stroke="#29235c" points="596.18,-867.39 596.18,-927.39 1045.18,-927.39 1045.18,-867.39 596.18,-867.39"/>
<text text-anchor="start" x="607.18" y="-887.59" font-family="Helvetica,sans-Serif" font-size="32.00" fill="#29235c">bytecode &#160;&#160;&#160;</text>
<text text-anchor="start" x="955.92" y="-888.59" font-family="Helvetica,sans-Serif" font-style="italic" font-size="32.00" fill="#29235c">bytea</text>
<polygon fill="#e7e2dd" stroke="transparent" points="596.18,-807.39 596.18,-867.39 1045.18,-867.39 1045.18,-807.39 596.18,-807.39"/>
<polygon fill="none" stroke="#29235c" points="596.18,-807.39 596.18,-867.39 1045.18,-867.39 1045.18,-807.39 596.18,-807.39"/>
<text text-anchor="start" x="607.18" y="-827.59" font-family="Helvetica,sans-Serif" font-size="32.00" fill="#29235c">abi &#160;&#160;&#160;</text>
<text text-anchor="start" x="955.96" y="-828.59" font-family="Helvetica,sans-Serif" font-style="italic" font-size="32.00" fill="#29235c">string</text>
<polygon fill="#e7e2dd" stroke="transparent" points="596.18,-747.39 596.18,-807.39 1045.18,-807.39 1045.18,-747.39 596.18,-747.39"/>
<polygon fill="none" stroke="#29235c" points="596.18,-747.39 596.18,-807.39 1045.18,-807.39 1045.18,-747.39 596.18,-747.39"/>
<text text-anchor="start" x="606.68" y="-767.59" font-family="Helvetica,sans-Serif" font-size="32.00" fill="#29235c">deployment_date &#160;&#160;&#160;</text>
<text text-anchor="start" x="886.9" y="-768.59" font-family="Helvetica,sans-Serif" font-style="italic" font-size="32.00" fill="#29235c">timestamp</text>
<polygon fill="#e7e2dd" stroke="transparent" points="596.18,-687.39 596.18,-747.39 1045.18,-747.39 1045.18,-687.39 596.18,-687.39"/>
<polygon fill="none" stroke="#29235c" points="596.18,-687.39 596.18,-747.39 1045.18,-747.39 1045.18,-687.39 596.18,-687.39"/>
<text text-anchor="start" x="607.18" y="-707.59" font-family="Helvetica,sans-Serif" font-size="32.00" fill="#29235c">deployer_address &#160;&#160;&#160;</text>
<text text-anchor="start" x="906.14" y="-708.59" font-family="Helvetica,sans-Serif" font-style="italic" font-size="32.00" fill="#29235c">unknown</text>
<polygon fill="none" stroke="#29235c" stroke-width="2" points="594.68,-686.39 594.68,-1408.39 1045.68,-1408.39 1045.68,-686.39 594.68,-686.39"/>
</a>
</g>
</g>
<!-- Addresses&#45;&gt;Chains -->
<!-- Addresses&#45;&gt;Chains -->
<g id="edge12" class="edge">
<title>Addresses:e&#45;&gt;Chains:w</title>
<path fill="none" stroke="#29235c" stroke-width="3" d="M1046.18,-1257.39C1205.97,-1257.39 1127.93,-1921.89 1277.5,-1950.44"/>
<polygon fill="#29235c" stroke="#29235c" stroke-width="3" points="1277.41,-1953.95 1287.69,-1951.39 1278.05,-1946.98 1277.41,-1953.95"/>
<text text-anchor="middle" x="1278.79" y="-1960.99" font-family="Helvetica,sans-Serif" font-size="32.00" fill="#29235c">1</text>
<text text-anchor="middle" x="1039.96" y="-1266.99" font-family="Helvetica,sans-Serif" font-size="32.00" fill="#29235c">*</text>
</g>
<!-- Projects -->
<g id="Projects" class="node">
<title>Projects</title>
<g id="a_Projects"><a xlink:title="Projects&#10;Information about specific projects (i.e. Uniswap V2), including project name, website link, and documentation.">
<ellipse fill="none" stroke="black" stroke-width="0" cx="1453.69" cy="-1171.39" rx="237.68" ry="342.48"/>
<polygon fill="#1d71b8" stroke="transparent" points="1287.69,-1351.39 1287.69,-1411.39 1619.69,-1411.39 1619.69,-1351.39 1287.69,-1351.39"/>
<polygon fill="none" stroke="#29235c" points="1287.69,-1351.39 1287.69,-1411.39 1619.69,-1411.39 1619.69,-1351.39 1287.69,-1351.39"/>
<text text-anchor="start" x="1333.65" y="-1372.59" font-family="Helvetica,sans-Serif" font-weight="bold" font-size="32.00" fill="#ffffff"> &#160;&#160;&#160;&#160;&#160;&#160;Projects &#160;&#160;&#160;&#160;&#160;&#160;</text>
<polygon fill="#e7e2dd" stroke="transparent" points="1287.69,-1291.39 1287.69,-1351.39 1619.69,-1351.39 1619.69,-1291.39 1287.69,-1291.39"/>
<polygon fill="none" stroke="#29235c" points="1287.69,-1291.39 1287.69,-1351.39 1619.69,-1351.39 1619.69,-1291.39 1287.69,-1291.39"/>
<text text-anchor="start" x="1298.69" y="-1312.59" font-family="Helvetica,sans-Serif" font-weight="bold" font-size="32.00" fill="#29235c">project_id</text>
<text text-anchor="start" x="1437.38" y="-1312.59" font-family="Helvetica,sans-Serif" font-size="32.00" fill="#29235c"> &#160;&#160;&#160;</text>
<text text-anchor="start" x="1480.64" y="-1312.59" font-family="Helvetica,sans-Serif" font-style="italic" font-size="32.00" fill="#29235c">unknown</text>
<polygon fill="#e7e2dd" stroke="transparent" points="1287.69,-1231.39 1287.69,-1291.39 1619.69,-1291.39 1619.69,-1231.39 1287.69,-1231.39"/>
<polygon fill="none" stroke="#29235c" points="1287.69,-1231.39 1287.69,-1291.39 1619.69,-1291.39 1619.69,-1231.39 1287.69,-1231.39"/>
<text text-anchor="start" x="1298.69" y="-1251.59" font-family="Helvetica,sans-Serif" font-size="32.00" fill="#29235c">name &#160;&#160;&#160;</text>
<text text-anchor="start" x="1530.46" y="-1252.59" font-family="Helvetica,sans-Serif" font-style="italic" font-size="32.00" fill="#29235c">string</text>
<polygon fill="#e7e2dd" stroke="transparent" points="1287.69,-1171.39 1287.69,-1231.39 1619.69,-1231.39 1619.69,-1171.39 1287.69,-1171.39"/>
<polygon fill="none" stroke="#29235c" points="1287.69,-1171.39 1287.69,-1231.39 1619.69,-1231.39 1619.69,-1171.39 1287.69,-1171.39"/>
<text text-anchor="start" x="1298.69" y="-1191.59" font-family="Helvetica,sans-Serif" font-size="32.00" fill="#29235c">team_id &#160;&#160;&#160;</text>
<text text-anchor="start" x="1530.46" y="-1192.59" font-family="Helvetica,sans-Serif" font-style="italic" font-size="32.00" fill="#29235c">string</text>
<polygon fill="#e7e2dd" stroke="transparent" points="1287.69,-1111.39 1287.69,-1171.39 1619.69,-1171.39 1619.69,-1111.39 1287.69,-1111.39"/>
<polygon fill="none" stroke="#29235c" points="1287.69,-1111.39 1287.69,-1171.39 1619.69,-1171.39 1619.69,-1111.39 1287.69,-1111.39"/>
<text text-anchor="start" x="1298.69" y="-1131.59" font-family="Helvetica,sans-Serif" font-size="32.00" fill="#29235c">website &#160;&#160;&#160;</text>
<text text-anchor="start" x="1530.46" y="-1132.59" font-family="Helvetica,sans-Serif" font-style="italic" font-size="32.00" fill="#29235c">string</text>
<polygon fill="#e7e2dd" stroke="transparent" points="1287.69,-1051.39 1287.69,-1111.39 1619.69,-1111.39 1619.69,-1051.39 1287.69,-1051.39"/>
<polygon fill="none" stroke="#29235c" points="1287.69,-1051.39 1287.69,-1111.39 1619.69,-1111.39 1619.69,-1051.39 1287.69,-1051.39"/>
<text text-anchor="start" x="1298.69" y="-1071.59" font-family="Helvetica,sans-Serif" font-size="32.00" fill="#29235c">docs &#160;&#160;&#160;</text>
<text text-anchor="start" x="1530.46" y="-1072.59" font-family="Helvetica,sans-Serif" font-style="italic" font-size="32.00" fill="#29235c">string</text>
<polygon fill="#e7e2dd" stroke="transparent" points="1287.69,-991.39 1287.69,-1051.39 1619.69,-1051.39 1619.69,-991.39 1287.69,-991.39"/>
<polygon fill="none" stroke="#29235c" points="1287.69,-991.39 1287.69,-1051.39 1619.69,-1051.39 1619.69,-991.39 1287.69,-991.39"/>
<text text-anchor="start" x="1298.69" y="-1011.59" font-family="Helvetica,sans-Serif" font-size="32.00" fill="#29235c">oss_slug &#160;&#160;&#160;</text>
<text text-anchor="start" x="1530.46" y="-1012.59" font-family="Helvetica,sans-Serif" font-style="italic" font-size="32.00" fill="#29235c">string</text>
<polygon fill="#e7e2dd" stroke="transparent" points="1287.69,-931.39 1287.69,-991.39 1619.69,-991.39 1619.69,-931.39 1287.69,-931.39"/>
<polygon fill="none" stroke="#29235c" points="1287.69,-931.39 1287.69,-991.39 1619.69,-991.39 1619.69,-931.39 1287.69,-931.39"/>
<text text-anchor="start" x="1298.21" y="-951.59" font-family="Helvetica,sans-Serif" font-size="32.00" fill="#29235c">token_symbol &#160;&#160;&#160;</text>
<text text-anchor="start" x="1530.57" y="-952.59" font-family="Helvetica,sans-Serif" font-style="italic" font-size="32.00" fill="#29235c">string</text>
<polygon fill="none" stroke="#29235c" stroke-width="2" points="1286.69,-930.39 1286.69,-1412.39 1620.69,-1412.39 1620.69,-930.39 1286.69,-930.39"/>
</a>
</g>
</g>
<!-- Addresses&#45;&gt;Projects -->
<!-- Addresses&#45;&gt;Projects -->
<g id="edge14" class="edge">
<title>Addresses:e&#45;&gt;Projects:w</title>
<path fill="none" stroke="#29235c" stroke-width="3" d="M1046.18,-1197.39C1162.92,-1197.39 1166.32,-1314.23 1276.42,-1321.07"/>
<polygon fill="#29235c" stroke="#29235c" stroke-width="3" points="1276.58,-1324.58 1286.69,-1321.39 1276.8,-1317.58 1276.58,-1324.58"/>
<text text-anchor="middle" x="1277.79" y="-1330.99" font-family="Helvetica,sans-Serif" font-size="32.00" fill="#29235c">1</text>
<text text-anchor="middle" x="1039.96" y="-1206.99" font-family="Helvetica,sans-Serif" font-size="32.00" fill="#29235c">*</text>
</g>
<!-- Categories -->
<g id="Categories" class="node">
<title>Categories</title>
<g id="a_Categories"><a xlink:title="Categories&#10;A classification system that can be used for grouping contracts and wallets into specific categories.">
<ellipse fill="none" stroke="black" stroke-width="0" cx="1453.69" cy="-596.39" rx="277.37" ry="214.92"/>
<polygon fill="#1d71b8" stroke="transparent" points="1259.69,-686.39 1259.69,-746.39 1647.69,-746.39 1647.69,-686.39 1259.69,-686.39"/>
<polygon fill="none" stroke="#29235c" points="1259.69,-686.39 1259.69,-746.39 1647.69,-746.39 1647.69,-686.39 1259.69,-686.39"/>
<text text-anchor="start" x="1314.09" y="-707.59" font-family="Helvetica,sans-Serif" font-weight="bold" font-size="32.00" fill="#ffffff"> &#160;&#160;&#160;&#160;&#160;&#160;Categories &#160;&#160;&#160;&#160;&#160;&#160;</text>
<polygon fill="#e7e2dd" stroke="transparent" points="1259.69,-626.39 1259.69,-686.39 1647.69,-686.39 1647.69,-626.39 1259.69,-626.39"/>
<polygon fill="none" stroke="#29235c" points="1259.69,-626.39 1259.69,-686.39 1647.69,-686.39 1647.69,-626.39 1259.69,-626.39"/>
<text text-anchor="start" x="1270.69" y="-647.59" font-family="Helvetica,sans-Serif" font-weight="bold" font-size="32.00" fill="#29235c">category_id</text>
<text text-anchor="start" x="1436.07" y="-647.59" font-family="Helvetica,sans-Serif" font-size="32.00" fill="#29235c"> &#160;&#160;&#160;</text>
<text text-anchor="start" x="1558.46" y="-647.59" font-family="Helvetica,sans-Serif" font-style="italic" font-size="32.00" fill="#29235c">string</text>
<polygon fill="#e7e2dd" stroke="transparent" points="1259.69,-566.39 1259.69,-626.39 1647.69,-626.39 1647.69,-566.39 1259.69,-566.39"/>
<polygon fill="none" stroke="#29235c" points="1259.69,-566.39 1259.69,-626.39 1647.69,-626.39 1647.69,-566.39 1259.69,-566.39"/>
<text text-anchor="start" x="1270.69" y="-586.59" font-family="Helvetica,sans-Serif" font-size="32.00" fill="#29235c">name &#160;&#160;&#160;</text>
<text text-anchor="start" x="1558.46" y="-587.59" font-family="Helvetica,sans-Serif" font-style="italic" font-size="32.00" fill="#29235c">string</text>
<polygon fill="#e7e2dd" stroke="transparent" points="1259.69,-506.39 1259.69,-566.39 1647.69,-566.39 1647.69,-506.39 1259.69,-506.39"/>
<polygon fill="none" stroke="#29235c" points="1259.69,-506.39 1259.69,-566.39 1647.69,-566.39 1647.69,-506.39 1259.69,-506.39"/>
<text text-anchor="start" x="1270.69" y="-526.59" font-family="Helvetica,sans-Serif" font-size="32.00" fill="#29235c">definition &#160;&#160;&#160;</text>
<text text-anchor="start" x="1558.46" y="-527.59" font-family="Helvetica,sans-Serif" font-style="italic" font-size="32.00" fill="#29235c">string</text>
<polygon fill="#e7e2dd" stroke="transparent" points="1259.69,-446.39 1259.69,-506.39 1647.69,-506.39 1647.69,-446.39 1259.69,-446.39"/>
<polygon fill="none" stroke="#29235c" points="1259.69,-446.39 1259.69,-506.39 1647.69,-506.39 1647.69,-446.39 1259.69,-446.39"/>
<text text-anchor="start" x="1270.65" y="-466.59" font-family="Helvetica,sans-Serif" font-size="32.00" fill="#29235c">main_category_id &#160;&#160;&#160;</text>
<text text-anchor="start" x="1558.57" y="-467.59" font-family="Helvetica,sans-Serif" font-style="italic" font-size="32.00" fill="#29235c">string</text>
<polygon fill="none" stroke="#29235c" stroke-width="2" points="1258.69,-445.39 1258.69,-747.39 1648.69,-747.39 1648.69,-445.39 1258.69,-445.39"/>
</a>
</g>
</g>
<!-- Addresses&#45;&gt;Categories -->
<!-- Addresses&#45;&gt;Categories -->
<g id="edge16" class="edge">
<title>Addresses:e&#45;&gt;Categories:w</title>
<path fill="none" stroke="#29235c" stroke-width="3" d="M1046.18,-1137.39C1276.36,-1137.39 1032.58,-670.84 1248.41,-656.71"/>
<polygon fill="#29235c" stroke="#29235c" stroke-width="3" points="1248.8,-660.2 1258.69,-656.39 1248.58,-653.21 1248.8,-660.2"/>
<text text-anchor="middle" x="1249.79" y="-665.99" font-family="Helvetica,sans-Serif" font-size="32.00" fill="#29235c">1</text>
<text text-anchor="middle" x="1039.96" y="-1146.99" font-family="Helvetica,sans-Serif" font-size="32.00" fill="#29235c">*</text>
</g>
<!-- Team -->
<g id="Team" class="node">
<title>Team</title>
<g id="a_Team"><a xlink:title="Team&#10;A group of people or entities working on projects, with a simple structure containing just an ID and a name.">
<ellipse fill="none" stroke="black" stroke-width="0" cx="2044.06" cy="-1321.39" rx="214.01" ry="130.22"/>
<polygon fill="#1d71b8" stroke="transparent" points="1895.06,-1351.39 1895.06,-1411.39 2194.06,-1411.39 2194.06,-1351.39 1895.06,-1351.39"/>
<polygon fill="none" stroke="#29235c" points="1895.06,-1351.39 1895.06,-1411.39 2194.06,-1411.39 2194.06,-1351.39 1895.06,-1351.39"/>
<text text-anchor="start" x="1941.42" y="-1372.59" font-family="Helvetica,sans-Serif" font-weight="bold" font-size="32.00" fill="#ffffff"> &#160;&#160;&#160;&#160;&#160;&#160;Team &#160;&#160;&#160;&#160;&#160;&#160;</text>
<polygon fill="#e7e2dd" stroke="transparent" points="1895.06,-1291.39 1895.06,-1351.39 2194.06,-1351.39 2194.06,-1291.39 1895.06,-1291.39"/>
<polygon fill="none" stroke="#29235c" points="1895.06,-1291.39 1895.06,-1351.39 2194.06,-1351.39 2194.06,-1291.39 1895.06,-1291.39"/>
<text text-anchor="start" x="1905.87" y="-1312.59" font-family="Helvetica,sans-Serif" font-weight="bold" font-size="32.00" fill="#29235c">team_id</text>
<text text-anchor="start" x="2019.67" y="-1312.59" font-family="Helvetica,sans-Serif" font-size="32.00" fill="#29235c"> &#160;&#160;&#160;</text>
<text text-anchor="start" x="2055.04" y="-1312.59" font-family="Helvetica,sans-Serif" font-style="italic" font-size="32.00" fill="#29235c">unknown</text>
<polygon fill="#e7e2dd" stroke="transparent" points="1895.06,-1231.39 1895.06,-1291.39 2194.06,-1291.39 2194.06,-1231.39 1895.06,-1231.39"/>
<polygon fill="none" stroke="#29235c" points="1895.06,-1231.39 1895.06,-1291.39 2194.06,-1291.39 2194.06,-1231.39 1895.06,-1231.39"/>
<text text-anchor="start" x="1906.06" y="-1251.59" font-family="Helvetica,sans-Serif" font-size="32.00" fill="#29235c">name &#160;&#160;&#160;</text>
<text text-anchor="start" x="2104.83" y="-1252.59" font-family="Helvetica,sans-Serif" font-style="italic" font-size="32.00" fill="#29235c">string</text>
<polygon fill="none" stroke="#29235c" stroke-width="2" points="1893.56,-1230.39 1893.56,-1412.39 2194.56,-1412.39 2194.56,-1230.39 1893.56,-1230.39"/>
</a>
</g>
</g>
<!-- Projects&#45;&gt;Team -->
<!-- Projects&#45;&gt;Team -->
<g id="edge10" class="edge">
<title>Projects:e&#45;&gt;Team:w</title>
<path fill="none" stroke="#29235c" stroke-width="3" d="M1620.69,-1201.39C1749.88,-1201.39 1760.86,-1315.14 1883.82,-1321.14"/>
<polygon fill="#29235c" stroke="#29235c" stroke-width="3" points="1883.98,-1324.65 1894.06,-1321.39 1884.15,-1317.65 1883.98,-1324.65"/>
<text text-anchor="middle" x="1885.16" y="-1330.99" font-family="Helvetica,sans-Serif" font-size="32.00" fill="#29235c">1</text>
<text text-anchor="middle" x="1626.91" y="-1210.99" font-family="Helvetica,sans-Serif" font-size="32.00" fill="#29235c">*</text>
</g>
<!-- MainCategories -->
<g id="MainCategories" class="node">
<title>MainCategories</title>
<g id="a_MainCategories"><a xlink:title="MainCategories&#10;A higher&#45;level categorization that can group multiple categories under a broader classification.">
<ellipse fill="none" stroke="black" stroke-width="0" cx="2044.06" cy="-626.39" rx="277.37" ry="172.57"/>
<polygon fill="#1d71b8" stroke="transparent" points="1850.06,-686.39 1850.06,-746.39 2238.06,-746.39 2238.06,-686.39 1850.06,-686.39"/>
<polygon fill="none" stroke="#29235c" points="1850.06,-686.39 1850.06,-746.39 2238.06,-746.39 2238.06,-686.39 1850.06,-686.39"/>
<text text-anchor="start" x="1869.8" y="-707.59" font-family="Helvetica,sans-Serif" font-weight="bold" font-size="32.00" fill="#ffffff"> &#160;&#160;&#160;&#160;&#160;&#160;MainCategories &#160;&#160;&#160;&#160;&#160;&#160;</text>
<polygon fill="#e7e2dd" stroke="transparent" points="1850.06,-626.39 1850.06,-686.39 2238.06,-686.39 2238.06,-626.39 1850.06,-626.39"/>
<polygon fill="none" stroke="#29235c" points="1850.06,-626.39 1850.06,-686.39 2238.06,-686.39 2238.06,-626.39 1850.06,-626.39"/>
<text text-anchor="start" x="1861.02" y="-647.59" font-family="Helvetica,sans-Serif" font-weight="bold" font-size="32.00" fill="#29235c">main_category_id</text>
<text text-anchor="start" x="2113.52" y="-647.59" font-family="Helvetica,sans-Serif" font-size="32.00" fill="#29235c"> &#160;&#160;&#160;</text>
<text text-anchor="start" x="2148.95" y="-647.59" font-family="Helvetica,sans-Serif" font-style="italic" font-size="32.00" fill="#29235c">string</text>
<polygon fill="#e7e2dd" stroke="transparent" points="1850.06,-566.39 1850.06,-626.39 2238.06,-626.39 2238.06,-566.39 1850.06,-566.39"/>
<polygon fill="none" stroke="#29235c" points="1850.06,-566.39 1850.06,-626.39 2238.06,-626.39 2238.06,-566.39 1850.06,-566.39"/>
<text text-anchor="start" x="1861.06" y="-586.59" font-family="Helvetica,sans-Serif" font-size="32.00" fill="#29235c">name &#160;&#160;&#160;</text>
<text text-anchor="start" x="2148.83" y="-587.59" font-family="Helvetica,sans-Serif" font-style="italic" font-size="32.00" fill="#29235c">string</text>
<polygon fill="#e7e2dd" stroke="transparent" points="1850.06,-506.39 1850.06,-566.39 2238.06,-566.39 2238.06,-506.39 1850.06,-506.39"/>
<polygon fill="none" stroke="#29235c" points="1850.06,-506.39 1850.06,-566.39 2238.06,-566.39 2238.06,-506.39 1850.06,-506.39"/>
<text text-anchor="start" x="1861.06" y="-526.59" font-family="Helvetica,sans-Serif" font-size="32.00" fill="#29235c">definition &#160;&#160;&#160;</text>
<text text-anchor="start" x="2148.83" y="-527.59" font-family="Helvetica,sans-Serif" font-style="italic" font-size="32.00" fill="#29235c">string</text>
<polygon fill="none" stroke="#29235c" stroke-width="2" points="1849.06,-505.39 1849.06,-747.39 2239.06,-747.39 2239.06,-505.39 1849.06,-505.39"/>
</a>
</g>
</g>
<!-- Categories&#45;&gt;MainCategories -->
<!-- Categories&#45;&gt;MainCategories -->
<g id="edge8" class="edge">
<title>Categories:e&#45;&gt;MainCategories:w</title>
<path fill="none" stroke="#29235c" stroke-width="3" d="M1648.69,-476.39C1764.89,-476.39 1731.5,-645.99 1838.94,-655.93"/>
<polygon fill="#29235c" stroke="#29235c" stroke-width="3" points="1838.91,-659.43 1849.06,-656.39 1839.23,-652.44 1838.91,-659.43"/>
<text text-anchor="middle" x="1840.16" y="-665.99" font-family="Helvetica,sans-Serif" font-size="32.00" fill="#29235c">1</text>
<text text-anchor="middle" x="1654.91" y="-485.99" font-family="Helvetica,sans-Serif" font-size="32.00" fill="#29235c">*</text>
</g>
<!-- TagGroup -->
<g id="TagGroup" class="node">
<title>TagGroup</title>
<g id="a_TagGroup"><a xlink:title="TagGroup&#10;Represents collections of tags that can be applied to other entities in the system for organizational purposes.">
<ellipse fill="none" stroke="black" stroke-width="0" cx="1453.69" cy="-191.39" rx="265.74" ry="172.57"/>
<polygon fill="#1d71b8" stroke="transparent" points="1267.69,-251.39 1267.69,-311.39 1639.69,-311.39 1639.69,-251.39 1267.69,-251.39"/>
<polygon fill="none" stroke="#29235c" points="1267.69,-251.39 1267.69,-311.39 1639.69,-311.39 1639.69,-251.39 1267.69,-251.39"/>
<text text-anchor="start" x="1319.42" y="-272.59" font-family="Helvetica,sans-Serif" font-weight="bold" font-size="32.00" fill="#ffffff"> &#160;&#160;&#160;&#160;&#160;&#160;TagGroup &#160;&#160;&#160;&#160;&#160;&#160;</text>
<polygon fill="#e7e2dd" stroke="transparent" points="1267.69,-191.39 1267.69,-251.39 1639.69,-251.39 1639.69,-191.39 1267.69,-191.39"/>
<polygon fill="none" stroke="#29235c" points="1267.69,-191.39 1267.69,-251.39 1639.69,-251.39 1639.69,-191.39 1267.69,-191.39"/>
<text text-anchor="start" x="1278.53" y="-212.59" font-family="Helvetica,sans-Serif" font-weight="bold" font-size="32.00" fill="#29235c">tag_group_id</text>
<text text-anchor="start" x="1465.27" y="-212.59" font-family="Helvetica,sans-Serif" font-size="32.00" fill="#29235c"> &#160;&#160;&#160;</text>
<text text-anchor="start" x="1500.66" y="-212.59" font-family="Helvetica,sans-Serif" font-style="italic" font-size="32.00" fill="#29235c">unknown</text>
<polygon fill="#e7e2dd" stroke="transparent" points="1267.69,-131.39 1267.69,-191.39 1639.69,-191.39 1639.69,-131.39 1267.69,-131.39"/>
<polygon fill="none" stroke="#29235c" points="1267.69,-131.39 1267.69,-191.39 1639.69,-191.39 1639.69,-131.39 1267.69,-131.39"/>
<text text-anchor="start" x="1278.69" y="-151.59" font-family="Helvetica,sans-Serif" font-size="32.00" fill="#29235c">name &#160;&#160;&#160;</text>
<text text-anchor="start" x="1550.46" y="-152.59" font-family="Helvetica,sans-Serif" font-style="italic" font-size="32.00" fill="#29235c">string</text>
<polygon fill="#e7e2dd" stroke="transparent" points="1267.69,-71.39 1267.69,-131.39 1639.69,-131.39 1639.69,-71.39 1267.69,-71.39"/>
<polygon fill="none" stroke="#29235c" points="1267.69,-71.39 1267.69,-131.39 1639.69,-131.39 1639.69,-71.39 1267.69,-71.39"/>
<text text-anchor="start" x="1278.69" y="-91.59" font-family="Helvetica,sans-Serif" font-size="32.00" fill="#29235c">description &#160;&#160;&#160;</text>
<text text-anchor="start" x="1550.46" y="-92.59" font-family="Helvetica,sans-Serif" font-style="italic" font-size="32.00" fill="#29235c">string</text>
<polygon fill="none" stroke="#29235c" stroke-width="2" points="1266.69,-70.39 1266.69,-312.39 1640.69,-312.39 1640.69,-70.39 1266.69,-70.39"/>
</a>
</g>
</g>
<!-- Tags -->
<g id="Tags" class="node">
<title>Tags</title>
<g id="a_Tags"><a xlink:title="Tags&#10;Individual labels or identifiers that can be applied to data points for sorting, searching, and categorization purposes.">
<ellipse fill="none" stroke="black" stroke-width="0" cx="820.18" cy="-257.39" rx="286.26" ry="257.27"/>
<polygon fill="#1d71b8" stroke="transparent" points="620.18,-377.39 620.18,-437.39 1021.18,-437.39 1021.18,-377.39 620.18,-377.39"/>
<polygon fill="none" stroke="#29235c" points="620.18,-377.39 620.18,-437.39 1021.18,-437.39 1021.18,-377.39 620.18,-377.39"/>
<text text-anchor="start" x="722.87" y="-398.59" font-family="Helvetica,sans-Serif" font-weight="bold" font-size="32.00" fill="#ffffff"> &#160;&#160;&#160;&#160;&#160;&#160;Tags &#160;&#160;&#160;&#160;&#160;&#160;</text>
<polygon fill="#e7e2dd" stroke="transparent" points="620.18,-317.39 620.18,-377.39 1021.18,-377.39 1021.18,-317.39 620.18,-317.39"/>
<polygon fill="none" stroke="#29235c" points="620.18,-317.39 620.18,-377.39 1021.18,-377.39 1021.18,-317.39 620.18,-317.39"/>
<text text-anchor="start" x="631.18" y="-338.59" font-family="Helvetica,sans-Serif" font-weight="bold" font-size="32.00" fill="#29235c">tag_id</text>
<text text-anchor="start" x="718.33" y="-338.59" font-family="Helvetica,sans-Serif" font-size="32.00" fill="#29235c"> &#160;&#160;&#160;</text>
<text text-anchor="start" x="882.14" y="-338.59" font-family="Helvetica,sans-Serif" font-style="italic" font-size="32.00" fill="#29235c">unknown</text>
<polygon fill="#e7e2dd" stroke="transparent" points="620.18,-257.39 620.18,-317.39 1021.18,-317.39 1021.18,-257.39 620.18,-257.39"/>
<polygon fill="none" stroke="#29235c" points="620.18,-257.39 620.18,-317.39 1021.18,-317.39 1021.18,-257.39 620.18,-257.39"/>
<text text-anchor="start" x="631.18" y="-277.59" font-family="Helvetica,sans-Serif" font-size="32.00" fill="#29235c">name &#160;&#160;&#160;</text>
<text text-anchor="start" x="931.96" y="-278.59" font-family="Helvetica,sans-Serif" font-style="italic" font-size="32.00" fill="#29235c">string</text>
<polygon fill="#e7e2dd" stroke="transparent" points="620.18,-197.39 620.18,-257.39 1021.18,-257.39 1021.18,-197.39 620.18,-197.39"/>
<polygon fill="none" stroke="#29235c" points="620.18,-197.39 620.18,-257.39 1021.18,-257.39 1021.18,-197.39 620.18,-197.39"/>
<text text-anchor="start" x="631.18" y="-217.59" font-family="Helvetica,sans-Serif" font-size="32.00" fill="#29235c">tag_group_id &#160;&#160;&#160;</text>
<text text-anchor="start" x="882.14" y="-218.59" font-family="Helvetica,sans-Serif" font-style="italic" font-size="32.00" fill="#29235c">unknown</text>
<polygon fill="#e7e2dd" stroke="transparent" points="620.18,-137.39 620.18,-197.39 1021.18,-197.39 1021.18,-137.39 620.18,-137.39"/>
<polygon fill="none" stroke="#29235c" points="620.18,-137.39 620.18,-197.39 1021.18,-197.39 1021.18,-137.39 620.18,-137.39"/>
<text text-anchor="start" x="631.18" y="-157.59" font-family="Helvetica,sans-Serif" font-size="32.00" fill="#29235c">description &#160;&#160;&#160;</text>
<text text-anchor="start" x="931.96" y="-158.59" font-family="Helvetica,sans-Serif" font-style="italic" font-size="32.00" fill="#29235c">string</text>
<polygon fill="#e7e2dd" stroke="transparent" points="620.18,-77.39 620.18,-137.39 1021.18,-137.39 1021.18,-77.39 620.18,-77.39"/>
<polygon fill="none" stroke="#29235c" points="620.18,-77.39 620.18,-137.39 1021.18,-137.39 1021.18,-77.39 620.18,-77.39"/>
<text text-anchor="start" x="630.74" y="-97.59" font-family="Helvetica,sans-Serif" font-size="32.00" fill="#29235c">additional_attributes &#160;&#160;&#160;</text>
<text text-anchor="start" x="951.84" y="-98.59" font-family="Helvetica,sans-Serif" font-style="italic" font-size="32.00" fill="#29235c">json</text>
<polygon fill="none" stroke="#29235c" stroke-width="2" points="618.68,-76.39 618.68,-438.39 1021.68,-438.39 1021.68,-76.39 618.68,-76.39"/>
</a>
</g>
</g>
<!-- Tags&#45;&gt;TagGroup -->
<!-- Tags&#45;&gt;TagGroup -->
<g id="edge2" class="edge">
<title>Tags:e&#45;&gt;TagGroup:w</title>
<path fill="none" stroke="#29235c" stroke-width="3" d="M1022.18,-227.39C1127.38,-227.39 1156.15,-221.77 1256.43,-221.41"/>
<polygon fill="#29235c" stroke="#29235c" stroke-width="3" points="1256.69,-224.9 1266.69,-221.39 1256.68,-217.9 1256.69,-224.9"/>
<text text-anchor="middle" x="1257.79" y="-192.59" font-family="Helvetica,sans-Serif" font-size="32.00" fill="#29235c">1</text>
<text text-anchor="middle" x="1015.96" y="-198.59" font-family="Helvetica,sans-Serif" font-size="32.00" fill="#29235c">*</text>
</g>
<!-- TagMapping -->
<g id="TagMapping" class="node">
<title>TagMapping</title>
<g id="a_TagMapping"><a xlink:title="TagMapping&#10;A many&#45;to&#45;many relationship table that maps tags to addresses, allowing an address to have multiple tags and a tag to be applied to multiple addresses.">
<ellipse fill="none" stroke="black" stroke-width="0" cx="231.93" cy="-862.39" rx="231.86" ry="130.22"/>
<polygon fill="#1d71b8" stroke="transparent" points="69.93,-892.39 69.93,-952.39 393.93,-952.39 393.93,-892.39 69.93,-892.39"/>
<polygon fill="none" stroke="#29235c" points="69.93,-892.39 69.93,-952.39 393.93,-952.39 393.93,-892.39 69.93,-892.39"/>
<text text-anchor="start" x="80.77" y="-913.59" font-family="Helvetica,sans-Serif" font-weight="bold" font-size="32.00" fill="#ffffff"> &#160;&#160;&#160;&#160;&#160;&#160;TagMapping &#160;&#160;&#160;&#160;&#160;&#160;</text>
<polygon fill="#e7e2dd" stroke="transparent" points="69.93,-832.39 69.93,-892.39 393.93,-892.39 393.93,-832.39 69.93,-832.39"/>
<polygon fill="none" stroke="#29235c" points="69.93,-832.39 69.93,-892.39 393.93,-892.39 393.93,-832.39 69.93,-832.39"/>
<text text-anchor="start" x="80.93" y="-852.59" font-family="Helvetica,sans-Serif" font-size="32.00" fill="#29235c">address &#160;&#160;&#160;</text>
<text text-anchor="start" x="304.71" y="-853.59" font-family="Helvetica,sans-Serif" font-style="italic" font-size="32.00" fill="#29235c">string</text>
<polygon fill="#e7e2dd" stroke="transparent" points="69.93,-772.39 69.93,-832.39 393.93,-832.39 393.93,-772.39 69.93,-772.39"/>
<polygon fill="none" stroke="#29235c" points="69.93,-772.39 69.93,-832.39 393.93,-832.39 393.93,-772.39 69.93,-772.39"/>
<text text-anchor="start" x="80.93" y="-792.59" font-family="Helvetica,sans-Serif" font-size="32.00" fill="#29235c">tag_id &#160;&#160;&#160;</text>
<text text-anchor="start" x="254.89" y="-793.59" font-family="Helvetica,sans-Serif" font-style="italic" font-size="32.00" fill="#29235c">unknown</text>
<polygon fill="none" stroke="#29235c" stroke-width="2" points="68.93,-771.39 68.93,-953.39 394.93,-953.39 394.93,-771.39 68.93,-771.39"/>
</a>
</g>
</g>
<!-- TagMapping&#45;&gt;Addresses -->
<!-- TagMapping&#45;&gt;Addresses -->
<g id="edge6" class="edge">
<title>TagMapping:e&#45;&gt;Addresses:w</title>
<path fill="none" stroke="#29235c" stroke-width="3" d="M394.93,-862.39C612.42,-862.39 381.68,-1303.28 585.16,-1317.06"/>
<polygon fill="#29235c" stroke="#29235c" stroke-width="3" points="585.07,-1320.56 595.18,-1317.39 585.3,-1313.56 585.07,-1320.56"/>
<text text-anchor="middle" x="586.29" y="-1326.99" font-family="Helvetica,sans-Serif" font-size="32.00" fill="#29235c">1</text>
<text text-anchor="middle" x="388.71" y="-871.99" font-family="Helvetica,sans-Serif" font-size="32.00" fill="#29235c">*</text>
</g>
<!-- TagMapping&#45;&gt;Tags -->
<!-- TagMapping&#45;&gt;Tags -->
<g id="edge4" class="edge">
<title>TagMapping:e&#45;&gt;Tags:w</title>
<path fill="none" stroke="#29235c" stroke-width="3" d="M394.93,-802.39C526.16,-802.39 439.77,-643.05 499.86,-526.39 542.02,-444.54 524.97,-354.35 609.01,-347.77"/>
<polygon fill="#29235c" stroke="#29235c" stroke-width="3" points="609.32,-351.26 619.18,-347.39 609.06,-344.27 609.32,-351.26"/>
<text text-anchor="middle" x="610.29" y="-356.99" font-family="Helvetica,sans-Serif" font-size="32.00" fill="#29235c">1</text>
<text text-anchor="middle" x="388.71" y="-811.99" font-family="Helvetica,sans-Serif" font-size="32.00" fill="#29235c">*</text>
</g>
</g>
</svg>
