<?xml version="1.0" encoding="UTF-8" standalone="no"?>
<!DOCTYPE svg PUBLIC "-//W3C//DTD SVG 1.1//EN"
 "http://www.w3.org/Graphics/SVG/1.1/DTD/svg11.dtd">
<!-- Generated by graphviz version 2.47.0 (20210316.0004)
 -->
<!-- Title: dbml Pages: 1 -->
<svg width="935pt" height="1153pt"
 viewBox="0.00 0.00 934.95 1152.63" xmlns="http://www.w3.org/2000/svg" xmlns:xlink="http://www.w3.org/1999/xlink">
<g id="graph0" class="graph" transform="scale(1 1) rotate(0) translate(4 1148.63)">
<title>dbml</title>
<!-- Projects -->
<g id="Projects" class="node">
<title>Projects</title>
<g id="a_Projects"><a xlink:title="Projects&#10;Information about specific projects (i.e. Uniswap), including project name, website link, and documentation.">
<ellipse fill="none" stroke="black" stroke-width="0" cx="237.59" cy="-342.24" rx="237.68" ry="342.48"/>
<polygon fill="#1d71b8" stroke="transparent" points="71.59,-522.24 71.59,-582.24 403.59,-582.24 403.59,-522.24 71.59,-522.24"/>
<polygon fill="none" stroke="#29235c" points="71.59,-522.24 71.59,-582.24 403.59,-582.24 403.59,-522.24 71.59,-522.24"/>
<text text-anchor="start" x="117.56" y="-543.44" font-family="Helvetica,sans-Serif" font-weight="bold" font-size="32.00" fill="#ffffff"> &#160;&#160;&#160;&#160;&#160;&#160;Projects &#160;&#160;&#160;&#160;&#160;&#160;</text>
<polygon fill="#e7e2dd" stroke="transparent" points="71.59,-462.24 71.59,-522.24 403.59,-522.24 403.59,-462.24 71.59,-462.24"/>
<polygon fill="none" stroke="#29235c" points="71.59,-462.24 71.59,-522.24 403.59,-522.24 403.59,-462.24 71.59,-462.24"/>
<text text-anchor="start" x="82.59" y="-483.44" font-family="Helvetica,sans-Serif" font-weight="bold" font-size="32.00" fill="#29235c">project_slug</text>
<text text-anchor="start" x="255.07" y="-483.44" font-family="Helvetica,sans-Serif" font-size="32.00" fill="#29235c"> &#160;&#160;&#160;</text>
<text text-anchor="start" x="314.36" y="-483.44" font-family="Helvetica,sans-Serif" font-style="italic" font-size="32.00" fill="#29235c">string</text>
<polygon fill="#e7e2dd" stroke="transparent" points="71.59,-402.24 71.59,-462.24 403.59,-462.24 403.59,-402.24 71.59,-402.24"/>
<polygon fill="none" stroke="#29235c" points="71.59,-402.24 71.59,-462.24 403.59,-462.24 403.59,-402.24 71.59,-402.24"/>
<text text-anchor="start" x="82.59" y="-422.44" font-family="Helvetica,sans-Serif" font-size="32.00" fill="#29235c">name &#160;&#160;&#160;</text>
<text text-anchor="start" x="314.36" y="-423.44" font-family="Helvetica,sans-Serif" font-style="italic" font-size="32.00" fill="#29235c">string</text>
<polygon fill="#e7e2dd" stroke="transparent" points="71.59,-342.24 71.59,-402.24 403.59,-402.24 403.59,-342.24 71.59,-342.24"/>
<polygon fill="none" stroke="#29235c" points="71.59,-342.24 71.59,-402.24 403.59,-402.24 403.59,-342.24 71.59,-342.24"/>
<text text-anchor="start" x="82.59" y="-362.44" font-family="Helvetica,sans-Serif" font-size="32.00" fill="#29235c">github &#160;&#160;&#160;</text>
<text text-anchor="start" x="314.36" y="-363.44" font-family="Helvetica,sans-Serif" font-style="italic" font-size="32.00" fill="#29235c">string</text>
<polygon fill="#e7e2dd" stroke="transparent" points="71.59,-282.24 71.59,-342.24 403.59,-342.24 403.59,-282.24 71.59,-282.24"/>
<polygon fill="none" stroke="#29235c" points="71.59,-282.24 71.59,-342.24 403.59,-342.24 403.59,-282.24 71.59,-282.24"/>
<text text-anchor="start" x="82.59" y="-302.44" font-family="Helvetica,sans-Serif" font-size="32.00" fill="#29235c">website &#160;&#160;&#160;</text>
<text text-anchor="start" x="314.36" y="-303.44" font-family="Helvetica,sans-Serif" font-style="italic" font-size="32.00" fill="#29235c">string</text>
<polygon fill="#e7e2dd" stroke="transparent" points="71.59,-222.24 71.59,-282.24 403.59,-282.24 403.59,-222.24 71.59,-222.24"/>
<polygon fill="none" stroke="#29235c" points="71.59,-222.24 71.59,-282.24 403.59,-282.24 403.59,-222.24 71.59,-222.24"/>
<text text-anchor="start" x="82.59" y="-242.44" font-family="Helvetica,sans-Serif" font-size="32.00" fill="#29235c">docs &#160;&#160;&#160;</text>
<text text-anchor="start" x="314.36" y="-243.44" font-family="Helvetica,sans-Serif" font-style="italic" font-size="32.00" fill="#29235c">string</text>
<polygon fill="#e7e2dd" stroke="transparent" points="71.59,-162.24 71.59,-222.24 403.59,-222.24 403.59,-162.24 71.59,-162.24"/>
<polygon fill="none" stroke="#29235c" points="71.59,-162.24 71.59,-222.24 403.59,-222.24 403.59,-162.24 71.59,-162.24"/>
<text text-anchor="start" x="82.59" y="-182.44" font-family="Helvetica,sans-Serif" font-size="32.00" fill="#29235c">oss_slug &#160;&#160;&#160;</text>
<text text-anchor="start" x="314.36" y="-183.44" font-family="Helvetica,sans-Serif" font-style="italic" font-size="32.00" fill="#29235c">string</text>
<polygon fill="#e7e2dd" stroke="transparent" points="71.59,-102.24 71.59,-162.24 403.59,-162.24 403.59,-102.24 71.59,-102.24"/>
<polygon fill="none" stroke="#29235c" points="71.59,-102.24 71.59,-162.24 403.59,-162.24 403.59,-102.24 71.59,-102.24"/>
<text text-anchor="start" x="82.11" y="-122.44" font-family="Helvetica,sans-Serif" font-size="32.00" fill="#29235c">token_symbol &#160;&#160;&#160;</text>
<text text-anchor="start" x="314.48" y="-123.44" font-family="Helvetica,sans-Serif" font-style="italic" font-size="32.00" fill="#29235c">string</text>
<polygon fill="none" stroke="#29235c" stroke-width="2" points="70.59,-101.24 70.59,-583.24 404.59,-583.24 404.59,-101.24 70.59,-101.24"/>
</a>
</g>
</g>
<!-- Tags -->
<g id="Tags" class="node">
<title>Tags</title>
<g id="a_Tags"><a xlink:title="Tags&#10;Individual labels or identifiers that can be applied to data points for sorting, searching, and categorization purposes.">
<ellipse fill="none" stroke="black" stroke-width="0" cx="719.07" cy="-887.24" rx="207.78" ry="257.27"/>
<polygon fill="#1d71b8" stroke="transparent" points="574.07,-1007.24 574.07,-1067.24 864.07,-1067.24 864.07,-1007.24 574.07,-1007.24"/>
<polygon fill="none" stroke="#29235c" points="574.07,-1007.24 574.07,-1067.24 864.07,-1067.24 864.07,-1007.24 574.07,-1007.24"/>
<text text-anchor="start" x="621.25" y="-1028.44" font-family="Helvetica,sans-Serif" font-weight="bold" font-size="32.00" fill="#ffffff"> &#160;&#160;&#160;&#160;&#160;&#160;Tags &#160;&#160;&#160;&#160;&#160;&#160;</text>
<polygon fill="#e7e2dd" stroke="transparent" points="574.07,-947.24 574.07,-1007.24 864.07,-1007.24 864.07,-947.24 574.07,-947.24"/>
<polygon fill="none" stroke="#29235c" points="574.07,-947.24 574.07,-1007.24 864.07,-1007.24 864.07,-947.24 574.07,-947.24"/>
<text text-anchor="start" x="585.07" y="-968.44" font-family="Helvetica,sans-Serif" font-weight="bold" font-size="32.00" fill="#29235c">tag_id</text>
<text text-anchor="start" x="672.21" y="-968.44" font-family="Helvetica,sans-Serif" font-size="32.00" fill="#29235c"> &#160;&#160;&#160;</text>
<text text-anchor="start" x="774.84" y="-968.44" font-family="Helvetica,sans-Serif" font-style="italic" font-size="32.00" fill="#29235c">string</text>
<polygon fill="#e7e2dd" stroke="transparent" points="574.07,-887.24 574.07,-947.24 864.07,-947.24 864.07,-887.24 574.07,-887.24"/>
<polygon fill="none" stroke="#29235c" points="574.07,-887.24 574.07,-947.24 864.07,-947.24 864.07,-887.24 574.07,-887.24"/>
<text text-anchor="start" x="585.07" y="-907.44" font-family="Helvetica,sans-Serif" font-size="32.00" fill="#29235c">name &#160;&#160;&#160;</text>
<text text-anchor="start" x="774.84" y="-908.44" font-family="Helvetica,sans-Serif" font-style="italic" font-size="32.00" fill="#29235c">string</text>
<polygon fill="#e7e2dd" stroke="transparent" points="574.07,-827.24 574.07,-887.24 864.07,-887.24 864.07,-827.24 574.07,-827.24"/>
<polygon fill="none" stroke="#29235c" points="574.07,-827.24 574.07,-887.24 864.07,-887.24 864.07,-827.24 574.07,-827.24"/>
<text text-anchor="start" x="584.93" y="-847.44" font-family="Helvetica,sans-Serif" font-size="32.00" fill="#29235c">description &#160;&#160;&#160;</text>
<text text-anchor="start" x="774.95" y="-848.44" font-family="Helvetica,sans-Serif" font-style="italic" font-size="32.00" fill="#29235c">string</text>
<polygon fill="#e7e2dd" stroke="transparent" points="574.07,-767.24 574.07,-827.24 864.07,-827.24 864.07,-767.24 574.07,-767.24"/>
<polygon fill="none" stroke="#29235c" points="574.07,-767.24 574.07,-827.24 864.07,-827.24 864.07,-767.24 574.07,-767.24"/>
<text text-anchor="start" x="585.07" y="-787.44" font-family="Helvetica,sans-Serif" font-size="32.00" fill="#29235c">create &#160;&#160;&#160;</text>
<text text-anchor="start" x="774.84" y="-788.44" font-family="Helvetica,sans-Serif" font-style="italic" font-size="32.00" fill="#29235c">string</text>
<polygon fill="#e7e2dd" stroke="transparent" points="574.07,-707.24 574.07,-767.24 864.07,-767.24 864.07,-707.24 574.07,-707.24"/>
<polygon fill="none" stroke="#29235c" points="574.07,-707.24 574.07,-767.24 864.07,-767.24 864.07,-707.24 574.07,-707.24"/>
<text text-anchor="start" x="585.07" y="-727.44" font-family="Helvetica,sans-Serif" font-size="32.00" fill="#29235c">value_set &#160;&#160;&#160;</text>
<text text-anchor="start" x="813.97" y="-728.44" font-family="Helvetica,sans-Serif" font-style="italic" font-size="32.00" fill="#29235c">list</text>
<polygon fill="none" stroke="#29235c" stroke-width="2" points="573.07,-706.24 573.07,-1068.24 865.07,-1068.24 865.07,-706.24 573.07,-706.24"/>
</a>
</g>
</g>
<!-- TagMapping -->
<g id="TagMapping" class="node">
<title>TagMapping</title>
<g id="a_TagMapping"><a xlink:title="TagMapping&#10;A many&#45;to&#45;many relationship table that maps tags to addresses, allowing an address to have multiple tags and a tag to be applied to multiple addresses.">
<ellipse fill="none" stroke="black" stroke-width="0" cx="237.59" cy="-917.24" rx="231.86" ry="214.92"/>
<polygon fill="#1d71b8" stroke="transparent" points="75.59,-1007.24 75.59,-1067.24 399.59,-1067.24 399.59,-1007.24 75.59,-1007.24"/>
<polygon fill="none" stroke="#29235c" points="75.59,-1007.24 75.59,-1067.24 399.59,-1067.24 399.59,-1007.24 75.59,-1007.24"/>
<text text-anchor="start" x="86.43" y="-1028.44" font-family="Helvetica,sans-Serif" font-weight="bold" font-size="32.00" fill="#ffffff"> &#160;&#160;&#160;&#160;&#160;&#160;TagMapping &#160;&#160;&#160;&#160;&#160;&#160;</text>
<polygon fill="#e7e2dd" stroke="transparent" points="75.59,-947.24 75.59,-1007.24 399.59,-1007.24 399.59,-947.24 75.59,-947.24"/>
<polygon fill="none" stroke="#29235c" points="75.59,-947.24 75.59,-1007.24 399.59,-1007.24 399.59,-947.24 75.59,-947.24"/>
<text text-anchor="start" x="86.59" y="-968.44" font-family="Helvetica,sans-Serif" font-weight="bold" font-size="32.00" fill="#29235c">address</text>
<text text-anchor="start" x="200.4" y="-968.44" font-family="Helvetica,sans-Serif" font-size="32.00" fill="#29235c"> &#160;&#160;&#160;</text>
<text text-anchor="start" x="310.36" y="-968.44" font-family="Helvetica,sans-Serif" font-style="italic" font-size="32.00" fill="#29235c">string</text>
<polygon fill="#e7e2dd" stroke="transparent" points="75.59,-887.24 75.59,-947.24 399.59,-947.24 399.59,-887.24 75.59,-887.24"/>
<polygon fill="none" stroke="#29235c" points="75.59,-887.24 75.59,-947.24 399.59,-947.24 399.59,-887.24 75.59,-887.24"/>
<text text-anchor="start" x="86.59" y="-908.44" font-family="Helvetica,sans-Serif" font-weight="bold" font-size="32.00" fill="#29235c">chain_id</text>
<text text-anchor="start" x="205.73" y="-908.44" font-family="Helvetica,sans-Serif" font-size="32.00" fill="#29235c"> &#160;&#160;&#160;</text>
<text text-anchor="start" x="310.36" y="-908.44" font-family="Helvetica,sans-Serif" font-style="italic" font-size="32.00" fill="#29235c">string</text>
<polygon fill="#e7e2dd" stroke="transparent" points="75.59,-827.24 75.59,-887.24 399.59,-887.24 399.59,-827.24 75.59,-827.24"/>
<polygon fill="none" stroke="#29235c" points="75.59,-827.24 75.59,-887.24 399.59,-887.24 399.59,-827.24 75.59,-827.24"/>
<text text-anchor="start" x="86.59" y="-848.44" font-family="Helvetica,sans-Serif" font-weight="bold" font-size="32.00" fill="#29235c">tag_id</text>
<text text-anchor="start" x="173.74" y="-848.44" font-family="Helvetica,sans-Serif" font-size="32.00" fill="#29235c"> &#160;&#160;&#160;</text>
<text text-anchor="start" x="310.36" y="-848.44" font-family="Helvetica,sans-Serif" font-style="italic" font-size="32.00" fill="#29235c">string</text>
<polygon fill="#e7e2dd" stroke="transparent" points="75.59,-767.24 75.59,-827.24 399.59,-827.24 399.59,-767.24 75.59,-767.24"/>
<polygon fill="none" stroke="#29235c" points="75.59,-767.24 75.59,-827.24 399.59,-827.24 399.59,-767.24 75.59,-767.24"/>
<text text-anchor="start" x="86.59" y="-787.44" font-family="Helvetica,sans-Serif" font-size="32.00" fill="#29235c">value &#160;&#160;&#160;</text>
<text text-anchor="start" x="310.36" y="-788.44" font-family="Helvetica,sans-Serif" font-style="italic" font-size="32.00" fill="#29235c">string</text>
<polygon fill="none" stroke="#29235c" stroke-width="2" points="74.59,-766.24 74.59,-1068.24 400.59,-1068.24 400.59,-766.24 74.59,-766.24"/>
</a>
</g>
</g>
<!-- TagMapping&#45;&gt;Tags -->
<!-- TagMapping&#45;&gt;Tags -->
<g id="edge2" class="edge">
<title>TagMapping:e&#45;&gt;Tags:w</title>
<path fill="none" stroke="#29235c" stroke-width="3" d="M400.59,-857.24C490.42,-857.24 480.61,-968.27 562.85,-976.73"/>
<polygon fill="#29235c" stroke="#29235c" stroke-width="3" points="562.9,-980.24 573.07,-977.24 563.25,-973.25 562.9,-980.24"/>
<text text-anchor="middle" x="581.96" y="-986.84" font-family="Helvetica,sans-Serif" font-size="32.00" fill="#29235c">1</text>
<text text-anchor="middle" x="394.37" y="-866.84" font-family="Helvetica,sans-Serif" font-size="32.00" fill="#29235c">*</text>
</g>
</g>
</svg>
