<?xml version="1.0" encoding="UTF-8" standalone="no"?>
<!DOCTYPE svg PUBLIC "-//W3C//DTD SVG 1.1//EN"
 "http://www.w3.org/Graphics/SVG/1.1/DTD/svg11.dtd">
<!-- Generated by graphviz version 2.47.0 (20210316.0004)
 -->
<!-- Title: dbml Pages: 1 -->
<svg width="996pt" height="692pt"
 viewBox="0.00 0.00 995.77 692.48" xmlns="http://www.w3.org/2000/svg" xmlns:xlink="http://www.w3.org/1999/xlink">
<g id="graph0" class="graph" transform="scale(1 1) rotate(0) translate(4 688.48)">
<title>dbml</title>
<!-- Tags -->
<g id="Tags" class="node">
<title>Tags</title>
<g id="a_Tags"><a xlink:title="Tags&#10;Individual tags or identifiers that can be applied to addresses for sorting, searching, and categorization purposes.">
<ellipse fill="none" stroke="black" stroke-width="0" cx="779.88" cy="-342.24" rx="207.78" ry="342.48"/>
<polygon fill="#1d71b8" stroke="transparent" points="634.88,-522.24 634.88,-582.24 924.88,-582.24 924.88,-522.24 634.88,-522.24"/>
<polygon fill="none" stroke="#29235c" points="634.88,-522.24 634.88,-582.24 924.88,-582.24 924.88,-522.24 634.88,-522.24"/>
<text text-anchor="start" x="682.06" y="-543.44" font-family="Helvetica,sans-Serif" font-weight="bold" font-size="32.00" fill="#ffffff"> &#160;&#160;&#160;&#160;&#160;&#160;Tags &#160;&#160;&#160;&#160;&#160;&#160;</text>
<polygon fill="#e7e2dd" stroke="transparent" points="634.88,-462.24 634.88,-522.24 924.88,-522.24 924.88,-462.24 634.88,-462.24"/>
<polygon fill="none" stroke="#29235c" points="634.88,-462.24 634.88,-522.24 924.88,-522.24 924.88,-462.24 634.88,-462.24"/>
<text text-anchor="start" x="645.88" y="-483.44" font-family="Helvetica,sans-Serif" font-weight="bold" font-size="32.00" fill="#29235c">tag_id</text>
<text text-anchor="start" x="733.03" y="-483.44" font-family="Helvetica,sans-Serif" font-size="32.00" fill="#29235c"> &#160;&#160;&#160;</text>
<text text-anchor="start" x="835.65" y="-483.44" font-family="Helvetica,sans-Serif" font-style="italic" font-size="32.00" fill="#29235c">string</text>
<polygon fill="#e7e2dd" stroke="transparent" points="634.88,-402.24 634.88,-462.24 924.88,-462.24 924.88,-402.24 634.88,-402.24"/>
<polygon fill="none" stroke="#29235c" points="634.88,-402.24 634.88,-462.24 924.88,-462.24 924.88,-402.24 634.88,-402.24"/>
<text text-anchor="start" x="645.88" y="-422.44" font-family="Helvetica,sans-Serif" font-size="32.00" fill="#29235c">name &#160;&#160;&#160;</text>
<text text-anchor="start" x="835.65" y="-423.44" font-family="Helvetica,sans-Serif" font-style="italic" font-size="32.00" fill="#29235c">string</text>
<polygon fill="#e7e2dd" stroke="transparent" points="634.88,-342.24 634.88,-402.24 924.88,-402.24 924.88,-342.24 634.88,-342.24"/>
<polygon fill="none" stroke="#29235c" points="634.88,-342.24 634.88,-402.24 924.88,-402.24 924.88,-342.24 634.88,-342.24"/>
<text text-anchor="start" x="645.75" y="-362.44" font-family="Helvetica,sans-Serif" font-size="32.00" fill="#29235c">description &#160;&#160;&#160;</text>
<text text-anchor="start" x="835.76" y="-363.44" font-family="Helvetica,sans-Serif" font-style="italic" font-size="32.00" fill="#29235c">string</text>
<polygon fill="#e7e2dd" stroke="transparent" points="634.88,-282.24 634.88,-342.24 924.88,-342.24 924.88,-282.24 634.88,-282.24"/>
<polygon fill="none" stroke="#29235c" points="634.88,-282.24 634.88,-342.24 924.88,-342.24 924.88,-282.24 634.88,-282.24"/>
<text text-anchor="start" x="645.88" y="-302.44" font-family="Helvetica,sans-Serif" font-size="32.00" fill="#29235c">type &#160;&#160;&#160;</text>
<text text-anchor="start" x="835.65" y="-303.44" font-family="Helvetica,sans-Serif" font-style="italic" font-size="32.00" fill="#29235c">string</text>
<polygon fill="#e7e2dd" stroke="transparent" points="634.88,-222.24 634.88,-282.24 924.88,-282.24 924.88,-222.24 634.88,-222.24"/>
<polygon fill="none" stroke="#29235c" points="634.88,-222.24 634.88,-282.24 924.88,-282.24 924.88,-222.24 634.88,-222.24"/>
<text text-anchor="start" x="645.88" y="-242.44" font-family="Helvetica,sans-Serif" font-size="32.00" fill="#29235c">value_set &#160;&#160;&#160;</text>
<text text-anchor="start" x="874.78" y="-243.44" font-family="Helvetica,sans-Serif" font-style="italic" font-size="32.00" fill="#29235c">list</text>
<polygon fill="#e7e2dd" stroke="transparent" points="634.88,-162.24 634.88,-222.24 924.88,-222.24 924.88,-162.24 634.88,-162.24"/>
<polygon fill="none" stroke="#29235c" points="634.88,-162.24 634.88,-222.24 924.88,-222.24 924.88,-162.24 634.88,-162.24"/>
<text text-anchor="start" x="645.88" y="-182.44" font-family="Helvetica,sans-Serif" font-size="32.00" fill="#29235c">creator &#160;&#160;&#160;</text>
<text text-anchor="start" x="835.65" y="-183.44" font-family="Helvetica,sans-Serif" font-style="italic" font-size="32.00" fill="#29235c">string</text>
<polygon fill="#e7e2dd" stroke="transparent" points="634.88,-102.24 634.88,-162.24 924.88,-162.24 924.88,-102.24 634.88,-102.24"/>
<polygon fill="none" stroke="#29235c" points="634.88,-102.24 634.88,-162.24 924.88,-162.24 924.88,-102.24 634.88,-102.24"/>
<text text-anchor="start" x="645.88" y="-122.44" font-family="Helvetica,sans-Serif" font-size="32.00" fill="#29235c">version &#160;&#160;&#160;</text>
<text text-anchor="start" x="853.41" y="-123.44" font-family="Helvetica,sans-Serif" font-style="italic" font-size="32.00" fill="#29235c">float</text>
<polygon fill="none" stroke="#29235c" stroke-width="2" points="633.88,-101.24 633.88,-583.24 925.88,-583.24 925.88,-101.24 633.88,-101.24"/>
</a>
</g>
</g>
<!-- Framework -->
<g id="Framework" class="node">
<title>Framework</title>
<g id="a_Framework"><a xlink:title="Framework&#10;A many&#45;to&#45;many relationship table that maps tags to addresses, allowing an address to have multiple tag_ids and a tag_id to be applied to multiple addresses.">
<ellipse fill="none" stroke="black" stroke-width="0" cx="267.99" cy="-432.24" rx="267.99" ry="214.92"/>
<polygon fill="#1d71b8" stroke="transparent" points="80.99,-522.24 80.99,-582.24 455.99,-582.24 455.99,-522.24 80.99,-522.24"/>
<polygon fill="none" stroke="#29235c" points="80.99,-522.24 80.99,-582.24 455.99,-582.24 455.99,-522.24 80.99,-522.24"/>
<text text-anchor="start" x="91.58" y="-543.44" font-family="Helvetica,sans-Serif" font-weight="bold" font-size="32.00" fill="#ffffff"> &#160;&#160;&#160;&#160;&#160;&#160;Framework &#160;&#160;&#160;&#160;&#160;&#160;</text>
<polygon fill="#e7e2dd" stroke="transparent" points="80.99,-462.24 80.99,-522.24 455.99,-522.24 455.99,-462.24 80.99,-462.24"/>
<polygon fill="none" stroke="#29235c" points="80.99,-462.24 80.99,-522.24 455.99,-522.24 455.99,-462.24 80.99,-462.24"/>
<text text-anchor="start" x="91.99" y="-483.44" font-family="Helvetica,sans-Serif" font-weight="bold" font-size="32.00" fill="#29235c">address</text>
<text text-anchor="start" x="205.8" y="-483.44" font-family="Helvetica,sans-Serif" font-size="32.00" fill="#29235c"> &#160;&#160;&#160;</text>
<text text-anchor="start" x="366.77" y="-483.44" font-family="Helvetica,sans-Serif" font-style="italic" font-size="32.00" fill="#29235c">string</text>
<polygon fill="#e7e2dd" stroke="transparent" points="80.99,-402.24 80.99,-462.24 455.99,-462.24 455.99,-402.24 80.99,-402.24"/>
<polygon fill="none" stroke="#29235c" points="80.99,-402.24 80.99,-462.24 455.99,-462.24 455.99,-402.24 80.99,-402.24"/>
<text text-anchor="start" x="91.99" y="-423.44" font-family="Helvetica,sans-Serif" font-weight="bold" font-size="32.00" fill="#29235c">chain_id</text>
<text text-anchor="start" x="211.14" y="-423.44" font-family="Helvetica,sans-Serif" font-size="32.00" fill="#29235c"> &#160;&#160;&#160;</text>
<text text-anchor="start" x="366.77" y="-423.44" font-family="Helvetica,sans-Serif" font-style="italic" font-size="32.00" fill="#29235c">string</text>
<polygon fill="#e7e2dd" stroke="transparent" points="80.99,-342.24 80.99,-402.24 455.99,-402.24 455.99,-342.24 80.99,-342.24"/>
<polygon fill="none" stroke="#29235c" points="80.99,-342.24 80.99,-402.24 455.99,-402.24 455.99,-342.24 80.99,-342.24"/>
<text text-anchor="start" x="91.99" y="-363.44" font-family="Helvetica,sans-Serif" font-weight="bold" font-size="32.00" fill="#29235c">tag_id</text>
<text text-anchor="start" x="179.14" y="-363.44" font-family="Helvetica,sans-Serif" font-size="32.00" fill="#29235c"> &#160;&#160;&#160;</text>
<text text-anchor="start" x="366.77" y="-363.44" font-family="Helvetica,sans-Serif" font-style="italic" font-size="32.00" fill="#29235c">string</text>
<polygon fill="#e7e2dd" stroke="transparent" points="80.99,-282.24 80.99,-342.24 455.99,-342.24 455.99,-282.24 80.99,-282.24"/>
<polygon fill="none" stroke="#29235c" points="80.99,-282.24 80.99,-342.24 455.99,-342.24 455.99,-282.24 80.99,-282.24"/>
<text text-anchor="start" x="91.99" y="-302.44" font-family="Helvetica,sans-Serif" font-size="32.00" fill="#29235c">value &#160;&#160;&#160;</text>
<text text-anchor="start" x="366.77" y="-303.44" font-family="Helvetica,sans-Serif" font-style="italic" font-size="32.00" fill="#29235c">string</text>
<polygon fill="none" stroke="#29235c" stroke-width="2" points="79.49,-281.24 79.49,-583.24 456.49,-583.24 456.49,-281.24 79.49,-281.24"/>
</a>
</g>
</g>
<!-- Framework&#45;&gt;Tags -->
<!-- Framework&#45;&gt;Tags -->
<g id="edge2" class="edge">
<title>Framework:e&#45;&gt;Tags:w</title>
<path fill="none" stroke="#29235c" stroke-width="3" d="M456.99,-372.24C548.47,-372.24 539.7,-483.5 623.74,-491.76"/>
<polygon fill="#29235c" stroke="#29235c" stroke-width="3" points="623.72,-495.26 633.88,-492.24 624.05,-488.27 623.72,-495.26"/>
<text text-anchor="middle" x="642.77" y="-501.84" font-family="Helvetica,sans-Serif" font-size="32.00" fill="#29235c">1</text>
<text text-anchor="middle" x="463.22" y="-343.44" font-family="Helvetica,sans-Serif" font-size="32.00" fill="#29235c">*</text>
</g>
</g>
</svg>
