<?xml version="1.0" encoding="UTF-8" standalone="no"?>
<!DOCTYPE svg PUBLIC "-//W3C//DTD SVG 1.1//EN"
 "http://www.w3.org/Graphics/SVG/1.1/DTD/svg11.dtd">
<!-- Generated by graphviz version 2.47.0 (20210316.0004)
 -->
<!-- Title: dbml Pages: 1 -->
<svg width="924pt" height="692pt"
 viewBox="0.00 0.00 923.64 692.48" xmlns="http://www.w3.org/2000/svg" xmlns:xlink="http://www.w3.org/1999/xlink">
<g id="graph0" class="graph" transform="scale(1 1) rotate(0) translate(4 688.48)">
<title>dbml</title>
<!-- Tags -->
<g id="Tags" class="node">
<title>Tags</title>
<g id="a_Tags"><a xlink:title="Tags&#10;Individual tags or identifiers that can be applied to addresses for sorting, searching, and categorization purposes.">
<ellipse fill="none" stroke="black" stroke-width="0" cx="707.75" cy="-342.24" rx="207.78" ry="342.48"/>
<polygon fill="#1d71b8" stroke="transparent" points="562.75,-522.24 562.75,-582.24 852.75,-582.24 852.75,-522.24 562.75,-522.24"/>
<polygon fill="none" stroke="#29235c" points="562.75,-522.24 562.75,-582.24 852.75,-582.24 852.75,-522.24 562.75,-522.24"/>
<text text-anchor="start" x="609.94" y="-543.44" font-family="Helvetica,sans-Serif" font-weight="bold" font-size="32.00" fill="#ffffff"> &#160;&#160;&#160;&#160;&#160;&#160;Tags &#160;&#160;&#160;&#160;&#160;&#160;</text>
<polygon fill="#e7e2dd" stroke="transparent" points="562.75,-462.24 562.75,-522.24 852.75,-522.24 852.75,-462.24 562.75,-462.24"/>
<polygon fill="none" stroke="#29235c" points="562.75,-462.24 562.75,-522.24 852.75,-522.24 852.75,-462.24 562.75,-462.24"/>
<text text-anchor="start" x="573.75" y="-483.44" font-family="Helvetica,sans-Serif" font-weight="bold" font-size="32.00" fill="#29235c">tag_id</text>
<text text-anchor="start" x="660.9" y="-483.44" font-family="Helvetica,sans-Serif" font-size="32.00" fill="#29235c"> &#160;&#160;&#160;</text>
<text text-anchor="start" x="763.53" y="-483.44" font-family="Helvetica,sans-Serif" font-style="italic" font-size="32.00" fill="#29235c">string</text>
<polygon fill="#e7e2dd" stroke="transparent" points="562.75,-402.24 562.75,-462.24 852.75,-462.24 852.75,-402.24 562.75,-402.24"/>
<polygon fill="none" stroke="#29235c" points="562.75,-402.24 562.75,-462.24 852.75,-462.24 852.75,-402.24 562.75,-402.24"/>
<text text-anchor="start" x="573.75" y="-422.44" font-family="Helvetica,sans-Serif" font-size="32.00" fill="#29235c">name &#160;&#160;&#160;</text>
<text text-anchor="start" x="763.53" y="-423.44" font-family="Helvetica,sans-Serif" font-style="italic" font-size="32.00" fill="#29235c">string</text>
<polygon fill="#e7e2dd" stroke="transparent" points="562.75,-342.24 562.75,-402.24 852.75,-402.24 852.75,-342.24 562.75,-342.24"/>
<polygon fill="none" stroke="#29235c" points="562.75,-342.24 562.75,-402.24 852.75,-402.24 852.75,-342.24 562.75,-342.24"/>
<text text-anchor="start" x="573.62" y="-362.44" font-family="Helvetica,sans-Serif" font-size="32.00" fill="#29235c">description &#160;&#160;&#160;</text>
<text text-anchor="start" x="763.64" y="-363.44" font-family="Helvetica,sans-Serif" font-style="italic" font-size="32.00" fill="#29235c">string</text>
<polygon fill="#e7e2dd" stroke="transparent" points="562.75,-282.24 562.75,-342.24 852.75,-342.24 852.75,-282.24 562.75,-282.24"/>
<polygon fill="none" stroke="#29235c" points="562.75,-282.24 562.75,-342.24 852.75,-342.24 852.75,-282.24 562.75,-282.24"/>
<text text-anchor="start" x="573.75" y="-302.44" font-family="Helvetica,sans-Serif" font-size="32.00" fill="#29235c">type &#160;&#160;&#160;</text>
<text text-anchor="start" x="763.53" y="-303.44" font-family="Helvetica,sans-Serif" font-style="italic" font-size="32.00" fill="#29235c">string</text>
<polygon fill="#e7e2dd" stroke="transparent" points="562.75,-222.24 562.75,-282.24 852.75,-282.24 852.75,-222.24 562.75,-222.24"/>
<polygon fill="none" stroke="#29235c" points="562.75,-222.24 562.75,-282.24 852.75,-282.24 852.75,-222.24 562.75,-222.24"/>
<text text-anchor="start" x="573.75" y="-242.44" font-family="Helvetica,sans-Serif" font-size="32.00" fill="#29235c">value_set &#160;&#160;&#160;</text>
<text text-anchor="start" x="802.66" y="-243.44" font-family="Helvetica,sans-Serif" font-style="italic" font-size="32.00" fill="#29235c">list</text>
<polygon fill="#e7e2dd" stroke="transparent" points="562.75,-162.24 562.75,-222.24 852.75,-222.24 852.75,-162.24 562.75,-162.24"/>
<polygon fill="none" stroke="#29235c" points="562.75,-162.24 562.75,-222.24 852.75,-222.24 852.75,-162.24 562.75,-162.24"/>
<text text-anchor="start" x="573.75" y="-182.44" font-family="Helvetica,sans-Serif" font-size="32.00" fill="#29235c">creator &#160;&#160;&#160;</text>
<text text-anchor="start" x="763.53" y="-183.44" font-family="Helvetica,sans-Serif" font-style="italic" font-size="32.00" fill="#29235c">string</text>
<polygon fill="#e7e2dd" stroke="transparent" points="562.75,-102.24 562.75,-162.24 852.75,-162.24 852.75,-102.24 562.75,-102.24"/>
<polygon fill="none" stroke="#29235c" points="562.75,-102.24 562.75,-162.24 852.75,-162.24 852.75,-102.24 562.75,-102.24"/>
<text text-anchor="start" x="573.75" y="-122.44" font-family="Helvetica,sans-Serif" font-size="32.00" fill="#29235c">version &#160;&#160;&#160;</text>
<text text-anchor="start" x="781.29" y="-123.44" font-family="Helvetica,sans-Serif" font-style="italic" font-size="32.00" fill="#29235c">float</text>
<polygon fill="none" stroke="#29235c" stroke-width="2" points="561.75,-101.24 561.75,-583.24 853.75,-583.24 853.75,-101.24 561.75,-101.24"/>
</a>
</g>
</g>
<!-- TagMapping -->
<g id="TagMapping" class="node">
<title>TagMapping</title>
<g id="a_TagMapping"><a xlink:title="TagMapping&#10;A many&#45;to&#45;many relationship table that maps tags to addresses, allowing an address to have multiple tags and a tag to be applied to multiple addresses.">
<ellipse fill="none" stroke="black" stroke-width="0" cx="231.93" cy="-432.24" rx="231.86" ry="214.92"/>
<polygon fill="#1d71b8" stroke="transparent" points="69.93,-522.24 69.93,-582.24 393.93,-582.24 393.93,-522.24 69.93,-522.24"/>
<polygon fill="none" stroke="#29235c" points="69.93,-522.24 69.93,-582.24 393.93,-582.24 393.93,-522.24 69.93,-522.24"/>
<text text-anchor="start" x="80.77" y="-543.44" font-family="Helvetica,sans-Serif" font-weight="bold" font-size="32.00" fill="#ffffff"> &#160;&#160;&#160;&#160;&#160;&#160;TagMapping &#160;&#160;&#160;&#160;&#160;&#160;</text>
<polygon fill="#e7e2dd" stroke="transparent" points="69.93,-462.24 69.93,-522.24 393.93,-522.24 393.93,-462.24 69.93,-462.24"/>
<polygon fill="none" stroke="#29235c" points="69.93,-462.24 69.93,-522.24 393.93,-522.24 393.93,-462.24 69.93,-462.24"/>
<text text-anchor="start" x="80.93" y="-483.44" font-family="Helvetica,sans-Serif" font-weight="bold" font-size="32.00" fill="#29235c">address</text>
<text text-anchor="start" x="194.74" y="-483.44" font-family="Helvetica,sans-Serif" font-size="32.00" fill="#29235c"> &#160;&#160;&#160;</text>
<text text-anchor="start" x="304.71" y="-483.44" font-family="Helvetica,sans-Serif" font-style="italic" font-size="32.00" fill="#29235c">string</text>
<polygon fill="#e7e2dd" stroke="transparent" points="69.93,-402.24 69.93,-462.24 393.93,-462.24 393.93,-402.24 69.93,-402.24"/>
<polygon fill="none" stroke="#29235c" points="69.93,-402.24 69.93,-462.24 393.93,-462.24 393.93,-402.24 69.93,-402.24"/>
<text text-anchor="start" x="80.93" y="-423.44" font-family="Helvetica,sans-Serif" font-weight="bold" font-size="32.00" fill="#29235c">chain_id</text>
<text text-anchor="start" x="200.08" y="-423.44" font-family="Helvetica,sans-Serif" font-size="32.00" fill="#29235c"> &#160;&#160;&#160;</text>
<text text-anchor="start" x="304.71" y="-423.44" font-family="Helvetica,sans-Serif" font-style="italic" font-size="32.00" fill="#29235c">string</text>
<polygon fill="#e7e2dd" stroke="transparent" points="69.93,-342.24 69.93,-402.24 393.93,-402.24 393.93,-342.24 69.93,-342.24"/>
<polygon fill="none" stroke="#29235c" points="69.93,-342.24 69.93,-402.24 393.93,-402.24 393.93,-342.24 69.93,-342.24"/>
<text text-anchor="start" x="80.93" y="-363.44" font-family="Helvetica,sans-Serif" font-weight="bold" font-size="32.00" fill="#29235c">tag_id</text>
<text text-anchor="start" x="168.08" y="-363.44" font-family="Helvetica,sans-Serif" font-size="32.00" fill="#29235c"> &#160;&#160;&#160;</text>
<text text-anchor="start" x="304.71" y="-363.44" font-family="Helvetica,sans-Serif" font-style="italic" font-size="32.00" fill="#29235c">string</text>
<polygon fill="#e7e2dd" stroke="transparent" points="69.93,-282.24 69.93,-342.24 393.93,-342.24 393.93,-282.24 69.93,-282.24"/>
<polygon fill="none" stroke="#29235c" points="69.93,-282.24 69.93,-342.24 393.93,-342.24 393.93,-282.24 69.93,-282.24"/>
<text text-anchor="start" x="80.93" y="-302.44" font-family="Helvetica,sans-Serif" font-size="32.00" fill="#29235c">value &#160;&#160;&#160;</text>
<text text-anchor="start" x="304.71" y="-303.44" font-family="Helvetica,sans-Serif" font-style="italic" font-size="32.00" fill="#29235c">string</text>
<polygon fill="none" stroke="#29235c" stroke-width="2" points="68.93,-281.24 68.93,-583.24 394.93,-583.24 394.93,-281.24 68.93,-281.24"/>
</a>
</g>
</g>
<!-- TagMapping&#45;&gt;Tags -->
<!-- TagMapping&#45;&gt;Tags -->
<g id="edge2" class="edge">
<title>TagMapping:e&#45;&gt;Tags:w</title>
<path fill="none" stroke="#29235c" stroke-width="3" d="M394.93,-372.24C482.7,-372.24 471.49,-483.05 551.53,-491.7"/>
<polygon fill="#29235c" stroke="#29235c" stroke-width="3" points="551.58,-495.21 561.75,-492.24 551.95,-488.22 551.58,-495.21"/>
<text text-anchor="middle" x="570.65" y="-501.84" font-family="Helvetica,sans-Serif" font-size="32.00" fill="#29235c">1</text>
<text text-anchor="middle" x="401.15" y="-343.44" font-family="Helvetica,sans-Serif" font-size="32.00" fill="#29235c">*</text>
</g>
</g>
</svg>
