<?xml version="1.0" encoding="UTF-8" standalone="no"?>
<!DOCTYPE svg PUBLIC "-//W3C//DTD SVG 1.1//EN"
 "http://www.w3.org/Graphics/SVG/1.1/DTD/svg11.dtd">
<!-- Generated by graphviz version 2.47.0 (20210316.0004)
 -->
<!-- Title: dbml Pages: 1 -->
<svg width="924pt" height="523pt"
 viewBox="0.00 0.00 923.64 522.77" xmlns="http://www.w3.org/2000/svg" xmlns:xlink="http://www.w3.org/1999/xlink">
<g id="graph0" class="graph" transform="scale(1 1) rotate(0) translate(4 518.77)">
<title>dbml</title>
<!-- Tags -->
<g id="Tags" class="node">
<title>Tags</title>
<g id="a_Tags"><a xlink:title="Tags&#10;Individual labels or identifiers that can be applied to data points for sorting, searching, and categorization purposes.">
<ellipse fill="none" stroke="black" stroke-width="0" cx="707.75" cy="-257.39" rx="207.78" ry="257.27"/>
<polygon fill="#1d71b8" stroke="transparent" points="562.75,-377.39 562.75,-437.39 852.75,-437.39 852.75,-377.39 562.75,-377.39"/>
<polygon fill="none" stroke="#29235c" points="562.75,-377.39 562.75,-437.39 852.75,-437.39 852.75,-377.39 562.75,-377.39"/>
<text text-anchor="start" x="609.94" y="-398.59" font-family="Helvetica,sans-Serif" font-weight="bold" font-size="32.00" fill="#ffffff"> &#160;&#160;&#160;&#160;&#160;&#160;Tags &#160;&#160;&#160;&#160;&#160;&#160;</text>
<polygon fill="#e7e2dd" stroke="transparent" points="562.75,-317.39 562.75,-377.39 852.75,-377.39 852.75,-317.39 562.75,-317.39"/>
<polygon fill="none" stroke="#29235c" points="562.75,-317.39 562.75,-377.39 852.75,-377.39 852.75,-317.39 562.75,-317.39"/>
<text text-anchor="start" x="573.75" y="-338.59" font-family="Helvetica,sans-Serif" font-weight="bold" font-size="32.00" fill="#29235c">tag_id</text>
<text text-anchor="start" x="660.9" y="-338.59" font-family="Helvetica,sans-Serif" font-size="32.00" fill="#29235c"> &#160;&#160;&#160;</text>
<text text-anchor="start" x="763.53" y="-338.59" font-family="Helvetica,sans-Serif" font-style="italic" font-size="32.00" fill="#29235c">string</text>
<polygon fill="#e7e2dd" stroke="transparent" points="562.75,-257.39 562.75,-317.39 852.75,-317.39 852.75,-257.39 562.75,-257.39"/>
<polygon fill="none" stroke="#29235c" points="562.75,-257.39 562.75,-317.39 852.75,-317.39 852.75,-257.39 562.75,-257.39"/>
<text text-anchor="start" x="573.75" y="-277.59" font-family="Helvetica,sans-Serif" font-size="32.00" fill="#29235c">name &#160;&#160;&#160;</text>
<text text-anchor="start" x="763.53" y="-278.59" font-family="Helvetica,sans-Serif" font-style="italic" font-size="32.00" fill="#29235c">string</text>
<polygon fill="#e7e2dd" stroke="transparent" points="562.75,-197.39 562.75,-257.39 852.75,-257.39 852.75,-197.39 562.75,-197.39"/>
<polygon fill="none" stroke="#29235c" points="562.75,-197.39 562.75,-257.39 852.75,-257.39 852.75,-197.39 562.75,-197.39"/>
<text text-anchor="start" x="573.62" y="-217.59" font-family="Helvetica,sans-Serif" font-size="32.00" fill="#29235c">description &#160;&#160;&#160;</text>
<text text-anchor="start" x="763.64" y="-218.59" font-family="Helvetica,sans-Serif" font-style="italic" font-size="32.00" fill="#29235c">string</text>
<polygon fill="#e7e2dd" stroke="transparent" points="562.75,-137.39 562.75,-197.39 852.75,-197.39 852.75,-137.39 562.75,-137.39"/>
<polygon fill="none" stroke="#29235c" points="562.75,-137.39 562.75,-197.39 852.75,-197.39 852.75,-137.39 562.75,-137.39"/>
<text text-anchor="start" x="573.75" y="-157.59" font-family="Helvetica,sans-Serif" font-size="32.00" fill="#29235c">create &#160;&#160;&#160;</text>
<text text-anchor="start" x="763.53" y="-158.59" font-family="Helvetica,sans-Serif" font-style="italic" font-size="32.00" fill="#29235c">string</text>
<polygon fill="#e7e2dd" stroke="transparent" points="562.75,-77.39 562.75,-137.39 852.75,-137.39 852.75,-77.39 562.75,-77.39"/>
<polygon fill="none" stroke="#29235c" points="562.75,-77.39 562.75,-137.39 852.75,-137.39 852.75,-77.39 562.75,-77.39"/>
<text text-anchor="start" x="573.75" y="-97.59" font-family="Helvetica,sans-Serif" font-size="32.00" fill="#29235c">value_set &#160;&#160;&#160;</text>
<text text-anchor="start" x="802.66" y="-98.59" font-family="Helvetica,sans-Serif" font-style="italic" font-size="32.00" fill="#29235c">list</text>
<polygon fill="none" stroke="#29235c" stroke-width="2" points="561.75,-76.39 561.75,-438.39 853.75,-438.39 853.75,-76.39 561.75,-76.39"/>
</a>
</g>
</g>
<!-- TagMapping -->
<g id="TagMapping" class="node">
<title>TagMapping</title>
<g id="a_TagMapping"><a xlink:title="TagMapping&#10;A many&#45;to&#45;many relationship table that maps tags to addresses, allowing an address to have multiple tags and a tag to be applied to multiple addresses.">
<ellipse fill="none" stroke="black" stroke-width="0" cx="231.93" cy="-287.39" rx="231.86" ry="214.92"/>
<polygon fill="#1d71b8" stroke="transparent" points="69.93,-377.39 69.93,-437.39 393.93,-437.39 393.93,-377.39 69.93,-377.39"/>
<polygon fill="none" stroke="#29235c" points="69.93,-377.39 69.93,-437.39 393.93,-437.39 393.93,-377.39 69.93,-377.39"/>
<text text-anchor="start" x="80.77" y="-398.59" font-family="Helvetica,sans-Serif" font-weight="bold" font-size="32.00" fill="#ffffff"> &#160;&#160;&#160;&#160;&#160;&#160;TagMapping &#160;&#160;&#160;&#160;&#160;&#160;</text>
<polygon fill="#e7e2dd" stroke="transparent" points="69.93,-317.39 69.93,-377.39 393.93,-377.39 393.93,-317.39 69.93,-317.39"/>
<polygon fill="none" stroke="#29235c" points="69.93,-317.39 69.93,-377.39 393.93,-377.39 393.93,-317.39 69.93,-317.39"/>
<text text-anchor="start" x="80.93" y="-338.59" font-family="Helvetica,sans-Serif" font-weight="bold" font-size="32.00" fill="#29235c">address</text>
<text text-anchor="start" x="194.74" y="-338.59" font-family="Helvetica,sans-Serif" font-size="32.00" fill="#29235c"> &#160;&#160;&#160;</text>
<text text-anchor="start" x="304.71" y="-338.59" font-family="Helvetica,sans-Serif" font-style="italic" font-size="32.00" fill="#29235c">string</text>
<polygon fill="#e7e2dd" stroke="transparent" points="69.93,-257.39 69.93,-317.39 393.93,-317.39 393.93,-257.39 69.93,-257.39"/>
<polygon fill="none" stroke="#29235c" points="69.93,-257.39 69.93,-317.39 393.93,-317.39 393.93,-257.39 69.93,-257.39"/>
<text text-anchor="start" x="80.93" y="-278.59" font-family="Helvetica,sans-Serif" font-weight="bold" font-size="32.00" fill="#29235c">chain_id</text>
<text text-anchor="start" x="200.08" y="-278.59" font-family="Helvetica,sans-Serif" font-size="32.00" fill="#29235c"> &#160;&#160;&#160;</text>
<text text-anchor="start" x="304.71" y="-278.59" font-family="Helvetica,sans-Serif" font-style="italic" font-size="32.00" fill="#29235c">string</text>
<polygon fill="#e7e2dd" stroke="transparent" points="69.93,-197.39 69.93,-257.39 393.93,-257.39 393.93,-197.39 69.93,-197.39"/>
<polygon fill="none" stroke="#29235c" points="69.93,-197.39 69.93,-257.39 393.93,-257.39 393.93,-197.39 69.93,-197.39"/>
<text text-anchor="start" x="80.93" y="-218.59" font-family="Helvetica,sans-Serif" font-weight="bold" font-size="32.00" fill="#29235c">tag_id</text>
<text text-anchor="start" x="168.08" y="-218.59" font-family="Helvetica,sans-Serif" font-size="32.00" fill="#29235c"> &#160;&#160;&#160;</text>
<text text-anchor="start" x="304.71" y="-218.59" font-family="Helvetica,sans-Serif" font-style="italic" font-size="32.00" fill="#29235c">string</text>
<polygon fill="#e7e2dd" stroke="transparent" points="69.93,-137.39 69.93,-197.39 393.93,-197.39 393.93,-137.39 69.93,-137.39"/>
<polygon fill="none" stroke="#29235c" points="69.93,-137.39 69.93,-197.39 393.93,-197.39 393.93,-137.39 69.93,-137.39"/>
<text text-anchor="start" x="80.93" y="-157.59" font-family="Helvetica,sans-Serif" font-size="32.00" fill="#29235c">value &#160;&#160;&#160;</text>
<text text-anchor="start" x="304.71" y="-158.59" font-family="Helvetica,sans-Serif" font-style="italic" font-size="32.00" fill="#29235c">string</text>
<polygon fill="none" stroke="#29235c" stroke-width="2" points="68.93,-136.39 68.93,-438.39 394.93,-438.39 394.93,-136.39 68.93,-136.39"/>
</a>
</g>
</g>
<!-- TagMapping&#45;&gt;Tags -->
<!-- TagMapping&#45;&gt;Tags -->
<g id="edge2" class="edge">
<title>TagMapping:e&#45;&gt;Tags:w</title>
<path fill="none" stroke="#29235c" stroke-width="3" d="M394.93,-227.39C482.7,-227.39 471.49,-338.19 551.53,-346.85"/>
<polygon fill="#29235c" stroke="#29235c" stroke-width="3" points="551.58,-350.36 561.75,-347.39 551.95,-343.37 551.58,-350.36"/>
<text text-anchor="middle" x="570.65" y="-356.99" font-family="Helvetica,sans-Serif" font-size="32.00" fill="#29235c">1</text>
<text text-anchor="middle" x="401.15" y="-198.59" font-family="Helvetica,sans-Serif" font-size="32.00" fill="#29235c">*</text>
</g>
</g>
</svg>
